<svg width="25" height="26" viewBox="0 0 25 26" fill="none" xmlns="http://www.w3.org/2000/svg">
<path d="M14.1362 22.4836L13.0522 23.5676C12.5933 24.0266 11.8511 24.0266 11.397 23.5676L1.90479 14.0803C1.4458 13.6213 1.4458 12.8792 1.90479 12.425L11.397 2.93286C11.856 2.47388 12.5981 2.47388 13.0522 2.93286L14.1362 4.01685C14.6001 4.48071 14.5903 5.23755 14.1167 5.69165L8.23291 11.2971H22.2661C22.9155 11.2971 23.438 11.8196 23.438 12.469V14.0315C23.438 14.6809 22.9155 15.2034 22.2661 15.2034H8.23291L14.1167 20.8088C14.5952 21.2629 14.605 22.0198 14.1362 22.4836Z" fill="#C5C5C5"/>
</svg>
