<svg width="25" height="26" viewBox="0 0 25 26" fill="none" xmlns="http://www.w3.org/2000/svg">
<path d="M10.8643 4.01685L11.9482 2.93286C12.4072 2.47388 13.1494 2.47388 13.6035 2.93286L23.0957 12.4202C23.5547 12.8792 23.5547 13.6213 23.0957 14.0754L13.6035 23.5676C13.1445 24.0266 12.4023 24.0266 11.9482 23.5676L10.8643 22.4836C10.4004 22.0198 10.4102 21.2629 10.8838 20.8088L16.7676 15.2034H2.73438C2.08496 15.2034 1.5625 14.6809 1.5625 14.0315V12.469C1.5625 11.8196 2.08496 11.2971 2.73438 11.2971H16.7676L10.8838 5.69165C10.4053 5.23755 10.3955 4.48071 10.8643 4.01685Z" fill="#F6D021"/>
</svg>
