<svg width="332" height="332" viewBox="0 0 332 332" fill="none" xmlns="http://www.w3.org/2000/svg">
<g filter="url(#filter0_dd_807_1099)">
<rect x="16" y="6" width="300" height="300" rx="20" fill="white"/>
</g>
<g clip-path="url(#clip0_807_1099)">
<path d="M282.078 182.818C288.598 182.818 293.883 177.533 293.883 171.013C293.883 164.494 288.598 159.208 282.078 159.208C275.559 159.208 270.273 164.494 270.273 171.013C270.273 177.533 275.559 182.818 282.078 182.818Z" fill="#F2F2F2"/>
<path d="M282.078 174.12C283.794 174.12 285.185 172.729 285.185 171.013C285.185 169.297 283.794 167.907 282.078 167.907C280.363 167.907 278.972 169.297 278.972 171.013C278.972 172.729 280.363 174.12 282.078 174.12Z" fill="#E6E6E6"/>
<path d="M281.511 171.079C282.819 172.147 283.218 173.829 282.974 175.454C282.675 177.236 281.751 178.853 280.367 180.015C278.811 181.398 276.913 182.332 275.081 183.289C273.399 184.148 271.781 185.13 270.243 186.226C264.353 190.507 259.903 196.603 257.356 203.405C254.814 210.196 254.131 217.904 256.063 224.942C257.019 228.424 258.953 232.181 262.555 233.491C265.427 234.536 269.347 233.863 270.81 230.903C272.38 227.724 270.189 224.151 267.366 222.572C263.707 220.527 259.337 222.022 256.046 224.092C252.423 226.372 249.51 229.644 245.728 231.687C244.025 232.636 242.13 233.189 240.184 233.304C238.398 233.375 236.614 233.099 234.932 232.493C231.441 231.221 228.436 228.889 226.339 225.823C223.936 222.33 222.86 218.049 222.664 213.855C222.226 204.471 225.932 195.693 228.906 186.991C230.505 182.459 231.702 177.796 232.485 173.055C233.229 168.29 233.494 163.463 233.276 158.645C233.079 154.385 232.658 149.93 230.778 146.039C229.125 142.618 226.103 139.817 222.283 139.112C220.561 138.774 218.777 138.979 217.176 139.698C216.631 139.947 217.104 140.75 217.647 140.503C221.027 138.961 225.023 140.461 227.52 142.951C230.436 145.859 231.507 150.153 231.982 154.116C233.051 163.506 232.209 173.015 229.507 182.072C226.914 190.879 222.836 199.319 221.894 208.547C221.465 212.758 221.686 217.111 223.031 221.149C224.186 224.745 226.351 227.934 229.269 230.333C232.016 232.554 235.395 234.067 238.952 234.235C242.945 234.424 246.447 232.644 249.545 230.276C252.863 227.74 255.916 224.61 259.935 223.188C261.768 222.54 263.855 222.237 265.736 222.861C267.35 223.413 268.719 224.514 269.604 225.972C270.422 227.33 270.723 229.029 269.977 230.489C269.276 231.861 267.908 232.655 266.426 232.927C264.858 233.204 263.241 232.929 261.852 232.149C260.23 231.223 259.042 229.667 258.21 228.024C256.551 224.746 255.994 220.845 255.909 217.208C255.835 213.655 256.29 210.11 257.26 206.691C259.189 199.775 263.084 193.567 268.471 188.82C269.828 187.638 271.28 186.569 272.812 185.624C274.483 184.594 276.267 183.771 277.971 182.799C279.648 181.842 281.3 180.699 282.454 179.126C283.438 177.777 283.97 176.151 283.973 174.481C283.99 173.713 283.838 172.951 283.526 172.249C283.214 171.547 282.751 170.922 282.17 170.42C281.709 170.044 281.046 170.7 281.511 171.079V171.079Z" fill="#CCCCCC"/>
<path d="M171.308 225.377C175.435 228.045 180.21 229.542 185.122 229.707C185.034 229.915 184.936 230.118 184.827 230.316C184.255 231.372 183.447 232.281 182.466 232.972C181.304 233.79 179.94 234.273 178.523 234.368C177.106 234.463 175.689 234.168 174.428 233.513C173.167 232.859 172.11 231.871 171.373 230.657C170.635 229.443 170.245 228.049 170.245 226.629V225.377H171.308Z" fill="#3F3D56"/>
<path d="M200.281 225.743V226.629C200.282 228.352 199.708 230.027 198.651 231.388C197.593 232.749 196.112 233.72 194.442 234.145C192.772 234.571 191.008 234.428 189.428 233.739C187.848 233.05 186.542 231.855 185.718 230.341C185.604 230.138 185.501 229.93 185.41 229.716C185.637 229.723 185.861 229.726 186.087 229.726C191.095 229.732 196.007 228.353 200.281 225.743Z" fill="#3F3D56"/>
<path d="M210.732 132.12C210.499 132.086 210.262 132.064 210.026 132.048C212.709 138.231 212.895 145.212 210.545 151.529C210.781 151.501 211.014 151.464 211.247 151.42C213.522 150.98 215.567 149.746 217.018 147.939C218.468 146.131 219.23 143.868 219.168 141.552C219.106 139.235 218.225 137.016 216.68 135.289C215.135 133.561 213.027 132.438 210.732 132.12Z" fill="#3F3D56"/>
<path d="M162.149 132.048C161.913 132.064 161.677 132.086 161.444 132.12C159.149 132.438 157.041 133.561 155.496 135.289C153.951 137.016 153.069 139.235 153.007 141.552C152.946 143.868 153.708 146.131 155.158 147.939C156.609 149.746 158.653 150.98 160.928 151.42C161.161 151.464 161.394 151.501 161.631 151.529C159.281 145.212 159.467 138.231 162.149 132.048Z" fill="#3F3D56"/>
<path d="M210.732 132.12C208.173 126.006 203.432 121.062 197.432 118.248C191.431 115.434 184.599 114.951 178.262 116.893C171.925 118.835 166.536 123.063 163.142 128.756C159.749 134.449 158.592 141.2 159.897 147.697C161.203 154.195 164.877 159.976 170.206 163.916C175.535 167.857 182.139 169.675 188.734 169.019C195.329 168.363 201.445 165.279 205.893 160.365C210.341 155.452 212.804 149.061 212.804 142.433C212.802 138.892 212.098 135.387 210.732 132.12ZM210.545 151.529C208.273 157.638 203.796 162.675 197.997 165.648C192.197 168.622 185.494 169.317 179.208 167.596C172.921 165.876 167.506 161.865 164.029 156.353C160.551 150.841 159.263 144.226 160.418 137.812C161.572 131.397 165.086 125.647 170.267 121.693C175.449 117.739 181.922 115.868 188.414 116.448C194.906 117.027 200.945 120.016 205.344 124.825C209.743 129.634 212.182 135.916 212.182 142.433C212.181 145.539 211.627 148.619 210.545 151.529V151.529Z" fill="#3F3D56"/>
<path d="M199.756 136.376H172.419C170.977 136.376 169.594 136.948 168.575 137.968C167.555 138.988 166.982 140.37 166.982 141.812C166.982 143.254 167.555 144.637 168.575 145.656C169.594 146.676 170.977 147.248 172.419 147.248H199.756C201.198 147.248 202.58 146.676 203.6 145.656C204.619 144.637 205.192 143.254 205.192 141.812C205.192 140.37 204.619 138.988 203.6 137.968C202.58 136.948 201.198 136.376 199.756 136.376Z" fill="#3F3D56"/>
<path d="M186.088 174.43C178.785 174.434 171.773 177.295 166.552 182.402C161.331 187.508 158.315 194.455 158.151 201.757C157.986 209.058 160.685 216.134 165.67 221.472C170.655 226.809 177.531 229.983 184.827 230.316C185.122 230.332 185.42 230.341 185.719 230.341C185.843 230.347 185.964 230.347 186.088 230.347C193.503 230.347 200.615 227.402 205.858 222.158C211.101 216.915 214.047 209.804 214.047 202.389C214.047 194.974 211.101 187.862 205.858 182.619C200.615 177.376 193.503 174.43 186.088 174.43ZM200.282 225.743C196.008 228.353 191.096 229.732 186.088 229.726C185.861 229.726 185.638 229.723 185.411 229.717C185.315 229.717 185.218 229.713 185.122 229.707C178.558 229.479 172.294 226.896 167.477 222.431C162.66 217.965 159.611 211.916 158.886 205.387C158.162 198.859 159.811 192.288 163.532 186.875C167.253 181.462 172.798 177.569 179.153 175.907C185.508 174.246 192.248 174.926 198.143 177.825C204.037 180.723 208.692 185.646 211.255 191.694C213.819 197.741 214.122 204.509 212.107 210.761C210.092 217.013 205.894 222.331 200.282 225.743Z" fill="#3F3D56"/>
<path d="M205.71 195.503H193.491C192.64 195.503 191.823 195.164 191.221 194.562C190.619 193.96 190.281 193.144 190.281 192.293C190.281 191.441 190.619 190.625 191.221 190.023C191.823 189.421 192.64 189.083 193.491 189.083H205.71C206.562 189.083 207.378 189.421 207.98 190.023C208.582 190.625 208.92 191.441 208.92 192.293C208.92 193.144 208.582 193.96 207.98 194.562C207.378 195.164 206.562 195.503 205.71 195.503Z" fill="#3F3D56"/>
<path d="M194.306 193.922C195.206 193.922 195.935 193.192 195.935 192.293C195.935 191.393 195.206 190.663 194.306 190.663C193.406 190.663 192.677 191.393 192.677 192.293C192.677 193.192 193.406 193.922 194.306 193.922Z" fill="#F2F2F2"/>
<path d="M199.601 193.922C200.501 193.922 201.23 193.192 201.23 192.293C201.23 191.393 200.501 190.663 199.601 190.663C198.701 190.663 197.972 191.393 197.972 192.293C197.972 193.192 198.701 193.922 199.601 193.922Z" fill="#F2F2F2"/>
<path d="M204.896 193.922C205.796 193.922 206.525 193.192 206.525 192.293C206.525 191.393 205.796 190.663 204.896 190.663C203.996 190.663 203.267 191.393 203.267 192.293C203.267 193.192 203.996 193.922 204.896 193.922Z" fill="#FF9C00"/>
<path d="M91.1407 233.574C93.9342 231.214 95.6311 227.485 95.1861 223.854C94.7411 220.224 91.9849 216.887 88.4098 216.116C84.8347 215.345 80.7593 217.479 79.6734 220.972C79.0758 214.239 78.3871 207.223 74.8073 201.489C71.5659 196.297 65.9518 192.582 59.8673 191.918C53.7828 191.253 47.3766 193.763 43.5819 198.566C39.7873 203.368 38.8581 210.35 41.5158 215.863C43.4737 219.925 47.0807 222.948 50.8599 225.407C62.917 233.252 77.8738 235.903 92.1055 233.809L91.1407 233.574Z" fill="#F2F2F2"/>
<path d="M49.5984 193.902C54.6188 197.992 59.2246 202.565 63.349 207.557C67.474 212.543 71.1057 217.918 74.193 223.606C75.9186 226.796 77.4688 230.079 78.8366 233.438C79.1155 234.122 78.0058 234.419 77.73 233.743C75.3073 227.82 72.3099 222.149 68.7809 216.811C65.269 211.492 61.2494 206.527 56.7787 201.984C54.25 199.416 51.5821 196.989 48.7869 194.714C48.214 194.247 49.0302 193.44 49.5984 193.902Z" fill="white"/>
<path d="M90.1936 135.503C95.5122 135.503 99.8237 131.191 99.8237 125.873C99.8237 120.554 95.5122 116.243 90.1936 116.243C84.875 116.243 80.5635 120.554 80.5635 125.873C80.5635 131.191 84.875 135.503 90.1936 135.503Z" fill="#2F2E41"/>
<path d="M126.11 161.135C125.925 161.412 125.7 161.661 125.442 161.872C125.071 162.178 124.639 162.403 124.174 162.53C123.71 162.658 123.224 162.686 122.748 162.613C122.272 162.54 121.817 162.367 121.413 162.105C121.008 161.844 120.664 161.5 120.401 161.096C120.341 161.002 120.285 160.905 120.234 160.805L105.059 159.341C103.862 159.22 102.735 158.717 101.846 157.906C100.957 157.094 100.353 156.018 100.124 154.836L99.2627 150.295L105.185 149.374L106.248 153.011L121.043 156.646C121.158 156.545 121.279 156.453 121.407 156.369C122.067 155.941 122.855 155.753 123.637 155.838C124.419 155.923 125.148 156.276 125.7 156.836C126.253 157.396 126.596 158.129 126.67 158.912C126.745 159.696 126.547 160.481 126.11 161.135L126.11 161.135Z" fill="#FFB8B8"/>
<path d="M106.612 152.462L99.9966 154.25C99.6387 154.346 99.2572 154.296 98.9359 154.111C98.6145 153.927 98.3795 153.622 98.2825 153.265L95.9653 144.687C95.7171 143.768 95.8179 142.79 96.2481 141.941C96.6784 141.092 97.4078 140.433 98.2955 140.09C99.1833 139.747 100.167 139.744 101.056 140.084C101.945 140.423 102.677 141.079 103.111 141.926L107.492 150.475C107.587 150.661 107.639 150.865 107.645 151.073C107.651 151.281 107.61 151.488 107.526 151.679C107.442 151.869 107.316 152.038 107.158 152.174C107 152.31 106.813 152.408 106.612 152.462Z" fill="#2F2E41"/>
<path d="M102.779 231.224H106.587L108.4 216.534L102.778 216.534L102.779 231.224Z" fill="#FFB8B8"/>
<path d="M113.934 234.76L101.964 234.761L101.964 230.136L109.309 230.136C110.535 230.136 111.712 230.623 112.579 231.49C113.446 232.357 113.934 233.534 113.934 234.76Z" fill="#2F2E41"/>
<path d="M68.835 227.512L72.3981 228.858L79.2827 215.755L74.024 213.77L68.835 227.512Z" fill="#FFB8B8"/>
<path d="M78.0205 234.761L66.8226 230.533L68.4561 226.206L75.3276 228.801C76.4751 229.234 77.4034 230.105 77.9084 231.223C78.4134 232.341 78.4538 233.613 78.0205 234.761L78.0205 234.761Z" fill="#2F2E41"/>
<path d="M102.659 227.812C102.364 227.812 102.076 227.718 101.838 227.544C101.599 227.37 101.422 227.126 101.331 226.845L91.6173 196.847C91.5885 196.758 91.5337 196.68 91.4598 196.623C91.386 196.565 91.2967 196.531 91.2034 196.525C91.1101 196.519 91.0172 196.542 90.9368 196.589C90.8563 196.637 90.792 196.708 90.7522 196.792L77.2904 225.434C77.1446 225.744 76.8903 225.989 76.5757 226.124C76.2611 226.259 75.908 226.274 75.5832 226.166L70.2814 224.399C69.9447 224.286 69.6634 224.049 69.4946 223.736C69.3257 223.424 69.2819 223.059 69.3719 222.715L77.6179 191.481C78.4808 188.172 79.1041 184.806 79.4829 181.407C80.0612 175.811 82.6847 170.626 86.8505 166.845C88.6694 165.179 89.8518 162.931 90.1949 160.488L90.2171 160.332L102.293 162.239L109.943 224.657C109.982 224.991 109.9 225.328 109.712 225.607C109.525 225.886 109.243 226.088 108.918 226.177L103.024 227.763C102.905 227.796 102.782 227.812 102.659 227.812Z" fill="#2F2E41"/>
<path d="M94.0195 135.457C98.2334 135.457 101.649 132.041 101.649 127.827C101.649 123.613 98.2334 120.197 94.0195 120.197C89.8057 120.197 86.3896 123.613 86.3896 127.827C86.3896 132.041 89.8057 135.457 94.0195 135.457Z" fill="#FFB8B8"/>
<path d="M101.543 163.57C101.519 163.57 101.495 163.569 101.471 163.568L89.4997 162.969C89.1655 162.954 88.848 162.819 88.6054 162.589C88.3628 162.359 88.2113 162.049 88.1788 161.716L86.5434 145.771C86.4237 144.603 86.5913 143.424 87.0317 142.336C87.4721 141.248 88.1719 140.284 89.0701 139.528C89.9683 138.772 91.0377 138.248 92.1851 138C93.3325 137.753 94.523 137.789 95.6529 138.107H95.653C96.5892 138.363 97.4616 138.812 98.2145 139.425C106.636 146.34 103.92 158.871 102.888 162.546C102.807 162.841 102.631 163.1 102.388 163.285C102.145 163.47 101.848 163.57 101.543 163.57Z" fill="#FF9C00"/>
<path d="M91.1289 174.276C90.7956 174.276 90.4642 174.227 90.1456 174.129C89.6847 173.989 89.2586 173.754 88.8951 173.438C88.5316 173.122 88.2389 172.733 88.0363 172.296C87.8336 171.859 87.7256 171.385 87.7192 170.903C87.7128 170.422 87.8082 169.944 87.9992 169.502C88.0439 169.4 88.094 169.299 88.1493 169.202L80.9624 155.757C80.399 154.693 80.1936 153.476 80.3766 152.286C80.5597 151.097 81.1216 149.998 81.9787 149.153L85.2821 145.92L89.3297 150.341L86.8902 153.24L92.06 167.572C92.2072 167.611 92.3515 167.661 92.4917 167.721C93.2138 168.033 93.8062 168.585 94.1687 169.283C94.5313 169.982 94.6418 170.784 94.4817 171.554C94.3215 172.324 93.9005 173.016 93.2897 173.512C92.6789 174.008 91.9157 174.278 91.1289 174.276L91.1289 174.276Z" fill="#FFB8B8"/>
<path d="M87.548 153.239L82.3956 148.721C82.1172 148.476 81.9472 148.131 81.9229 147.761C81.8987 147.391 82.0221 147.027 82.2661 146.748L88.124 140.068C88.7515 139.352 89.6217 138.894 90.5668 138.782C91.5119 138.67 92.465 138.912 93.2423 139.461C94.0197 140.01 94.5662 140.828 94.7764 141.756C94.9867 142.684 94.8459 143.657 94.3811 144.488L89.6895 152.871C89.5878 153.052 89.4468 153.209 89.2767 153.329C89.1067 153.45 88.9119 153.53 88.7066 153.566C88.5014 153.601 88.2908 153.59 88.0903 153.533C87.8899 153.477 87.7046 153.376 87.548 153.239V153.239Z" fill="#2F2E41"/>
<path d="M89.1097 135.239C89.8059 135.485 90.6593 135.703 91.2071 135.191C91.7419 134.691 91.6445 133.777 91.3294 133.104C91.0144 132.431 90.5258 131.831 90.376 131.099C90.1613 130.048 90.7164 128.957 91.5088 128.272C92.3012 127.587 93.2987 127.228 94.2725 126.882L99.6135 124.983C100.936 124.513 102.36 123.961 103.1 122.724C104.171 120.935 103.192 118.377 101.436 117.332C99.68 116.288 97.4621 116.483 95.5676 117.217C94.5198 117.623 93.523 118.183 92.4394 118.469C90.3008 119.033 87.8692 118.527 85.9899 119.732C84.3539 120.782 83.5952 122.924 83.6503 124.928C83.7054 126.932 84.4432 128.84 85.2215 130.673C85.6845 131.763 86.1791 132.866 86.9634 133.734C87.7477 134.601 88.881 135.207 90.0131 135.048L89.1097 135.239Z" fill="#2F2E41"/>
<path d="M82.1163 127.426C85.5476 127.426 88.3293 124.644 88.3293 121.213C88.3293 117.782 85.5476 115 82.1163 115C78.685 115 75.9033 117.782 75.9033 121.213C75.9033 124.644 78.685 127.426 82.1163 127.426Z" fill="#2F2E41"/>
<path d="M132.508 157.078L132.398 157.062L132.813 154.042C132.877 153.578 132.754 153.108 132.471 152.736C132.188 152.363 131.769 152.117 131.305 152.054L124.906 151.174C124.442 151.11 123.972 151.233 123.599 151.516C123.226 151.799 122.981 152.218 122.917 152.682L120.639 169.252C120.576 169.716 120.699 170.186 120.982 170.558C121.264 170.931 121.684 171.177 122.147 171.24L128.547 172.12C129.01 172.184 129.48 172.061 129.853 171.778C130.226 171.495 130.471 171.076 130.535 170.612L132.102 159.212L132.212 159.227L132.508 157.078Z" fill="#3F3D56"/>
<path d="M131.104 152.94L130.307 152.83C130.332 152.925 130.332 153.024 130.309 153.12C130.286 153.215 130.24 153.303 130.174 153.376C130.109 153.449 130.027 153.505 129.935 153.539C129.843 153.572 129.744 153.583 129.647 153.57L126.151 153.089C126.054 153.076 125.961 153.039 125.882 152.981C125.803 152.924 125.739 152.848 125.696 152.76C125.653 152.672 125.632 152.575 125.635 152.477C125.638 152.379 125.666 152.284 125.715 152.199L124.971 152.097C124.807 152.074 124.641 152.084 124.481 152.126C124.321 152.168 124.172 152.24 124.04 152.34C123.909 152.44 123.798 152.565 123.715 152.707C123.631 152.85 123.577 153.007 123.554 153.171L121.385 168.953C121.339 169.283 121.427 169.618 121.628 169.884C121.83 170.149 122.129 170.324 122.459 170.369L128.592 171.212C128.922 171.258 129.257 171.17 129.523 170.969C129.788 170.767 129.963 170.469 130.008 170.138L132.178 154.356C132.223 154.026 132.136 153.691 131.934 153.425C131.733 153.16 131.434 152.985 131.104 152.94V152.94Z" fill="white"/>
<path d="M126.754 166.043C128.641 166.043 130.171 164.513 130.171 162.626C130.171 160.738 128.641 159.208 126.754 159.208C124.867 159.208 123.337 160.738 123.337 162.626C123.337 164.513 124.867 166.043 126.754 166.043Z" fill="#FF9C00"/>
<path d="M126.415 163.929C126.338 163.929 126.263 163.904 126.202 163.858L126.198 163.855L125.395 163.241C125.357 163.212 125.326 163.177 125.302 163.136C125.279 163.096 125.263 163.051 125.257 163.004C125.251 162.958 125.254 162.91 125.266 162.865C125.278 162.819 125.299 162.777 125.327 162.74C125.356 162.702 125.392 162.671 125.432 162.648C125.473 162.624 125.518 162.609 125.565 162.603C125.611 162.597 125.658 162.6 125.704 162.612C125.749 162.624 125.792 162.646 125.829 162.674L126.349 163.073L127.578 161.47C127.607 161.433 127.642 161.402 127.683 161.378C127.723 161.355 127.768 161.34 127.815 161.333C127.861 161.327 127.908 161.33 127.954 161.342C127.999 161.355 128.041 161.375 128.078 161.404L128.071 161.414L128.079 161.404C128.154 161.462 128.203 161.547 128.215 161.641C128.227 161.734 128.202 161.829 128.145 161.904L126.699 163.79C126.665 163.833 126.622 163.869 126.573 163.893C126.524 163.917 126.47 163.929 126.415 163.929Z" fill="white"/>
<path d="M302.942 235H42.2165C42.1186 235 42.0248 234.961 41.9556 234.891C41.8865 234.822 41.8477 234.728 41.8477 234.63C41.8477 234.532 41.8865 234.438 41.9556 234.369C42.0248 234.3 42.1186 234.261 42.2165 234.26H302.942C303.04 234.26 303.135 234.299 303.204 234.369C303.273 234.438 303.312 234.532 303.312 234.63C303.312 234.728 303.273 234.822 303.204 234.892C303.135 234.961 303.04 235 302.942 235Z" fill="#CCCCCC"/>
</g>
<defs>
<filter id="filter0_dd_807_1099" x="0" y="0" width="332" height="332" filterUnits="userSpaceOnUse" color-interpolation-filters="sRGB">
<feFlood flood-opacity="0" result="BackgroundImageFix"/>
<feColorMatrix in="SourceAlpha" type="matrix" values="0 0 0 0 0 0 0 0 0 0 0 0 0 0 0 0 0 0 127 0" result="hardAlpha"/>
<feOffset dy="10"/>
<feGaussianBlur stdDeviation="8"/>
<feColorMatrix type="matrix" values="0 0 0 0 0.0784314 0 0 0 0 0.145098 0 0 0 0 0.247059 0 0 0 0.06 0"/>
<feBlend mode="normal" in2="BackgroundImageFix" result="effect1_dropShadow_807_1099"/>
<feColorMatrix in="SourceAlpha" type="matrix" values="0 0 0 0 0 0 0 0 0 0 0 0 0 0 0 0 0 0 127 0" result="hardAlpha"/>
<feOffset/>
<feGaussianBlur stdDeviation="0.5"/>
<feColorMatrix type="matrix" values="0 0 0 0 0.0470588 0 0 0 0 0.101961 0 0 0 0 0.294118 0 0 0 0.1 0"/>
<feBlend mode="normal" in2="effect1_dropShadow_807_1099" result="effect2_dropShadow_807_1099"/>
<feBlend mode="normal" in="SourceGraphic" in2="effect2_dropShadow_807_1099" result="shape"/>
</filter>
<clipPath id="clip0_807_1099">
<rect width="263.312" height="120" fill="white" transform="translate(40 115)"/>
</clipPath>
</defs>
</svg>
