<svg width="150" height="69" viewBox="0 0 150 69" fill="none" xmlns="http://www.w3.org/2000/svg">
<g clip-path="url(#clip0_773_410)">
<path d="M137.904 38.6335C141.618 38.6335 144.628 35.6228 144.628 31.9088C144.628 28.1948 141.618 25.1841 137.904 25.1841C134.19 25.1841 131.179 28.1948 131.179 31.9088C131.179 35.6228 134.19 38.6335 137.904 38.6335Z" fill="#F2F2F2"/>
<path d="M137.904 33.6784C138.881 33.6784 139.673 32.8861 139.673 31.9087C139.673 30.9313 138.881 30.139 137.904 30.139C136.926 30.139 136.134 30.9313 136.134 31.9087C136.134 32.8861 136.926 33.6784 137.904 33.6784Z" fill="#E6E6E6"/>
<path d="M137.58 31.9465C138.326 32.5547 138.553 33.5131 138.414 34.4386C138.244 35.4537 137.717 36.3749 136.929 37.0366C136.042 37.8245 134.961 38.357 133.918 38.9021C132.959 39.3914 132.038 39.9506 131.162 40.5753C127.806 43.014 125.271 46.4865 123.82 50.3615C122.372 54.23 121.984 58.6208 123.084 62.6301C123.629 64.6138 124.73 66.754 126.782 67.5004C128.418 68.0953 130.652 67.7121 131.484 66.0262C132.379 64.2152 131.131 62.1794 129.523 61.2803C127.439 60.1149 124.949 60.9665 123.074 62.1462C121.01 63.445 119.351 65.3087 117.196 66.4727C116.226 67.0132 115.147 67.3281 114.038 67.3939C113.02 67.434 112.004 67.277 111.046 66.9316C109.058 66.2072 107.346 64.8785 106.151 63.1319C104.782 61.1423 104.169 58.7034 104.058 56.3143C103.808 50.9688 105.919 45.968 107.614 41.0107C108.524 38.4293 109.206 35.7728 109.652 33.0721C110.076 30.3576 110.227 27.6075 110.103 24.8629C109.99 22.436 109.751 19.8983 108.68 17.6818C107.738 15.7328 106.017 14.1377 103.841 13.7355C102.86 13.543 101.843 13.6598 100.931 14.0697C100.621 14.2113 100.89 14.669 101.199 14.5281C103.125 13.6496 105.401 14.5044 106.824 15.9229C108.485 17.5794 109.095 20.0257 109.366 22.2829C109.975 27.6322 109.495 33.0494 107.956 38.2086C106.479 43.2259 104.155 48.0339 103.619 53.2906C103.374 55.6893 103.5 58.1691 104.267 60.4692C104.925 62.5181 106.158 64.3344 107.82 65.7014C109.385 66.9664 111.31 67.8283 113.336 67.9243C115.611 68.032 117.606 67.0179 119.371 65.6689C121.261 64.224 123 62.4412 125.29 61.6311C126.334 61.2617 127.523 61.0894 128.594 61.4449C129.514 61.7591 130.294 62.3862 130.798 63.2167C131.263 63.9907 131.435 64.9585 131.01 65.79C130.611 66.5718 129.831 67.024 128.987 67.1787C128.094 67.3368 127.173 67.1803 126.382 66.736C125.457 66.208 124.781 65.3219 124.307 64.3857C123.362 62.5188 123.044 60.2964 122.996 58.2243C122.954 56.2002 123.213 54.1811 123.766 52.2334C124.865 48.2935 127.083 44.757 130.152 42.0528C130.925 41.3792 131.752 40.7703 132.625 40.232C133.577 39.6451 134.594 39.1763 135.564 38.6226C136.519 38.0777 137.46 37.4268 138.118 36.5302C138.679 35.7618 138.981 34.8356 138.983 33.8844C138.993 33.447 138.906 33.0127 138.728 32.6128C138.551 32.2128 138.287 31.8571 137.956 31.5711C137.693 31.3569 137.316 31.7304 137.58 31.9465V31.9465Z" fill="#CCCCCC"/>
<path d="M74.8013 62.8778C77.1526 64.3977 79.8727 65.2504 82.671 65.3447C82.621 65.4632 82.5649 65.579 82.5028 65.6916C82.1771 66.2928 81.7168 66.8107 81.1579 67.2046C80.4961 67.6704 79.7191 67.9455 78.9116 67.9998C78.1042 68.0542 77.2973 67.8858 76.5791 67.513C75.8608 67.1401 75.2587 66.5772 74.8385 65.8856C74.4182 65.194 74.196 64.4003 74.196 63.591V62.8778H74.8013Z" fill="#3F3D56"/>
<path d="M91.3068 63.0867V63.591C91.3072 64.5729 90.9804 65.527 90.3781 66.3024C89.7757 67.0778 88.9322 67.6305 87.9807 67.873C87.0293 68.1155 86.0241 68.0341 85.1241 67.6417C84.224 67.2492 83.4804 66.568 83.0107 65.7058C82.9459 65.5904 82.8874 65.4717 82.8354 65.3501C82.9646 65.3536 83.0921 65.3554 83.2213 65.3554C86.074 65.3587 88.8722 64.5736 91.3068 63.0867Z" fill="#3F3D56"/>
<path d="M97.2599 9.75262C97.1271 9.73315 96.9926 9.72076 96.8582 9.71191C98.3864 13.2341 98.4923 17.211 97.1537 20.8095C97.2882 20.7935 97.4209 20.7723 97.5537 20.7475C98.8497 20.4964 100.014 19.7935 100.841 18.764C101.667 17.7345 102.101 16.4452 102.066 15.1256C102.031 13.8059 101.528 12.5416 100.648 11.5577C99.7681 10.5738 98.5674 9.93417 97.2599 9.75262Z" fill="#3F3D56"/>
<path d="M69.5841 9.71191C69.4497 9.72076 69.3152 9.73315 69.1824 9.75261C67.8749 9.93416 66.6742 10.5738 65.794 11.5577C64.9139 12.5416 64.4115 13.8059 64.3763 15.1256C64.341 16.4452 64.7752 17.7345 65.6015 18.764C66.4278 19.7935 67.5926 20.4964 68.8886 20.7475C69.0214 20.7723 69.1541 20.7935 69.2886 20.8095C67.95 17.211 68.0559 13.2341 69.5841 9.71191Z" fill="#3F3D56"/>
<path d="M97.2599 9.75256C95.802 6.26985 93.1016 3.45339 89.6832 1.85036C86.2649 0.247333 82.3727 -0.0278085 78.7629 1.07839C75.153 2.18459 72.0832 4.59315 70.1499 7.83614C68.2165 11.0791 67.5577 14.925 68.3013 18.6266C69.045 22.3282 71.138 25.6212 74.1739 27.8658C77.2097 30.1105 80.9715 31.1466 84.7285 30.7728C88.4855 30.399 91.9694 28.642 94.5034 25.8431C97.0374 23.0443 98.4405 19.4034 98.4402 15.6278C98.4395 13.6106 98.0383 11.6136 97.2599 9.75256ZM97.1537 20.8094C95.8592 24.2892 93.309 27.1585 90.0051 28.8525C86.7012 30.5464 82.883 30.9424 79.3018 29.9624C75.7206 28.9824 72.636 26.6974 70.655 23.5573C68.6739 20.4171 67.9401 16.6491 68.5978 12.995C69.2554 9.34089 71.2571 6.0653 74.2087 3.81292C77.1603 1.56054 80.848 0.494542 84.5462 0.824721C88.2443 1.1549 91.6849 2.85734 94.1908 5.59698C96.6967 8.33662 98.0864 11.915 98.0863 15.6278C98.0857 17.3967 97.7699 19.1513 97.1537 20.8094V20.8094Z" fill="#3F3D56"/>
<path d="M91.0078 12.177H75.4348C74.6134 12.177 73.8257 12.5033 73.245 13.0841C72.6642 13.6648 72.3379 14.4526 72.3379 15.2739C72.3379 16.0953 72.6642 16.883 73.245 17.4638C73.8257 18.0445 74.6134 18.3708 75.4348 18.3708H91.0078C91.8292 18.3708 92.6169 18.0445 93.1977 17.4638C93.7784 16.883 94.1047 16.0953 94.1047 15.2739C94.1047 14.4526 93.7784 13.6648 93.1977 13.0841C92.6169 12.5033 91.8292 12.177 91.0078 12.177Z" fill="#3F3D56"/>
<path d="M83.2211 33.8553C79.0607 33.8572 75.0661 35.4871 72.0919 38.3963C69.1177 41.3055 67.3999 45.263 67.3061 49.4224C67.2122 53.5818 68.7497 57.6128 71.5896 60.6532C74.4296 63.6936 78.3465 65.502 82.5026 65.6916C82.6708 65.7004 82.8407 65.7057 83.0105 65.7057C83.0813 65.7093 83.1503 65.7092 83.2211 65.7092C87.4452 65.7092 91.4963 64.0312 94.4832 61.0444C97.4701 58.0575 99.1481 54.0064 99.1481 49.7823C99.1481 45.5582 97.4701 41.5071 94.4832 38.5202C91.4963 35.5334 87.4452 33.8553 83.2211 33.8553ZM91.3067 63.0866C88.8721 64.5735 86.0739 65.3586 83.2211 65.3553C83.0919 65.3553 82.9645 65.3536 82.8353 65.35C82.7804 65.35 82.7256 65.3482 82.6708 65.3447C78.9312 65.2147 75.3632 63.7434 72.619 61.1996C69.8748 58.6558 68.1377 55.2094 67.725 51.4904C67.3124 47.7714 68.2518 44.028 70.3716 40.9445C72.4915 37.861 75.6501 35.6434 79.2702 34.6968C82.8904 33.7502 86.7303 34.1379 90.0881 35.7891C93.446 37.4403 96.0975 40.2447 97.5581 43.6898C99.0186 47.1348 99.1908 50.9904 98.0429 54.5518C96.8951 58.1133 94.504 61.1428 91.3067 63.0866Z" fill="#3F3D56"/>
<path d="M94.3995 45.8596H87.4388C86.9538 45.8596 86.4887 45.667 86.1457 45.324C85.8028 44.9811 85.6101 44.516 85.6101 44.031C85.6101 43.546 85.8028 43.0808 86.1457 42.7379C86.4887 42.3949 86.9538 42.2023 87.4388 42.2023H94.3995C94.8845 42.2023 95.3496 42.3949 95.6926 42.7379C96.0355 43.0808 96.2282 43.546 96.2282 44.031C96.2282 44.516 96.0355 44.9811 95.6926 45.324C95.3496 45.667 94.8845 45.8596 94.3995 45.8596Z" fill="#3F3D56"/>
<path d="M87.9029 44.959C88.4155 44.959 88.831 44.5434 88.831 44.0309C88.831 43.5183 88.4155 43.1028 87.9029 43.1028C87.3904 43.1028 86.9749 43.5183 86.9749 44.0309C86.9749 44.5434 87.3904 44.959 87.9029 44.959Z" fill="#F2F2F2"/>
<path d="M90.9193 44.959C91.4319 44.959 91.8474 44.5434 91.8474 44.0309C91.8474 43.5183 91.4319 43.1028 90.9193 43.1028C90.4067 43.1028 89.9912 43.5183 89.9912 44.0309C89.9912 44.5434 90.4067 44.959 90.9193 44.959Z" fill="#F2F2F2"/>
<path d="M93.9354 44.959C94.448 44.959 94.8635 44.5434 94.8635 44.0309C94.8635 43.5183 94.448 43.1028 93.9354 43.1028C93.4228 43.1028 93.0073 43.5183 93.0073 44.0309C93.0073 44.5434 93.4228 44.959 93.9354 44.959Z" fill="#FF9C00"/>
<path d="M29.1331 67.5475C30.7245 66.2028 31.6911 64.0786 31.4376 62.0106C31.1841 59.9427 29.614 58.0416 27.5774 57.6024C25.5408 57.1633 23.2192 58.3789 22.6006 60.3684C22.2601 56.5327 21.8678 52.5364 19.8285 49.2699C17.982 46.3123 14.7838 44.196 11.3177 43.8174C7.85158 43.4387 4.2022 44.8687 2.0405 47.6045C-0.121194 50.3402 -0.650478 54.3175 0.863517 57.4584C1.97883 59.7722 4.03361 61.4941 6.18652 62.895C13.055 67.3643 21.5754 68.8744 29.6827 67.6813L29.1331 67.5475Z" fill="#F2F2F2"/>
<path d="M5.46819 44.9481C8.32817 47.2776 10.9519 49.8829 13.3014 52.7265C15.6513 55.5671 17.7202 58.6289 19.4789 61.869C20.4619 63.6866 21.345 65.5564 22.1242 67.4702C22.2831 67.8595 21.6509 68.029 21.4938 67.644C20.1137 64.27 18.4062 61.0393 16.3958 57.9984C14.3952 54.9684 12.1054 52.1397 9.55857 49.552C8.11808 48.089 6.59823 46.7064 5.00592 45.4104C4.67954 45.1446 5.14451 44.6845 5.46819 44.9481Z" fill="white"/>
<path d="M28.5936 11.6798C31.6234 11.6798 34.0796 9.22364 34.0796 6.19384C34.0796 3.16403 31.6234 0.707886 28.5936 0.707886C25.5638 0.707886 23.1077 3.16403 23.1077 6.19384C23.1077 9.22364 25.5638 11.6798 28.5936 11.6798Z" fill="#2F2E41"/>
<path d="M49.0538 26.2815C48.9487 26.4396 48.8205 26.5811 48.6736 26.7013C48.4619 26.8758 48.2158 27.0036 47.9513 27.0764C47.6868 27.1491 47.4099 27.1652 47.1388 27.1234C46.8677 27.0817 46.6084 26.9831 46.3781 26.8342C46.1477 26.6853 45.9514 26.4894 45.802 26.2593C45.7674 26.2057 45.7356 26.1503 45.7069 26.0934L37.0622 25.2593C36.3799 25.1909 35.7379 24.9043 35.2314 24.442C34.7249 23.9798 34.381 23.3666 34.2507 22.6934L33.76 20.1066L37.1338 19.5818L37.7392 21.6538L46.1677 23.7241C46.233 23.6669 46.3022 23.6142 46.3748 23.5666C46.7508 23.3226 47.1995 23.2158 47.6451 23.2642C48.0906 23.3126 48.5059 23.5133 48.8207 23.8323C49.1355 24.1513 49.3306 24.5692 49.3731 25.0154C49.4156 25.4616 49.3028 25.9088 49.0539 26.2815L49.0538 26.2815Z" fill="#FFB8B8"/>
<path d="M37.9465 21.3411L34.1778 22.3591C33.9739 22.414 33.7566 22.3857 33.5736 22.2805C33.3905 22.1753 33.2566 22.0018 33.2014 21.798L31.8814 16.9117C31.74 16.3882 31.7973 15.831 32.0425 15.3474C32.2876 14.8638 32.7031 14.4881 33.2088 14.2927C33.7145 14.0973 34.2747 14.0961 34.7813 14.2893C35.2879 14.4824 35.705 14.8563 35.9523 15.3388L38.4476 20.2091C38.5017 20.3147 38.5315 20.4311 38.5349 20.5497C38.5383 20.6683 38.5151 20.7862 38.4671 20.8946C38.419 21.0031 38.3474 21.0995 38.2573 21.1768C38.1672 21.254 38.061 21.3101 37.9465 21.3411Z" fill="#2F2E41"/>
<path d="M35.7635 66.2088H37.9329L38.9651 57.8405L35.7629 57.8406L35.7635 66.2088Z" fill="#FFB8B8"/>
<path d="M42.1172 68.2233L35.2986 68.2236L35.2984 65.5891L39.4826 65.5889C40.1813 65.5889 40.8514 65.8664 41.3455 66.3604C41.8396 66.8545 42.1172 67.5246 42.1172 68.2233Z" fill="#2F2E41"/>
<path d="M16.4263 64.0944L18.4561 64.8607L22.378 57.3966L19.3823 56.2656L16.4263 64.0944Z" fill="#FFB8B8"/>
<path d="M21.6589 68.2235L15.2799 65.8149L16.2104 63.3503L20.1249 64.8283C20.7785 65.0751 21.3074 65.5715 21.5951 66.2082C21.8828 66.8449 21.9057 67.5698 21.6589 68.2235L21.6589 68.2235Z" fill="#2F2E41"/>
<path d="M35.6949 64.2652C35.5267 64.265 35.3629 64.2116 35.227 64.1126C35.0911 64.0136 34.99 63.8741 34.9383 63.7141L29.4048 46.6254C29.3884 46.5748 29.3571 46.5302 29.3151 46.4975C29.2731 46.4649 29.2222 46.4456 29.169 46.4422C29.1159 46.4389 29.063 46.4515 29.0171 46.4786C28.9713 46.5057 28.9346 46.546 28.912 46.5941L21.2432 62.9106C21.1602 63.087 21.0153 63.2268 20.8361 63.3037C20.6569 63.3805 20.4558 63.3889 20.2707 63.3275L17.2505 62.3206C17.0587 62.2563 16.8984 62.1214 16.8022 61.9434C16.706 61.7654 16.6811 61.5575 16.7324 61.3618L21.4298 43.5684C21.9214 41.6836 22.2764 39.7658 22.4922 37.83C22.8217 34.6422 24.3162 31.6882 26.6893 29.5343C27.7255 28.585 28.399 27.3047 28.5945 25.9131L28.6072 25.8241L35.4865 26.9103L39.844 62.4678C39.8666 62.6581 39.8201 62.8501 39.713 63.009C39.6059 63.1678 39.4454 63.283 39.2606 63.3335L35.9029 64.2375C35.8351 64.2559 35.7652 64.2652 35.6949 64.2652Z" fill="#2F2E41"/>
<path d="M30.773 11.6536C33.1735 11.6536 35.1195 9.70765 35.1195 7.30716C35.1195 4.90667 33.1735 2.96069 30.773 2.96069C28.3725 2.96069 26.4265 4.90667 26.4265 7.30716C26.4265 9.70765 28.3725 11.6536 30.773 11.6536Z" fill="#FFB8B8"/>
<path d="M35.0589 27.6684C35.0453 27.6684 35.0317 27.6681 35.0179 27.6674L28.1984 27.3264C28.008 27.3178 27.8272 27.2409 27.689 27.1097C27.5508 26.9786 27.4645 26.802 27.4459 26.6124L26.5143 17.529C26.4461 16.8638 26.5416 16.1921 26.7925 15.5722C27.0434 14.9524 27.442 14.4033 27.9537 13.9729C28.4654 13.5424 29.0746 13.2436 29.7282 13.1025C30.3818 12.9614 31.06 12.9822 31.7037 13.1633H31.7037C32.237 13.3093 32.734 13.565 33.1629 13.9139C37.9602 17.8536 36.4134 24.9917 35.825 27.0855C35.7789 27.2532 35.6789 27.4012 35.5405 27.5065C35.402 27.6118 35.2328 27.6687 35.0589 27.6684Z" fill="#FF9C00"/>
<path d="M29.1262 33.7677C28.9363 33.7677 28.7475 33.7394 28.566 33.6837C28.3034 33.6041 28.0607 33.47 27.8536 33.2901C27.6465 33.1101 27.4798 32.8885 27.3644 32.6397C27.2489 32.3908 27.1874 32.1204 27.1837 31.8461C27.1801 31.5718 27.2345 31.2998 27.3433 31.048C27.3688 30.9895 27.3973 30.9324 27.4288 30.8769L23.3346 23.2176C23.0137 22.6117 22.8967 21.9184 23.001 21.2407C23.1053 20.5629 23.4253 19.9369 23.9136 19.4555L25.7954 17.6141L28.1012 20.1323L26.7115 21.7841L29.6566 29.9482C29.7404 29.9708 29.8226 29.9993 29.9025 30.0334C30.3139 30.2113 30.6513 30.5256 30.8578 30.9234C31.0644 31.3212 31.1273 31.7781 31.0361 32.2169C30.9449 32.6557 30.7051 33.0496 30.3571 33.3321C30.0092 33.6147 29.5744 33.7685 29.1262 33.7677L29.1262 33.7677Z" fill="#FFB8B8"/>
<path d="M27.0867 21.7835L24.1516 19.2097C23.993 19.0704 23.8961 18.8738 23.8823 18.6631C23.8685 18.4524 23.9388 18.2449 24.0778 18.086L27.4149 14.2803C27.7723 13.8726 28.268 13.6118 28.8064 13.548C29.3448 13.4842 29.8878 13.622 30.3306 13.9348C30.7734 14.2476 31.0847 14.7133 31.2045 15.2421C31.3243 15.7708 31.2441 16.3252 30.9793 16.7983L28.3067 21.5737C28.2488 21.6772 28.1684 21.7665 28.0715 21.835C27.9747 21.9035 27.8637 21.9495 27.7468 21.9696C27.6298 21.9897 27.5099 21.9834 27.3957 21.9512C27.2815 21.919 27.1759 21.8617 27.0867 21.7835V21.7835Z" fill="#2F2E41"/>
<path d="M27.9759 11.5293C28.3725 11.6699 28.8587 11.7939 29.1707 11.5022C29.4754 11.2175 29.4199 10.6968 29.2404 10.3133C29.0609 9.9297 28.7826 9.58837 28.6973 9.17087C28.575 8.57253 28.8912 7.95091 29.3426 7.56081C29.794 7.17072 30.3622 6.9658 30.917 6.76861L33.9596 5.68703C34.7127 5.41931 35.5243 5.10482 35.9457 4.40028C36.5556 3.38085 35.9981 1.92363 34.9978 1.32877C33.9975 0.733907 32.734 0.844726 31.6547 1.263C31.0578 1.49434 30.49 1.81313 29.8727 1.97598C28.6544 2.29738 27.2692 2.00905 26.1986 2.69597C25.2667 3.29392 24.8345 4.51401 24.8658 5.65561C24.8972 6.79721 25.3176 7.88441 25.7609 8.92846C26.0247 9.54959 26.3065 10.1779 26.7532 10.6719C27.2 11.1659 27.8456 11.5115 28.4905 11.4206L27.9759 11.5293Z" fill="#2F2E41"/>
<path d="M23.9924 7.07865C25.9472 7.07865 27.5318 5.49404 27.5318 3.53932C27.5318 1.58461 25.9472 0 23.9924 0C22.0377 0 20.4531 1.58461 20.4531 3.53932C20.4531 5.49404 22.0377 7.07865 23.9924 7.07865Z" fill="#2F2E41"/>
<path d="M52.6984 23.9701L52.6356 23.9615L52.8721 22.2409C52.9084 21.9768 52.8383 21.7091 52.6772 21.4966C52.5161 21.2842 52.2772 21.1444 52.0131 21.1081L48.3677 20.607C48.1036 20.5707 47.8359 20.6408 47.6234 20.8019C47.411 20.963 47.2712 21.2019 47.2349 21.466L45.9373 30.9055C45.901 31.1696 45.9711 31.4373 46.1322 31.6497C46.2933 31.8622 46.5322 32.0019 46.7963 32.0382L50.4417 32.5393C50.7059 32.5756 50.9736 32.5055 51.186 32.3444C51.3985 32.1834 51.5382 31.9445 51.5745 31.6804L52.4672 25.1862L52.53 25.1949L52.6984 23.9701Z" fill="#3F3D56"/>
<path d="M51.8986 21.6129L51.4447 21.5505C51.4586 21.6046 51.4589 21.6612 51.4457 21.7154C51.4325 21.7696 51.4062 21.8198 51.369 21.8614C51.3319 21.903 51.2851 21.9349 51.2328 21.9542C51.1804 21.9734 51.1241 21.9795 51.0688 21.9719L49.0768 21.6981C49.0216 21.6905 48.969 21.6694 48.9238 21.6367C48.8786 21.6041 48.8421 21.5607 48.8176 21.5106C48.7931 21.4605 48.7813 21.4052 48.7832 21.3494C48.7851 21.2937 48.8007 21.2392 48.8286 21.1909L48.4047 21.1326C48.3115 21.1198 48.2168 21.1255 48.1258 21.1493C48.0348 21.1731 47.9494 21.2146 47.8745 21.2715C47.7996 21.3283 47.7366 21.3993 47.6891 21.4805C47.6416 21.5616 47.6106 21.6514 47.5978 21.7445L46.3619 30.7351C46.336 30.9233 46.386 31.114 46.5007 31.2653C46.6155 31.4166 46.7856 31.5162 46.9738 31.542L50.4677 32.0223C50.6558 32.0482 50.8465 31.9982 50.9978 31.8835C51.1491 31.7687 51.2487 31.5986 51.2745 31.4105L52.5104 22.4198C52.5363 22.2317 52.4864 22.041 52.3716 21.8896C52.2569 21.7383 52.0867 21.6388 51.8986 21.6129V21.6129Z" fill="white"/>
<path d="M49.4207 29.0773C50.4958 29.0773 51.3674 28.2058 51.3674 27.1307C51.3674 26.0556 50.4958 25.1841 49.4207 25.1841C48.3457 25.1841 47.4741 26.0556 47.4741 27.1307C47.4741 28.2058 48.3457 29.0773 49.4207 29.0773Z" fill="#FF9C00"/>
<path d="M49.2278 27.8733C49.184 27.8734 49.1414 27.8592 49.1063 27.8329L49.1042 27.8313L48.6467 27.4811C48.6254 27.4649 48.6075 27.4446 48.594 27.4215C48.5806 27.3984 48.5718 27.3728 48.5682 27.3463C48.5647 27.3198 48.5664 27.2928 48.5732 27.267C48.5801 27.2411 48.592 27.2169 48.6083 27.1956C48.6246 27.1744 48.6449 27.1566 48.6681 27.1432C48.6913 27.1298 48.7168 27.1212 48.7434 27.1177C48.7699 27.1142 48.7969 27.1161 48.8227 27.123C48.8485 27.13 48.8727 27.142 48.8939 27.1584L49.1902 27.3856L49.8905 26.4724C49.9067 26.4512 49.927 26.4334 49.9501 26.4201C49.9732 26.4067 49.9987 26.3981 50.0251 26.3946C50.0516 26.3911 50.0785 26.3928 50.1043 26.3997C50.1301 26.4066 50.1542 26.4185 50.1754 26.4348L50.1711 26.4407L50.1755 26.4349C50.2183 26.4677 50.2462 26.5161 50.2533 26.5696C50.2603 26.623 50.2459 26.677 50.2131 26.7198L49.3895 27.794C49.3705 27.8187 49.346 27.8388 49.3179 27.8525C49.2899 27.8663 49.259 27.8734 49.2278 27.8733Z" fill="white"/>
<path d="M149.789 68.3599H1.26259C1.20681 68.3597 1.15338 68.3375 1.11399 68.298C1.07461 68.2585 1.05249 68.205 1.05249 68.1492C1.05249 68.0934 1.07461 68.0399 1.11399 68.0004C1.15338 67.9609 1.20681 67.9386 1.26259 67.9385H149.789C149.845 67.9385 149.899 67.9607 149.938 68.0002C149.978 68.0397 150 68.0933 150 68.1492C150 68.2051 149.978 68.2587 149.938 68.2982C149.899 68.3377 149.845 68.3599 149.789 68.3599Z" fill="#CCCCCC"/>
</g>
<defs>
<clipPath id="clip0_773_410">
<rect width="150" height="68.3599" fill="white"/>
</clipPath>
</defs>
</svg>
