<svg width="150" height="82" viewBox="0 0 150 82" fill="none" xmlns="http://www.w3.org/2000/svg">
<g clip-path="url(#clip0_773_192)">
<path d="M99.7616 22.1062L96.1858 21.4729L92.5338 31.3291L86.2976 40.6194C85.8585 40.6319 85.4332 40.775 85.0758 41.0303C84.7185 41.2857 84.4454 41.6418 84.2914 42.0532C84.1374 42.4645 84.1095 42.9124 84.2113 43.3397C84.313 43.7669 84.5398 44.1542 84.8627 44.4519C85.1856 44.7496 85.59 44.9444 86.0241 45.0113C86.4582 45.0781 86.9023 45.0141 87.2999 44.8273C87.6974 44.6405 88.0302 44.3395 88.2558 43.9627C88.4815 43.5858 88.5897 43.1503 88.5666 42.7117L96.1832 33.9306L99.7616 22.1062Z" fill="#FFB7B7"/>
<path d="M112 9.82522C112 13.3689 108.723 12.8329 104.681 12.8329C100.639 12.8329 97.3625 13.3689 97.3625 9.82522C97.3625 6.2815 98.9631 0 104.681 0C110.597 0 112 6.2815 112 9.82522Z" fill="#2F2E41"/>
<path d="M125.456 40.6571L118.997 29.5452L115.989 19.4736L112.38 19.8747L115.187 31.9055L122.377 41.366C122.152 41.7366 122.041 42.1653 122.059 42.5985C122.076 43.0317 122.221 43.4502 122.475 43.8016C122.729 44.153 123.08 44.4218 123.486 44.5743C123.892 44.7267 124.334 44.7562 124.756 44.6589C125.179 44.5616 125.563 44.3419 125.862 44.0273C126.16 43.7126 126.359 43.3171 126.433 42.89C126.508 42.4629 126.455 42.0233 126.281 41.6261C126.107 41.229 125.82 40.8919 125.456 40.6571Z" fill="#FFB7B7"/>
<path d="M119.047 58.3498L126.466 78.6018H129.518L124.283 57.6235L119.047 58.3498Z" fill="#FFB7B7"/>
<path d="M102.806 59.4526L95.3868 79.7046H92.3347L97.5702 58.7263L102.806 59.4526Z" fill="#FFB7B7"/>
<path d="M110.425 15.4397C110.425 15.4397 113.433 14.4371 114.235 15.8407C115.037 17.2443 117.042 21.6556 117.042 21.6556L113.032 22.2572L116.641 31.2803C116.641 31.2803 121.654 35.0901 122.857 43.7123C124.06 52.3344 125.263 59.3524 125.263 59.3524C125.263 59.3524 104.41 62.7612 96.389 61.3576C96.389 61.3576 96.9906 57.1467 98.5947 56.9462C97.3916 55.7431 98.9768 54.7406 98.9768 54.7406L102.605 41.7071L103.407 35.2906C103.407 35.2906 102.01 28.7293 100.199 27.4706C98.3875 26.2118 98.9957 22.6582 98.9957 22.6582L95.3865 22.8587C95.3865 22.8587 95.7875 16.4423 97.5921 16.4423H99.7978L110.425 15.4397Z" fill="#2F2E41"/>
<path d="M129.894 81.2265L121.968 81.2262V81.1259C121.968 80.3077 122.293 79.523 122.871 78.9444C123.45 78.3659 124.235 78.0408 125.053 78.0408H125.053L129.894 78.041L129.894 81.2265Z" fill="#2F2E41"/>
<path d="M96.2077 81.2265L88.2812 81.2262V81.1259C88.2813 80.3077 88.6064 79.523 89.1849 78.9444C89.7635 78.3659 90.5482 78.0408 91.3665 78.0408H91.3667L96.2079 78.041L96.2077 81.2265Z" fill="#2F2E41"/>
<path d="M105.003 12.4686C107.723 12.4686 109.928 10.2637 109.928 7.54374C109.928 4.82383 107.723 2.6189 105.003 2.6189C102.284 2.6189 100.079 4.82383 100.079 7.54374C100.079 10.2637 102.284 12.4686 105.003 12.4686Z" fill="#FFB7B7"/>
<path d="M98.9666 7.41907H100.914L101.774 5.01289L101.946 7.41907H102.877L103.378 6.01547L103.478 7.41907H110.396C110.396 6.0364 109.847 4.71035 108.869 3.73265C107.891 2.75496 106.565 2.20569 105.183 2.20569H104.18C102.797 2.20569 101.471 2.75496 100.494 3.73265C99.5158 4.71035 98.9666 6.0364 98.9666 7.41907Z" fill="#2F2E41"/>
<path d="M149.799 81.5373H73.4034C73.3502 81.5373 73.2992 81.5161 73.2616 81.4785C73.224 81.4409 73.2029 81.3899 73.2029 81.3367C73.2029 81.2836 73.224 81.2326 73.2616 81.195C73.2992 81.1574 73.3502 81.1362 73.4034 81.1362H149.799C149.853 81.1362 149.904 81.1574 149.941 81.195C149.979 81.2326 150 81.2836 150 81.3367C150 81.3899 149.979 81.4409 149.941 81.4785C149.904 81.5161 149.853 81.5373 149.799 81.5373Z" fill="#CBCBCB"/>
<path d="M86.2719 6.83582H0V43.063H86.2719V6.83582Z" fill="#CBCBCB"/>
<path d="M1.80469 41.2584H84.4673V8.64038H1.80469V41.2584Z" fill="white"/>
<path d="M71.7286 20.3758V34.2851C71.7282 34.4683 71.6552 34.644 71.5257 34.7735C71.3961 34.9031 71.2205 34.9761 71.0372 34.9765H56.0705C55.8873 34.9761 55.7117 34.9031 55.5821 34.7735C55.4525 34.644 55.3796 34.4683 55.3792 34.2851V20.3758C55.3793 20.1925 55.4522 20.0167 55.5818 19.8871C55.7114 19.7575 55.8872 19.6846 56.0705 19.6844H71.0372C71.2206 19.6846 71.3963 19.7575 71.526 19.8871C71.6556 20.0167 71.7285 20.1925 71.7286 20.3758Z" fill="#FF9C00"/>
<path d="M64.6112 35.0464H62.4963C62.3154 35.0485 62.141 34.9788 62.0114 34.8526C61.8818 34.7263 61.8075 34.5538 61.8049 34.3729V19.9445C61.8075 19.7635 61.8818 19.591 62.0114 19.4648C62.141 19.3385 62.3154 19.2688 62.4963 19.2709H64.6112C64.7921 19.2688 64.9665 19.3385 65.0961 19.4648C65.2257 19.591 65.3 19.7635 65.3026 19.9445V34.3729C65.3 34.5538 65.2257 34.7263 65.0961 34.8526C64.9665 34.9788 64.7921 35.0485 64.6112 35.0464Z" fill="#3F3D56"/>
<path d="M63.1184 15.3307C64.2053 16.2715 63.8621 18.4488 63.8621 18.4488C63.8621 18.4488 61.7566 19.1006 60.6697 18.1599C59.5827 17.2191 59.9259 15.0418 59.9259 15.0418C59.9259 15.0418 62.0314 14.39 63.1184 15.3307Z" fill="#3F3D56"/>
<path d="M66.7286 17.9795C65.7912 19.0694 63.6129 18.733 63.6129 18.733C63.6129 18.733 62.9544 16.6295 63.8918 15.5397C64.8292 14.4498 67.0075 14.7862 67.0075 14.7862C67.0075 14.7862 67.666 16.8897 66.7286 17.9795Z" fill="#3F3D56"/>
<path opacity="0.2" d="M71.7286 20.3758V22.7176L55.3792 22.6485V20.3758C55.3793 20.1925 55.4522 20.0167 55.5818 19.8871C55.7114 19.7575 55.8872 19.6846 56.0705 19.6844H71.0372C71.2205 19.6846 71.3963 19.7574 71.526 19.8871C71.6556 20.0167 71.7285 20.1925 71.7286 20.3758Z" fill="black"/>
<path d="M73.4892 21.7995C73.4245 21.8846 73.3409 21.9535 73.245 22.0007C73.1491 22.048 73.0436 22.0723 72.9367 22.0719L54.7166 21.9955C54.6258 21.9951 54.536 21.9768 54.4522 21.9417C54.3685 21.9066 54.2925 21.8554 54.2285 21.7909C54.1646 21.7264 54.114 21.65 54.0796 21.566C54.0452 21.4819 54.0277 21.392 54.0281 21.3012L54.0366 19.2677C54.0374 19.0843 54.1109 18.9088 54.2411 18.7797C54.3713 18.6506 54.5474 18.5785 54.7307 18.5792H54.7309L72.951 18.6556C73.0418 18.656 73.1317 18.6742 73.2154 18.7093C73.2991 18.7444 73.3751 18.7957 73.4391 18.8602C73.503 18.9246 73.5536 19.0011 73.588 19.0851C73.6224 19.1691 73.6399 19.2591 73.6395 19.3499L73.631 21.3834C73.6305 21.5339 73.5807 21.6801 73.4892 21.7995Z" fill="#FF9C00"/>
<path d="M61.8487 18.4468L61.834 22.1071L65.3316 22.1211L65.3463 18.4608L61.8487 18.4468Z" fill="#3F3D56"/>
<path d="M32.9561 19.483H12.7307V21.0978H32.9561V19.483Z" fill="#E5E5E5"/>
<path d="M43.9631 25.3729H12.7307V26.9877H43.9631V25.3729Z" fill="#FF9C00"/>
<path d="M38.1844 30.9219H12.7307V32.5366H38.1844V30.9219Z" fill="#E5E5E5"/>
<path d="M25.3116 69.8854C26.0982 70.1619 26.9428 70.2312 27.764 70.0866C28.5852 69.9419 29.3553 69.5882 30.0002 69.0595C31.6423 67.6811 32.1573 65.411 32.5761 63.3084L33.8152 57.0891L31.221 58.8754C29.3553 60.1599 27.4477 61.4858 26.156 63.3464C24.8643 65.207 24.3008 67.7471 25.3383 69.7605" fill="#E6E6E6"/>
<path d="M25.7122 77.8479C25.3856 75.4691 25.0497 73.0595 25.2793 70.6551C25.4827 68.5198 26.1342 66.4345 27.4605 64.724C28.1645 63.818 29.0212 63.0417 29.992 62.4301C30.245 62.2704 30.478 62.6714 30.226 62.8305C28.5463 63.892 27.247 65.4596 26.5156 67.3071C25.7078 69.3616 25.5781 71.6013 25.7173 73.7838C25.8014 75.1036 25.9801 76.4148 26.1596 77.7244C26.1737 77.7836 26.1649 77.846 26.1348 77.899C26.1047 77.9519 26.0557 77.9915 25.9976 78.0096C25.9383 78.0256 25.875 78.0176 25.8216 77.9872C25.7682 77.9569 25.729 77.9067 25.7123 77.8476L25.7122 77.8479Z" fill="#F2F2F2"/>
<path d="M28.0623 74.0308C28.3996 74.5437 28.8633 74.961 29.4088 75.2426C29.9542 75.5243 30.5631 75.6606 31.1765 75.6386C32.7535 75.5638 34.0676 74.4637 35.2504 73.4189L38.7498 70.3292L36.4339 70.2184C34.7684 70.1386 33.0599 70.0638 31.4735 70.578C29.8872 71.0922 28.4242 72.3277 28.1342 73.9697" fill="#E6E6E6"/>
<path d="M24.789 79.2154C26.361 76.434 28.1842 73.3428 31.4423 72.3547C32.3481 72.081 33.2979 71.9829 34.2406 72.0658C34.5377 72.0914 34.4635 72.5494 34.167 72.5239C32.5868 72.3927 31.0097 72.8099 29.7012 73.7053C28.442 74.5624 27.4615 75.7541 26.6317 77.0176C26.1234 77.7917 25.6681 78.5986 25.2128 79.4044C25.0673 79.6619 24.6419 79.4759 24.789 79.2154Z" fill="#F2F2F2"/>
<path d="M41.9227 79.7326H14.6527C14.5995 79.7326 14.5485 79.7115 14.5109 79.6739C14.4733 79.6362 14.4521 79.5852 14.4521 79.5321C14.4521 79.4789 14.4733 79.4279 14.5109 79.3903C14.5485 79.3527 14.5995 79.3315 14.6527 79.3315H41.9227C41.9758 79.3315 42.0268 79.3527 42.0644 79.3903C42.102 79.4279 42.1232 79.4789 42.1232 79.5321C42.1232 79.5852 42.102 79.6362 42.0644 79.6739C42.0268 79.7115 41.9758 79.7326 41.9227 79.7326Z" fill="#CBCBCB"/>
</g>
<defs>
<clipPath id="clip0_773_192">
<rect width="150" height="81.5372" fill="white"/>
</clipPath>
</defs>
</svg>
