<svg width="150" height="151" viewBox="0 0 150 151" fill="none" xmlns="http://www.w3.org/2000/svg">
<g clip-path="url(#clip0_773_140)">
<path d="M150 75C150.01 83.5406 148.558 92.02 145.707 100.071C145.694 100.108 145.682 100.142 145.668 100.179V100.181C143.532 106.171 140.641 111.863 137.063 117.119C136.443 118.035 135.801 118.936 135.137 119.822C134.407 120.802 133.653 121.762 132.877 122.702C132.16 123.57 131.425 124.421 130.671 125.255C129.775 126.249 128.852 127.218 127.903 128.161C125.668 130.387 123.295 132.469 120.798 134.396C120.36 134.736 119.917 135.071 119.469 135.399C118.427 136.169 117.364 136.911 116.28 137.626C113.897 139.202 111.424 140.639 108.875 141.93C108.435 142.154 107.991 142.375 107.546 142.589C105.823 143.421 104.065 144.186 102.273 144.885C101.761 145.087 101.248 145.281 100.73 145.468C100.643 145.502 100.555 145.534 100.466 145.564C94.3189 147.783 87.9064 149.183 81.3938 149.729C80.9413 149.77 80.4882 149.805 80.0345 149.833C79.5535 149.866 79.0719 149.894 78.5897 149.914C78.2085 149.934 77.829 149.948 77.446 149.959C77.3677 149.963 77.2875 149.966 77.2091 149.966C76.6943 149.982 76.1776 149.992 75.6592 149.996C75.4401 149.998 75.221 150 75.0001 150C74.8968 150 74.7934 150 74.6901 149.998C73.1954 149.993 71.7121 149.944 70.24 149.852C70.2097 149.85 70.1794 149.847 70.1491 149.847C69.6218 149.811 69.0963 149.774 68.5725 149.727C66.7073 149.571 64.8623 149.345 63.0375 149.05C62.6171 148.985 62.1978 148.913 61.7798 148.837C59.9644 148.516 58.1729 148.129 56.4051 147.677C55.8795 147.543 55.357 147.404 54.8374 147.258C47.6135 145.246 40.7345 142.155 34.4324 138.091C33.3493 137.394 32.2863 136.67 31.2436 135.917C31.1153 135.828 30.9888 135.736 30.8623 135.643C28.3293 133.796 25.9143 131.793 23.6313 129.645C22.55 128.629 21.5001 127.582 20.4817 126.502C7.30366 112.596 -0.0285817 94.1585 8.37348e-05 75C8.37348e-05 33.579 33.5791 0 75.0001 0C116.421 0 150 33.579 150 75Z" fill="#F2F2F2"/>
<path d="M84.1498 19.1202C85.6515 16.6365 87.4309 13.9848 90.2176 13.1738C93.4448 12.2346 96.76 14.1003 99.572 15.9413C107.981 21.4473 116.08 27.4142 123.83 33.8147L123.822 33.9111C117.788 33.495 111.754 33.0789 105.72 32.6628C101.36 32.3621 96.851 32.02 92.9983 29.9577C91.5364 29.1751 90.1113 28.1297 88.4547 28.0569C86.3964 27.9664 84.6018 29.4038 83.1915 30.9056C74.8489 39.7893 72.4347 53.3746 63.0752 61.1797C68.977 46.6247 76.024 32.5608 84.1498 19.1202Z" fill="white"/>
<path d="M32.8692 94.4702C33.7917 93.3052 34.1687 93.0324 35.0787 91.8567C42.4884 82.2733 49.4529 72.3663 55.9723 62.1355C60.4005 55.1872 64.6091 48.1054 68.5981 40.8902C70.4972 37.46 72.3442 34.0029 74.1392 30.5188C75.532 27.8174 76.8938 25.0998 78.2245 22.3661C78.6051 21.5853 78.9748 20.8009 79.3428 20.0147C80.2098 18.1658 81.0606 16.308 81.9742 14.4843C83.0153 12.4058 84.2826 10.2267 86.1943 8.83017C87.0643 8.16856 88.1046 7.76824 89.1937 7.67601C90.7499 7.57549 92.1859 8.21809 93.5357 8.91992C103.412 14.0697 112.658 20.5262 121.02 27.8731C129.404 35.2364 136.899 43.5552 143.35 52.6599C143.547 52.9417 144.014 52.6724 143.815 52.3888C143.03 51.2795 142.23 50.1822 141.415 49.0968C134.647 40.0898 126.842 31.9113 118.161 24.7301C113.863 21.174 109.363 17.8699 104.683 14.8344C102.3 13.2907 99.8737 11.8194 97.4021 10.4205C96.1564 9.71509 94.9052 9.01864 93.6326 8.36528C92.3851 7.72448 91.0604 7.14828 89.6352 7.12674C84.7852 7.05136 82.274 12.544 80.549 16.2398C80.007 17.403 79.4583 18.5625 78.9031 19.7185C76.8047 24.1072 74.6257 28.4558 72.3658 32.7644C70.9711 35.4245 69.5459 38.0691 68.0901 40.6982C63.5596 48.885 58.7443 56.9062 53.6442 64.7616C46.8878 75.167 40.1854 84.3591 32.4886 94.0896C32.2768 94.3589 32.6555 94.743 32.8692 94.4702Z" fill="white"/>
<path d="M59.7123 50.7926L52.4863 48.1497L48.8985 46.8375C47.7301 46.4101 46.5644 45.9236 45.3565 45.6176C44.2886 45.347 43.2034 45.3027 42.1506 45.6584C41.2216 46.0023 40.3712 46.5294 39.65 47.2085C38.9132 47.887 38.2277 48.6191 37.599 49.3988C36.8179 50.3375 36.0483 51.2861 35.2753 52.2315C32.0848 56.1333 28.9153 60.052 25.7665 63.9877C22.6179 67.9233 19.4903 71.8756 16.3838 75.8446C13.2696 79.8234 10.1769 83.8187 7.10563 87.8308C6.72939 88.3222 6.35347 88.814 5.97788 89.306C5.77037 89.5777 5.30247 89.3098 5.51291 89.0342C8.60687 84.9818 11.7224 80.946 14.8595 76.9269C18.0043 72.8981 21.1708 68.8864 24.3591 64.8917C27.5473 60.8972 30.757 56.92 33.9883 52.9601C34.7933 51.9736 35.5997 50.9881 36.4073 50.0038C37.0886 49.1734 37.7622 48.3341 38.5095 47.5613C39.8812 46.1427 41.5949 44.889 43.6462 44.855C44.8523 44.835 46.0195 45.2177 47.1401 45.6231C48.3482 46.0601 49.5533 46.5053 50.7598 46.9466L58.0363 49.608L59.8554 50.2734C60.1782 50.3915 60.0388 50.9121 59.7123 50.7926V50.7926Z" fill="white"/>
<path d="M39.9221 50.819C40.6334 49.9531 41.4024 49.0465 42.4664 48.6948L43.4597 48.734C35.8982 62.0953 25.686 73.7703 13.4497 83.0424C22.2738 72.3013 31.098 61.5601 39.9221 50.819Z" fill="white"/>
<path d="M88.226 36.9856C88.2265 38.3509 87.8919 39.6954 87.2514 40.9012C86.611 42.1069 85.6844 43.137 84.5529 43.9011C83.4214 44.6651 82.1197 45.1397 80.7619 45.2832C79.4042 45.4267 78.032 45.2348 76.7658 44.7242C75.4996 44.2135 74.3781 43.3999 73.4997 42.3547C72.6214 41.3095 72.013 40.0646 71.7281 38.7294C71.4432 37.3941 71.4904 36.0094 71.8655 34.6967C72.2407 33.3839 72.9324 32.1834 73.8799 31.2004C73.8932 31.1871 73.9066 31.1737 73.9199 31.1604C73.9866 31.0903 74.0534 31.0202 74.1234 30.9535C74.1239 30.9535 74.1243 30.9534 74.1247 30.9532C74.1251 30.9531 74.1255 30.9528 74.1258 30.9525C74.1261 30.9522 74.1263 30.9518 74.1265 30.9514C74.1267 30.951 74.1267 30.9506 74.1267 30.9501C74.2135 30.8701 74.3002 30.79 74.3903 30.7133C75.5956 29.6566 77.0798 28.9697 78.6653 28.7348C80.2509 28.4999 81.8705 28.727 83.3304 29.3888C84.7902 30.0506 86.0284 31.1191 86.8966 32.4664C87.7649 33.8137 88.2264 35.3827 88.226 36.9856V36.9856Z" fill="#2F2E41"/>
<path d="M82.7759 43.861C85.5073 41.1296 85.5073 36.7012 82.7759 33.9698C80.0446 31.2385 75.6162 31.2385 72.8848 33.9698C70.1534 36.7012 70.1534 41.1296 72.8848 43.861C75.6162 46.5924 80.0446 46.5924 82.7759 43.861Z" fill="#9E616A"/>
<path d="M82.8277 32.1894C81.7441 31.1755 80.3965 30.4878 78.9397 30.2055C77.4828 29.9231 75.9759 30.0575 74.592 30.5932C74.551 30.6092 74.51 30.627 74.469 30.6466C74.4673 30.6466 74.4673 30.6484 74.4655 30.6484C74.3319 30.7037 74.1965 30.7607 74.0664 30.823L73.9863 30.8622V30.8729C73.972 30.8836 73.956 30.896 73.9399 30.9067C73.9072 30.9373 73.8674 30.9593 73.8241 30.9709C72.4791 30.9887 71.3835 31.4447 70.5712 32.3266C69.4863 33.5023 68.9768 35.4032 69.1335 37.6799L69.1371 37.7494L69.1977 37.7886C69.7713 38.1466 70.3146 38.462 70.8384 38.7381C71.1484 38.9038 71.4494 39.0552 71.7487 39.1941C71.7844 39.2102 71.82 39.228 71.8556 39.244C74.8841 40.6425 77.6543 40.8955 80.3158 40.0101L80.3657 39.994L81.4969 38.0985C81.6135 38.7461 81.925 39.3427 82.3898 39.8085C82.8546 40.2742 83.4505 40.5869 84.0979 40.7048L84.5682 40.7886L85.2576 40.9097L85.2861 40.7797C85.9702 37.6977 84.9815 34.247 82.8277 32.1894Z" fill="#2F2E41"/>
<path d="M100.01 46.869C97.6295 45.6406 100.691 41.1819 100.075 38.5751C99.4604 35.9683 95.0309 35.1299 94.7488 32.4664C94.4666 29.8028 93.8028 27.0557 92.0452 25.0346C90.9221 23.7431 89.2672 22.7897 87.5634 22.9515C86.9869 23.0062 86.4289 23.1846 85.9276 23.4744C85.4262 23.7642 84.9932 24.1586 84.658 24.6308C84.3229 25.103 84.0934 25.642 83.9853 26.2109C83.8772 26.7798 83.8929 27.3653 84.0315 27.9275C83.5464 27.2402 82.291 27.3891 81.9802 28.171C81.7039 28.8661 82.3143 29.708 83.0325 29.7695C83.9724 30.9302 85.0486 32.162 86.521 32.3961C86.9953 32.4715 87.5284 32.4163 87.8748 32.0836C88.2212 31.751 88.2482 31.0859 87.8373 30.8373C89.6877 31.5723 90.7725 33.573 91.0471 35.545C91.3216 37.517 90.9418 39.5123 90.6915 41.4875C90.4412 43.4627 90.3333 45.5406 91.1078 47.3748C92.0228 49.542 94.1296 51.0953 96.4287 51.5934C98.7278 52.0915 101.176 51.6047 103.257 50.5079C105.339 49.4109 107.074 47.7364 108.492 45.8591C106.05 47.5932 102.671 48.2428 100.01 46.869Z" fill="#2F2E41"/>
<path d="M72.968 76.2476L68.137 109.237L94.5079 107.249L86.6148 74.7957L72.968 76.2476Z" fill="#FFB8B8"/>
<path d="M100.555 145.227C100.532 145.341 100.502 145.454 100.466 145.564C97.4227 146.664 94.3103 147.564 91.149 148.256C90.4828 146.065 89.2055 141.916 88.0867 138.522C87.1728 135.752 86.3658 133.486 86.0843 133.202C85.3022 132.424 86.0843 131.385 86.0843 131.385L82.744 121.001L81.2262 116.284L80.7061 126.194L79.9507 140.549L79.9293 140.952C79.9293 140.952 78.8889 144.068 79.4091 144.588C79.9293 145.108 78.8889 147.187 78.8889 147.187L78.5897 149.914C78.2084 149.934 77.829 149.948 77.4459 149.959L77.3159 150L77.209 149.966C76.6942 149.982 76.1775 149.992 75.6591 149.996C75.44 149.998 75.2209 150 75 150C74.8967 150 74.7933 150 74.69 149.998C73.1954 149.993 71.712 149.944 70.2399 149.852L69.326 142.414L68.3818 134.729C68.3818 134.729 69.4204 132.654 68.3818 131.615C67.7565 130.99 68.0701 130.081 68.421 129.458C68.2037 128.494 67.9062 127.012 67.5053 124.817C67.4911 124.744 67.4786 124.669 67.4644 124.594C67.3379 123.898 67.2245 123.215 67.1241 122.546C66.9459 121.368 66.807 120.237 66.7001 119.154C66.3376 115.646 66.2875 112.112 66.5505 108.595C66.6502 107.344 66.7749 106.429 66.8569 105.9C66.864 105.85 66.9406 105.57 67.0653 105.128C67.2613 104.421 67.5837 103.299 67.9454 102.043C68.1378 101.377 68.3408 100.673 68.5422 99.9727C68.8931 98.7595 69.2423 97.557 69.5237 96.5843V96.579C69.7714 95.7257 69.9691 95.0523 70.0724 94.6995C70.1223 94.5267 70.149 94.4323 70.149 94.4323C70.149 94.4323 70.2043 94.4199 70.3094 94.3967C70.6354 94.3219 71.4406 94.1419 72.5558 93.9014C73.7191 93.6556 75.2173 93.3438 76.8634 93.0267C78.2726 92.7559 79.7904 92.4798 81.2993 92.2322C81.8409 92.1449 82.3824 92.0594 82.9169 91.9792C86.2179 91.4875 89.2482 91.2079 90.6841 91.5267C90.7835 91.5479 90.8816 91.5746 90.978 91.6069C91.0754 91.6391 91.1692 91.6815 91.2577 91.7334C91.3023 91.7601 91.7334 93.4418 92.2838 95.633C92.2892 95.6544 92.2945 95.6776 92.2999 95.6989C92.4656 96.3616 92.6419 97.0671 92.8218 97.7886C93.0053 98.5244 93.1906 99.2744 93.3723 100.005C93.9121 102.175 94.4109 104.182 94.6674 105.166C94.7654 105.547 94.8296 105.773 94.8438 105.798C95.446 106.801 95.9376 109.26 96.3367 112.343C96.693 115.096 96.9762 118.347 97.1954 121.505C97.304 123.068 97.3967 124.609 97.475 126.055C97.7405 130.922 97.8474 134.722 97.8474 134.722C97.8474 134.722 98.2446 137.89 99.0338 139.384C99.131 139.577 99.2551 139.755 99.4026 139.913C99.9281 140.439 99.9887 140.895 99.9192 141.219C99.8889 141.372 99.8256 141.517 99.7339 141.643C99.7131 141.674 99.6899 141.703 99.6645 141.73C99.5966 142.053 99.6085 142.387 99.6992 142.703C99.7898 143.02 99.9565 143.31 100.185 143.548C100.689 144.055 100.648 144.782 100.555 145.227Z" fill="#2F2E41"/>
<path d="M91.9167 65.6669C91.8865 65.4424 91.8544 65.2162 91.8205 64.9882C91.8009 64.8421 91.7778 64.696 91.7564 64.5517C91.5302 63.0945 92.4726 61.8474 91.2522 60.8391C90.9669 60.6069 90.7343 60.3166 90.57 59.9876L90.2903 59.4246L89.7754 58.3807L88.6495 56.1111L88.4553 55.7209C88.4004 55.6101 88.3372 55.5035 88.2665 55.4021C88.056 55.0965 87.7819 54.84 87.4631 54.6503L84.6661 52.9828C84.2339 52.7264 83.8859 52.3493 83.6649 51.8979L83.5955 51.7554C83.2873 51.123 82.735 49.6105 82.0812 48.9531L82.0794 48.9513C81.937 48.7885 81.7436 48.6786 81.5307 48.6396L78.7463 48.3635C78.301 48.3182 77.8516 48.3895 77.4421 48.5703C77.0327 48.7511 76.6773 49.0353 76.4108 49.3949L76.3342 49.7423L75.887 51.7785L75.8621 51.7839C75.7303 51.8142 75.5985 51.8444 75.4684 51.8819C72.5806 52.6711 71.3764 62.7667 71.3764 62.7667C71.3764 62.7667 69.3544 66.1034 70.1489 68.1681L71.567 71.4977C71.578 71.5229 71.5863 71.5491 71.5919 71.576C71.7201 71.9385 71.7652 72.3251 71.7238 72.7073L71.7255 72.8373L71.7291 73.1241L71.7398 73.8599L71.7736 76.3005L71.8164 79.3557L71.8538 81.9585L71.8663 82.6515L69.5308 92.8148C69.4925 93.1487 69.5205 93.4869 69.6131 93.81C69.7058 94.1331 69.8612 94.4348 70.0705 94.6978L70.0723 94.6996C70.1236 94.7653 70.1783 94.8284 70.2362 94.8884L70.238 94.8902C70.2932 94.9472 70.3502 94.9989 70.409 95.0505C70.6903 95.2966 71.0219 95.4781 71.3808 95.5824C71.7396 95.6868 72.1169 95.7113 72.4862 95.6544L72.798 95.6063H72.7998L77.3247 94.9276H77.3283L77.852 94.8492H77.8556L82.9203 94.0885H82.9239L83.7914 93.9567C83.8609 93.9478 83.9286 93.9389 83.9981 93.9335L88.6353 93.6147C88.7417 93.6075 88.8476 93.5938 88.9524 93.5737H88.9542C89.3619 93.493 89.7442 93.3154 90.0688 93.0559C90.3935 92.7964 90.6509 92.4625 90.8194 92.0826C90.8894 91.9303 90.9426 91.7708 90.9779 91.6069C91.0181 91.4297 91.0402 91.2488 91.0438 91.0671L91.0955 86.699L91.2719 72.5826C91.2755 72.1116 91.4099 71.6508 91.6602 71.2518C92.3033 70.2257 92.2303 68.0273 91.9167 65.6669Z" fill="#FF9C00"/>
<path d="M84.1419 103.369C84.0767 103.009 84.0912 102.639 84.1844 102.285C84.2776 101.931 84.4473 101.602 84.6814 101.321C84.9156 101.04 85.2085 100.813 85.5396 100.658C85.8707 100.502 86.2319 100.421 86.5978 100.42L89.4909 92.0098L92.3117 95.6708L89.1319 103.096C89.0928 103.711 88.8296 104.29 88.3921 104.723C87.9546 105.157 87.3732 105.415 86.7581 105.449C86.143 105.482 85.5369 105.289 85.0548 104.906C84.5726 104.522 84.2478 103.976 84.1419 103.369H84.1419Z" fill="#9E616A"/>
<path d="M95.1805 85.6746L94.5303 87.3136L93.6217 97.452C93.3395 97.5228 93.0698 97.6364 92.8218 97.7887C92.2832 98.1218 91.873 98.6273 91.6579 99.223C91.4428 99.8188 91.4355 100.47 91.6372 101.07L91.9044 101.872L89.918 101.261L86.6526 100.258L82.8028 99.0749L83.4549 96.9603C83.6058 96.4744 83.6363 95.9592 83.5438 95.4589C83.4513 94.9586 83.2386 94.4883 82.924 94.0885C82.8461 93.9891 82.7622 93.8945 82.6728 93.8053L82.9168 91.9793L83.0611 90.8944L81.2993 92.2322L77.8539 94.8492H77.8521L77.3961 95.1966C77.3961 95.1966 77.3711 95.104 77.3248 94.9276C77.2375 94.5873 77.0736 93.9353 76.8634 93.0268C75.8224 88.4993 75.0555 83.9132 74.5671 79.2934C74.4602 78.253 74.3676 77.1877 74.2927 76.1063C74.2161 74.9929 74.1591 73.8635 74.1288 72.7269C73.8723 63.4757 75.2939 53.7774 81.2351 48.8177C81.5224 48.8197 81.8078 48.8654 82.0813 48.9531C84.4863 49.6925 87.1247 53.3053 88.9489 55.8902C89.38 56.5012 89.7648 57.0535 90.0908 57.4971L90.88 58.5713C91.9576 60.0391 92.7034 61.7234 93.0659 63.5078C93.1425 63.8854 93.2025 64.2679 93.2458 64.655L94.1081 72.5862V74.6295L95.1805 85.6746Z" fill="#FF9C00"/>
<path d="M4.34497 99.8921C5.89258 101.726 7.5665 103.449 9.35447 105.049L140.752 105.228C142.54 103.627 144.214 101.904 145.762 100.07L4.34497 99.8921Z" fill="#CCCCCC"/>
<path d="M75.6592 149.996C75.4401 149.998 75.2209 150 75 150C74.8967 150 74.7934 150 74.6901 149.998C73.1954 149.993 71.712 149.944 70.2399 149.852L70.2756 150.143L70.1491 149.847L67.3254 143.273L69.326 142.415L72.9959 140.838L74.1093 144.666L75.1746 148.333L75.4917 149.419L75.6592 149.996Z" fill="#FFB6B6"/>
<path d="M62.5778 142.365L61.7797 148.837C59.9644 148.516 58.1728 148.129 56.405 147.677V142.366L62.5778 142.365Z" fill="#FFB6B6"/>
<path d="M34.4322 130.436V138.091C33.3491 137.394 32.2862 136.67 31.2434 135.918V130.436H34.4322Z" fill="#CACACA"/>
<path d="M46.7869 129.16V132.985C46.7867 133.69 46.5069 134.365 46.0088 134.864C45.5108 135.362 44.8353 135.642 44.1307 135.643H30.8623C28.3293 133.796 25.9143 131.793 23.6313 129.645C22.55 128.629 21.5001 127.582 20.4817 126.502H44.1307C44.8352 126.503 45.5106 126.784 46.0085 127.282C46.5065 127.78 46.7864 128.456 46.7869 129.16Z" fill="#3F3D56"/>
<path d="M77.8825 149.82L77.446 149.959L77.316 150L77.2091 149.966C76.6942 149.982 76.1776 149.992 75.6592 149.996C75.4401 149.998 75.2209 150 75 150C74.8967 150 74.7934 150 74.6901 149.998C73.1954 149.993 71.712 149.944 70.24 149.852L70.2756 150.143L70.1491 149.847C69.6218 149.811 69.0962 149.774 68.5725 149.727L64.427 142.785L55.8955 128.499L54.9068 126.844C54.9068 126.844 51.5345 127.842 46.7619 128.799C43.1651 129.522 38.7738 130.219 34.4324 130.447C33.3617 130.504 32.2946 130.532 31.2435 130.523C28.5268 130.505 25.9169 130.251 23.6313 129.645C22.5499 128.629 21.5 127.582 20.4816 126.502C18.7456 124.667 17.1033 122.744 15.5612 120.743C15.5404 120.008 15.578 119.273 15.6734 118.545C15.6895 118.423 15.7055 118.3 15.7251 118.176L16.2115 109.917L19.8243 109.439L25.3219 108.713L31.2774 107.925L31.9329 113.059C31.9329 113.059 36.5701 112.824 42.4454 112.903C51.8819 113.031 64.509 113.971 66.2192 118.008C66.3795 118.388 66.5398 118.771 66.7002 119.154C70.0208 127.108 73.0707 135.583 75.1426 141.604C75.538 142.751 75.8961 143.808 76.215 144.755C77.2679 147.885 77.8825 149.82 77.8825 149.82Z" fill="#2F2E41"/>
<path d="M67.7816 122.56C67.6943 123.315 67.6022 124.068 67.5055 124.817C66.6503 131.446 65.4728 137.777 64.4271 142.785C63.9158 145.229 63.4348 147.356 63.0375 149.05C62.6171 148.985 62.1978 148.913 61.7798 148.837C59.9645 148.516 58.1729 148.129 56.4051 147.677C55.8796 147.543 55.357 147.404 54.8374 147.258L55.8956 128.499L56.2448 122.295L67.1242 122.546L67.7816 122.56Z" fill="#2F2E41"/>
<path d="M85.2746 93.5449C85.7283 93.2916 86.232 93.1407 86.7503 93.1031C87.2685 93.0654 87.7888 93.1419 88.2743 93.327C88.7598 93.5122 89.1988 93.8015 89.5604 94.1747C89.922 94.5479 90.1974 94.9958 90.3672 95.4869L102.998 95.5019L99.3783 100.977L87.9386 100.124C87.0946 100.354 86.1954 100.267 85.4114 99.8788C84.6274 99.4907 84.013 98.8284 83.6846 98.0175C83.3562 97.2066 83.3367 96.3034 83.6298 95.4791C83.9229 94.6548 84.5081 93.9666 85.2746 93.545L85.2746 93.5449Z" fill="#FFB6B6"/>
<path d="M92.1611 100.95L114.91 103.21L114.97 103.133C115.085 102.986 126.472 88.4096 128.385 84.9397C129.563 82.855 129.991 80.4304 129.6 78.0684L129.587 78.0106L129.542 77.9723C128.614 77.1948 127.449 76.7567 126.239 76.7302C125.029 76.7036 123.846 77.0903 122.885 77.8264C118.264 81.4049 114.539 86.0084 112.002 91.2735L110.563 94.2701L93.8686 94.9864L92.1611 100.95Z" fill="#FF9C00"/>
<path d="M83.3871 142.026L80.0344 149.833C79.5534 149.866 79.0718 149.894 78.5896 149.914C78.2084 149.934 77.8289 149.948 77.4459 149.959L77.3158 150L77.2089 149.966C76.6941 149.982 76.1775 149.992 75.6591 149.996C75.4399 149.998 75.2208 150 74.9999 150C74.8966 150 74.7933 150 74.6899 149.998L74.9126 149.236L75.1745 148.333L76.2149 144.755L77.7167 139.591L79.9506 140.549L83.3871 142.026Z" fill="#FFB6B6"/>
<path d="M107.546 142.589C105.823 143.421 104.065 144.186 102.273 144.885L100.52 141.937L106.17 139.455L107.546 142.589Z" fill="#FFB6B6"/>
<path d="M119.469 129.189V135.399C118.427 136.169 117.364 136.911 116.28 137.626V129.189H119.469Z" fill="#CACACA"/>
<path d="M130.671 125.255C129.775 126.249 128.852 127.218 127.903 128.161C125.668 130.387 123.295 132.469 120.798 134.396H106.582C106.205 134.396 105.831 134.316 105.488 134.16C105.144 134.004 104.837 133.777 104.589 133.493L104.587 133.488C104.29 133.153 104.084 132.748 103.988 132.312L103.986 132.308C103.946 132.121 103.926 131.93 103.926 131.738V127.913C103.926 127.209 104.206 126.533 104.704 126.035C105.202 125.537 105.877 125.256 106.582 125.255H130.671Z" fill="#3F3D56"/>
<path d="M136.528 110.327L134.987 116.929C135.138 117.885 135.188 118.855 135.137 119.822C134.407 120.802 133.653 121.762 132.876 122.703C132.16 123.57 131.425 124.421 130.671 125.255C129.775 126.249 128.852 127.218 127.903 128.161C125.43 128.938 122.515 129.255 119.469 129.276C118.418 129.285 117.351 129.257 116.28 129.2C111.939 128.972 107.547 128.275 103.951 127.552C102.999 127.363 102.105 127.17 101.282 126.983C99.7232 126.632 98.4191 126.305 97.475 126.055C96.4114 125.777 95.8057 125.597 95.8057 125.597L91.76 132.372L88.0866 138.522L81.3936 149.729C80.9411 149.77 80.488 149.805 80.0343 149.833C79.5533 149.866 79.0718 149.894 78.5896 149.915C78.2083 149.934 77.8289 149.948 77.4459 149.959L77.3158 150L77.2089 149.966L75.4916 149.419L74.9126 149.236L72.8301 148.573C72.8301 148.573 73.295 147.109 74.1092 144.666C74.4085 143.77 74.7541 142.741 75.1424 141.604C76.5444 137.496 78.488 131.979 80.706 126.194C81.3633 124.477 82.0438 122.735 82.744 121.001C83.3176 119.578 83.9019 118.16 84.4934 116.761C85.5213 114.337 90.488 113.029 96.3366 112.343C96.6341 112.309 96.9334 112.276 97.2345 112.243C100.215 111.93 103.377 111.768 106.334 111.693C107.815 111.656 109.243 111.641 110.572 111.64C111.002 111.64 111.419 111.641 111.825 111.643H111.826C112.922 111.648 113.93 111.665 114.818 111.682C114.99 111.686 115.158 111.691 115.322 111.695H115.324C115.434 111.697 115.543 111.7 115.65 111.702C117.59 111.752 118.78 111.812 118.78 111.812L119.241 108.192L119.335 107.462L119.424 106.767V106.765L119.435 106.678L119.508 106.676L120.791 106.651L131.572 106.441L137.462 106.325L136.528 110.327Z" fill="#2F2E41"/>
<path d="M108.875 141.93C108.435 142.154 107.991 142.375 107.546 142.589C105.823 143.421 104.065 144.186 102.273 144.885C101.761 145.087 101.248 145.281 100.73 145.468C100.673 145.388 100.614 145.308 100.555 145.227C98.0825 141.834 94.94 137.355 91.7601 132.372C90.4293 130.288 89.0914 128.115 87.7927 125.895L97.1953 121.505L98.25 121.014L101.282 126.983L103.986 132.308L104.588 133.493L108.875 141.93Z" fill="#2F2E41"/>
<path d="M122.523 67.7051C127.307 67.7051 131.185 63.8268 131.185 59.0426C131.185 54.2585 127.307 50.3801 122.523 50.3801C117.739 50.3801 113.86 54.2585 113.86 59.0426C113.86 63.8268 117.739 67.7051 122.523 67.7051Z" fill="#FFB6B6"/>
<path d="M122.236 67.329C124.262 68.3007 126.754 67.9716 128.688 66.8283C130.622 65.685 132.045 63.8204 133.039 61.8061C133.767 60.3309 134.297 58.6416 133.875 57.0514C133.453 55.4612 131.771 54.1288 130.194 54.5998C131.274 53.7302 131.148 51.9369 130.276 50.8595C129.403 49.782 128.026 49.264 126.696 48.8735C124.765 48.3068 122.736 47.9068 120.745 48.1966C118.754 48.4865 116.793 49.5646 115.856 51.3453C115.206 51.5129 114.518 51.46 113.901 51.195C113.284 50.9299 112.772 50.4677 112.446 49.8807C112.229 50.445 112.204 51.0651 112.375 51.6451C112.546 52.225 112.903 52.7325 113.391 53.089L110.695 51.6259C110.007 52.5788 110.632 54.0322 111.675 54.572C112.719 55.1118 113.981 54.9679 115.12 54.6794C116.259 54.391 114.915 56.7965 116.09 56.8197C117.265 56.8429 118.535 57.4577 118.872 58.5836C119.048 59.1733 118.945 59.8065 118.997 60.4197C119.049 61.033 119.343 61.7133 119.937 61.8731C120.313 61.974 120.724 61.8403 121.096 61.9524C121.558 62.0913 121.839 62.5851 121.88 63.0654C121.92 63.5457 121.77 64.0194 121.621 64.4779C121.033 66.29 122.92 65.2743 122.332 67.0863L122.236 67.329Z" fill="#2F2E41"/>
<path d="M139.233 92.9162C139.162 85.7618 138.837 80.8859 138.271 78.4222C136.749 71.7986 129.721 70.5908 128.621 70.4412C128.503 70.129 128.323 69.8442 128.091 69.6047C127.859 69.3652 127.58 69.1759 127.272 69.0488C126.964 68.9216 126.632 68.8592 126.299 68.8655C125.966 68.8719 125.637 68.9467 125.334 69.0855L120.34 71.3729C119.327 71.8384 118.421 72.5071 117.677 73.3376C116.933 74.1681 116.368 75.1426 116.017 76.2007L115.276 78.4631L114.903 93.6466L116.132 100.033L116.134 100.037L116.963 104.339L116.392 105.194L113.138 110.075L113.083 110.161L113.081 110.163L112.938 110.375C113.136 110.483 113.332 110.59 113.524 110.697C114.023 110.971 114.509 111.24 114.983 111.504C115.097 111.568 115.21 111.631 115.322 111.695H115.324C115.395 111.734 115.466 111.773 115.536 111.812C117.314 112.806 118.932 113.727 120.39 114.575C120.593 114.693 120.795 114.811 120.992 114.926C127.726 118.865 131.14 121.277 132.876 122.702C133.653 121.762 134.407 120.802 135.137 119.822C135.8 118.936 136.442 118.036 137.063 117.119C137.172 116.403 137.245 115.687 137.316 114.985C137.401 114.141 137.49 113.266 137.64 112.406C137.706 112.024 137.453 111.663 137.209 111.313C136.983 110.987 136.769 110.681 136.814 110.392C136.86 110.095 137.188 109.771 137.507 109.455C137.854 109.11 138.214 108.754 138.265 108.378C138.408 107.33 138.534 106.279 138.645 105.224C138.827 103.509 138.966 101.788 139.064 100.062C139.201 97.6781 139.257 95.2963 139.233 92.9162Z" fill="#FF9C00"/>
<path d="M106.258 118.17C106.405 117.672 106.659 117.212 107.003 116.822C107.347 116.433 107.772 116.123 108.249 115.916C108.725 115.708 109.241 115.608 109.761 115.622C110.28 115.635 110.79 115.763 111.255 115.995L120.29 107.167L121.535 113.612L112.764 121.007C112.323 121.762 111.619 122.329 110.788 122.6C109.956 122.871 109.054 122.828 108.252 122.478C107.45 122.129 106.804 121.497 106.436 120.703C106.069 119.909 106.006 119.008 106.258 118.17L106.258 118.17Z" fill="#FFB6B6"/>
<path d="M116.359 118.642L134.193 104.339L134.182 104.243C134.162 104.058 132.098 85.6758 131.037 81.858C130.42 79.545 129.029 77.5127 127.097 76.0988L127.048 76.0667L126.988 76.071C125.782 76.1646 124.643 76.6668 123.76 77.4946C122.876 78.3223 122.302 79.4264 122.13 80.6246C121.333 86.4143 121.892 92.31 123.764 97.8464L124.832 100.994L113.406 113.187L116.359 118.642Z" fill="#FF9C00"/>
<path d="M25.0323 67.5496C29.3012 67.5496 32.7618 64.089 32.7618 59.8201C32.7618 55.5512 29.3012 52.0906 25.0323 52.0906C20.7634 52.0906 17.3027 55.5512 17.3027 59.8201C17.3027 64.089 20.7634 67.5496 25.0323 67.5496Z" fill="#A0616A"/>
<path d="M14.6475 118.693L14.6053 118.634C12.3537 115.482 15.7402 107.907 16.2509 106.809C15.6444 106.612 15.1249 106.211 14.7808 105.674C14.4367 105.137 14.2894 104.498 14.3639 103.864L14.5841 101.993L14.8136 100.157L13.1694 98.5128L13.1648 98.4718L12.2186 90.1925L10.8428 84.6935C10.3245 82.6147 10.3686 80.4353 10.9708 78.3792C11.573 76.3231 12.7115 74.4643 14.2695 72.9936L17.4495 72.4886L21.3142 68.7649H27.5466L29.6835 70.8066C33.8848 74.2504 34.8821 72.7543 39.6196 79.2372L36.2276 88.1738L38.1236 101.355L38.1247 103.74L39.1122 104.837C39.4679 105.233 39.7264 105.706 39.8671 106.219C40.0077 106.731 40.0266 107.27 39.9223 107.792L39.7925 108.441C40.2944 108.656 40.7374 108.988 41.0843 109.41C41.4313 109.832 41.6721 110.33 41.7865 110.864L42.1334 112.483C42.4301 112.874 44.3887 115.486 44.3887 116.2C44.3887 116.307 44.3096 116.41 44.1398 116.525C42.805 117.429 35.4276 119.272 32.1624 117.965C28.6844 116.575 14.8586 118.661 14.7193 118.682L14.6475 118.693Z" fill="#3F3D56"/>
<path d="M10.7207 87.3383L17.1476 86.0802C19.5244 89.6297 20.8005 99.3356 20.8005 99.3356L27.9061 114.072C28.3429 114.337 28.7015 114.713 28.9455 115.163C29.1895 115.612 29.3101 116.117 29.2951 116.628C29.28 117.139 29.1299 117.637 28.8599 118.07C28.59 118.504 28.2099 118.859 27.7583 119.098C27.3067 119.337 26.7997 119.453 26.2891 119.432C25.7785 119.412 25.2824 119.256 24.8514 118.982C24.4204 118.707 24.0699 118.323 23.8355 117.869C23.6011 117.415 23.4913 116.907 23.5172 116.396L14.2496 98.9368L10.7207 87.3383Z" fill="#A0616A"/>
<path d="M10.6847 88.8632L10.502 79.3109L13.5264 75.2647C14.1231 74.4725 14.9294 73.863 15.8543 73.505C16.7792 73.1471 17.7857 73.0549 18.7602 73.239C20.0796 73.4974 21.2515 74.2472 22.0392 75.3367C22.8269 76.4261 23.1714 77.7741 23.0033 79.1079C22.4899 83.1527 21.3244 88.2145 18.6876 89.3597L18.6609 89.3713L21.3937 98.9287L11.2593 100.344L10.6847 88.8632Z" fill="#3F3D56"/>
<path d="M48.8549 88.0191C48.8549 88.0191 41.1421 81.9904 36.959 81.1244L33.2566 86.5263L43.2697 92.6627L62.7645 98.2994C63.1059 98.6786 63.5415 98.9606 64.0272 99.117C64.5128 99.2733 65.0312 99.2984 65.5297 99.1896C66.0281 99.0809 66.4889 98.8422 66.8653 98.4978C67.2417 98.1533 67.5202 97.7154 67.6727 97.2286C67.8251 96.7417 67.846 96.2231 67.7333 95.7256C67.6205 95.228 67.3781 94.7691 67.0306 94.3955C66.6832 94.0219 66.2431 93.7469 65.755 93.5984C65.2669 93.4499 64.7482 93.4331 64.2516 93.5499L48.8549 88.0191Z" fill="#A0616A"/>
<path d="M35.2856 89.2306L27.2477 84.0661L25.5693 79.3014C25.2432 78.3648 25.1856 77.3557 25.4029 76.388C25.6203 75.4204 26.1039 74.5329 26.7992 73.8257C27.7482 72.8734 29.0233 72.3169 30.3669 72.2689C31.7104 72.2208 33.022 72.6848 34.0366 73.5668C37.1114 76.2444 41.0739 77.1418 40.5579 79.9699L42.0382 80.1861L49.6083 85.9353L45.1442 95.143L35.2856 89.2306Z" fill="#3F3D56"/>
<path d="M16.2648 54.7413C17.1327 53.3985 18.7614 52.5036 20.3404 52.7551C20.4873 51.7474 20.9079 50.7994 21.5564 50.0142C22.2048 49.2291 23.0563 48.6368 24.018 48.3021C24.9797 47.9673 26.0148 47.9028 27.0107 48.1155C28.0065 48.3283 28.9249 48.8102 29.6658 49.5088C30.1307 49.1389 30.8065 49.1195 31.3583 49.3394C31.9018 49.5865 32.3745 49.966 32.7333 50.4431C33.6394 51.573 34.2221 52.9274 34.4194 54.3622C34.6168 55.7969 34.4214 57.2584 33.854 58.5909C34.047 57.8894 33.344 57.2294 32.6336 57.072C31.9234 56.9146 31.1783 57.0635 30.4579 56.961C29.5347 56.8296 28.7048 56.2941 27.7801 56.1735C27.003 56.0722 26.2215 56.2715 25.4637 56.4712C24.7059 56.6709 23.9264 56.8746 23.1482 56.7821C22.3699 56.6897 21.3674 59.6391 21.3809 61.7164C21.3835 62.1101 21.3024 62.6155 20.9177 62.699C20.4439 62.8019 20.1693 62.148 19.7184 61.9698C19.3166 61.8111 18.835 62.1053 18.6951 62.514C18.6382 62.723 18.6322 62.9426 18.6773 63.1544C18.7225 63.3663 18.8176 63.5643 18.9548 63.732C19.232 64.0644 19.561 64.3499 19.9292 64.5773L19.7435 64.7318C19.4346 65.1399 18.7938 65.1576 18.3485 64.9051C17.9032 64.6526 17.6106 64.2033 17.3468 63.7646C16.523 62.3944 15.8004 60.9345 15.5097 59.3623C15.2189 57.7902 15.3969 56.084 16.2648 54.7413Z" fill="#2F2E41"/>
<path opacity="0.2" d="M84.1451 67.7311C84.9292 70.9976 85.2909 74.3512 85.2215 77.7097C85.1547 81.0687 84.6635 84.4057 83.7594 87.6414C83.2493 89.4687 82.6058 91.256 81.8342 92.9891C81.6953 93.3006 82.1557 93.5728 82.2956 93.2589C83.6888 90.136 84.6739 86.8467 85.2267 83.4721C85.7816 80.0968 85.9061 76.6647 85.5971 73.258C85.4221 71.3482 85.1091 69.4536 84.6605 67.589C84.5799 67.2548 84.0645 67.3963 84.1451 67.7311H84.1451Z" fill="black"/>
<path opacity="0.2" d="M134.043 90.5882L129.576 101.494C128.857 103.249 128.159 105.015 127.411 106.758C126.737 108.327 125.969 109.903 124.835 111.197C123.69 112.503 122.15 113.563 120.391 113.77C120.054 113.81 120.05 114.345 120.391 114.305C121.998 114.115 123.438 113.317 124.601 112.212C125.859 111.018 126.745 109.496 127.469 107.935C128.275 106.194 128.961 104.395 129.688 102.62L131.972 97.0442L134.558 90.7303C134.689 90.4123 134.172 90.2738 134.043 90.5882Z" fill="black"/>
<path d="M81.0855 100.487C81.164 100.716 81.3129 100.913 81.5108 101.052C81.7087 101.191 81.9455 101.263 82.187 101.259L86.9065 101.137C87.1499 101.133 87.3851 101.049 87.5772 100.9C87.7692 100.75 87.9077 100.542 87.972 100.308L88.6398 93.1662C88.8768 93.2735 89.1347 93.3265 89.3948 93.3213C89.6208 93.3157 89.8434 93.2655 90.05 93.1738C90.2565 93.0821 90.443 92.9506 90.5988 92.7868C90.7546 92.623 90.8765 92.4302 90.9578 92.2193C91.039 92.0083 91.0779 91.7835 91.0722 91.5575C91.0665 91.3316 91.0164 91.109 90.9247 90.9024C90.833 90.6958 90.7015 90.5093 90.5377 90.3535C90.3739 90.1978 90.1811 90.0758 89.9701 89.9946C89.7592 89.9133 89.5344 89.8745 89.3084 89.8801C89.2045 89.8798 89.1008 89.8906 88.9991 89.9123C88.8886 89.7927 88.7542 89.6976 88.6046 89.633C88.4551 89.5685 88.2937 89.536 88.1308 89.5377L80.8712 89.7251C80.811 89.7273 80.7511 89.7348 80.6922 89.7473C80.533 89.777 80.382 89.8405 80.2493 89.9334C80.1167 90.0263 80.0055 90.1466 79.9233 90.2861C79.841 90.4256 79.7896 90.5811 79.7725 90.7421C79.7553 90.9032 79.7729 91.066 79.824 91.2197L81.0855 100.487ZM88.7768 92.6813L89.252 90.9795C89.3061 90.7829 89.3073 90.5756 89.2556 90.3783C89.2787 90.3783 89.299 90.3674 89.3221 90.3673C89.648 90.3606 89.9632 90.4833 90.1987 90.7086C90.4341 90.934 90.5707 91.2435 90.5783 91.5693C90.5859 91.8951 90.464 92.2107 90.2394 92.4468C90.0147 92.6829 89.7056 92.8203 89.3797 92.8288C89.1691 92.8354 88.9606 92.7844 88.7768 92.6813Z" fill="#2F2E41"/>
<path d="M80.6921 89.7473C80.8468 90.6317 82.5857 91.2534 84.6766 91.1453C86.5992 91.0567 88.1713 90.3816 88.4594 89.5814C88.3528 89.5499 88.2419 89.5351 88.1308 89.5376L80.8712 89.7251C80.811 89.7273 80.7511 89.7348 80.6921 89.7473Z" fill="#3F3D56"/>
<path d="M65.3662 90.8634C65.4173 90.7097 65.4348 90.5468 65.4177 90.3858C65.4006 90.2248 65.3492 90.0693 65.2669 89.9298C65.1847 89.7903 65.0735 89.67 64.9409 89.5771C64.8082 89.4841 64.6572 89.4207 64.498 89.391C64.4391 89.3785 64.3792 89.371 64.3189 89.3688L57.0594 89.1813C56.8965 89.1797 56.7351 89.2122 56.5855 89.2767C56.436 89.3412 56.3016 89.4364 56.1911 89.556C56.0894 89.5343 55.9857 89.5235 55.8818 89.5238C55.4254 89.5124 54.9832 89.6826 54.6525 89.9972C54.3217 90.3118 54.1294 90.7449 54.118 91.2012C54.1065 91.6576 54.2768 92.0997 54.5914 92.4305C54.906 92.7613 55.3391 92.9536 55.7954 92.965C56.0555 92.9702 56.3134 92.9172 56.5504 92.8099L57.2182 99.9513C57.2825 100.186 57.4209 100.394 57.613 100.543C57.805 100.693 58.0403 100.776 58.2837 100.781L63.0031 100.902C63.2447 100.907 63.4815 100.834 63.6794 100.696C63.8773 100.557 64.0262 100.359 64.1046 100.131L65.3662 90.8634ZM55.8104 92.4725C55.4846 92.4639 55.1755 92.3266 54.9508 92.0905C54.7261 91.8544 54.6042 91.5388 54.6119 91.213C54.6195 90.8871 54.756 90.5776 54.9915 90.3523C55.227 90.127 55.5422 90.0042 55.8681 90.011C55.8911 90.011 55.9115 90.022 55.9345 90.022C55.8829 90.2192 55.8841 90.4266 55.9382 90.6232L56.4134 92.325C56.2296 92.4281 56.0211 92.4791 55.8104 92.4725Z" fill="#2F2E41"/>
<path d="M64.4979 89.391C64.3433 90.2753 62.6044 90.897 60.5135 90.789C58.5908 90.7004 57.0187 90.0253 56.7307 89.2251C56.8373 89.1936 56.9482 89.1788 57.0593 89.1813L64.3189 89.3688C64.3791 89.371 64.439 89.3784 64.4979 89.391Z" fill="#3F3D56"/>
<path d="M57.6179 73.8778C57.9816 73.6121 58.3991 73.4294 58.8411 73.3425C59.283 73.2556 59.7387 73.2667 60.1759 73.375C60.6131 73.4833 61.0212 73.6861 61.3716 73.9691C61.7219 74.2522 62.006 74.6087 62.2037 75.0134L73.0731 73.6984L70.534 78.79L60.6015 79.2581C59.8996 79.5451 59.1168 79.5647 58.4014 79.3131C57.686 79.0616 57.0877 78.5563 56.72 77.8932C56.3522 77.23 56.2405 76.4549 56.406 75.7149C56.5715 74.9748 57.0027 74.3212 57.6179 73.8778L57.6179 73.8778Z" fill="#9E616A"/>
<path d="M93.0658 63.5077C92.7452 64.1366 92.355 64.8688 91.9168 65.6669C90.3776 68.4798 88.263 72.1105 86.6347 74.8735C85.2434 77.2304 84.2048 78.9584 84.1763 79.0065L84.1318 79.0778L74.567 79.2934L72.5148 79.3397L71.8164 79.3557L64.3218 79.5249L64.393 79.0796L65.0932 74.6651L65.1644 74.2144L71.7291 73.1241L74.1288 72.7268L79.4518 71.8432L80.3764 69.114C82.0049 64.3171 84.7261 59.9644 88.3253 56.3996C88.4304 56.2981 88.5373 56.2019 88.6496 56.111C88.7475 56.0327 88.8473 55.9578 88.9489 55.8901C89.38 56.5012 89.7648 57.0534 90.0908 57.497L90.88 58.5713C91.9575 60.039 92.7033 61.7233 93.0658 63.5077Z" fill="#FF9C00"/>
<path d="M53.2945 79.822C53.373 80.0505 53.5219 80.2483 53.7198 80.3869C53.9177 80.5255 54.1545 80.5979 54.396 80.5936L59.1155 80.4721C59.3588 80.4674 59.5941 80.384 59.7862 80.2345C59.9782 80.0849 60.1167 79.8772 60.181 79.6425L60.8488 72.501C61.0858 72.6084 61.3437 72.6614 61.6038 72.6562C62.0601 72.6447 62.4932 72.4525 62.8078 72.1217C63.1224 71.7909 63.2926 71.3487 63.2812 70.8924C63.2697 70.436 63.0775 70.003 62.7467 69.6884C62.4159 69.3738 61.9737 69.2035 61.5174 69.215C61.4134 69.2146 61.3098 69.2254 61.2081 69.2471C61.0975 69.1275 60.9632 69.0324 60.8136 68.9679C60.6641 68.9034 60.5027 68.8709 60.3398 68.8725L53.0802 69.06C53.02 69.0622 52.9601 69.0696 52.9011 69.0822C52.7419 69.1119 52.5909 69.1753 52.4583 69.2682C52.3257 69.3612 52.2145 69.4814 52.1322 69.6209C52.05 69.7604 51.9986 69.9159 51.9814 70.077C51.9643 70.238 51.9819 70.4008 52.033 70.5545L53.2945 79.822ZM60.9858 72.0162L61.461 70.3144C61.5151 70.1178 61.5163 69.9104 61.4646 69.7132C61.4877 69.7131 61.508 69.7022 61.5311 69.7021C61.8569 69.6954 62.1722 69.8182 62.4076 70.0435C62.6431 70.2688 62.7797 70.5783 62.7873 70.9041C62.7949 71.23 62.673 71.5455 62.4484 71.7816C62.2237 72.0177 61.9145 72.1551 61.5887 72.1636C61.3781 72.1702 61.1696 72.1192 60.9858 72.0162Z" fill="#CCCCCC"/>
<path d="M52.9011 69.0823C53.0558 69.9666 54.7947 70.5883 56.8855 70.4803C58.8082 70.3917 60.3803 69.7165 60.6684 68.9164C60.5618 68.8849 60.4509 68.8701 60.3398 68.8726L53.0802 69.06C53.02 69.0623 52.9601 69.0697 52.9011 69.0823Z" fill="#3F3D56"/>
</g>
<defs>
<clipPath id="clip0_773_140">
<rect width="150" height="150.143" fill="white"/>
</clipPath>
</defs>
</svg>
