<svg width="150" height="82" viewBox="0 0 150 82" fill="none" xmlns="http://www.w3.org/2000/svg">
<g clip-path="url(#clip0_773_221)">
<path d="M81.3976 42.9648V43.1412C81.3973 44.7611 80.7536 46.3145 79.608 47.4597C78.4624 48.605 76.9088 49.2482 75.2889 49.248H6.33937C4.71982 49.2478 3.16664 48.6043 2.02145 47.4591C0.876251 46.3139 0.23282 44.7608 0.232666 43.1412V42.9648H81.3976Z" fill="#F2F2F2"/>
<path d="M14.6534 13.8943C9.67073 15.125 5.19774 11.2916 4.41675 7.73527L4.76366 7.67326C8.96337 6.74493 13.6515 9.74694 14.6534 13.8943Z" fill="#FF9C00"/>
<path d="M135.095 79.7549C133.654 79.1327 133.326 76.8657 134.532 75.8612C135.738 74.8567 137.909 75.5888 138.26 77.1187L136.916 67.5025C136.607 65.2917 136.359 62.8203 137.695 61.032C138.947 59.3574 141.391 58.8208 143.353 59.5417C145.315 60.2626 146.765 62.0609 147.381 64.0587C147.996 66.0565 147.851 68.2275 147.313 70.2477C146.776 72.2678 145.863 74.1654 144.94 76.0409C143.994 77.9628 142.847 80.0454 140.825 80.7529C138.894 81.4287 135.095 79.7549 135.095 79.7549Z" fill="#F2F2F2"/>
<path d="M141.41 59.3593C142.293 62.1164 142.714 65.0007 142.654 67.8952C142.599 70.7768 142.081 73.6309 141.121 76.3485C140.575 77.8903 139.882 79.3763 139.053 80.7865C139.018 80.8529 139.009 80.9306 139.029 81.0032C139.05 81.0758 139.098 81.1377 139.163 81.1758C139.228 81.2138 139.305 81.2251 139.378 81.2072C139.452 81.1894 139.515 81.1437 139.555 81.0799C141.044 78.5369 142.101 75.7653 142.685 72.8772C143.278 69.9756 143.396 66.9971 143.036 64.0576C142.834 62.4101 142.477 60.7854 141.97 59.2048C141.856 58.85 141.295 59.0017 141.41 59.3593Z" fill="white"/>
<path d="M134.24 76.2151L138.842 81.0508C139.1 81.3224 139.511 80.9108 139.253 80.6397L134.651 75.804C134.393 75.5324 133.982 75.9439 134.24 76.2151Z" fill="white"/>
<path d="M130.331 57.9566C130.167 57.9569 130.009 57.898 129.885 57.7907C127.044 55.9406 124.514 53.6504 122.392 51.0059C122.262 50.8827 122.186 50.7136 122.179 50.5348C122.172 50.3559 122.236 50.1815 122.356 50.0488L123.751 48.5085L124.038 48.7688L122.643 50.3091C122.59 50.3676 122.563 50.4448 122.567 50.5236C122.571 50.6025 122.606 50.6765 122.664 50.7295L122.685 50.751C124.786 53.3718 127.291 55.6408 130.107 57.4725L130.132 57.4919C130.191 57.5449 130.268 57.5725 130.347 57.5686C130.426 57.5647 130.5 57.5296 130.553 57.4711L133.274 54.4656C133.325 54.4098 133.352 54.3367 133.351 54.2613C133.35 54.186 133.32 54.1138 133.268 54.0595C132.637 53.7159 132.022 53.3412 131.439 52.9458L131.656 52.625C132.236 53.0182 132.848 53.3904 133.476 53.7313L133.513 53.758C133.58 53.8184 133.634 53.8913 133.673 53.9727C133.711 54.054 133.733 54.1421 133.738 54.232C133.742 54.3219 133.729 54.4117 133.699 54.4965C133.668 54.5812 133.622 54.6592 133.561 54.7259L130.84 57.7313C130.78 57.7982 130.707 57.8525 130.625 57.891C130.544 57.9295 130.456 57.9515 130.366 57.9557C130.354 57.9563 130.343 57.9566 130.331 57.9566Z" fill="#3F3D56"/>
<path d="M127.331 52.897C128.186 53.6703 129.063 54.0947 129.292 53.8428C129.322 53.8001 129.341 53.7506 129.347 53.6989C129.353 53.6472 129.346 53.5947 129.327 53.5463C129.234 53.261 129.086 52.9969 128.891 52.7691C128.131 52.2284 127.393 51.645 126.676 51.0191C126.451 50.9454 126.278 50.9474 126.195 51.0404C126.183 51.0537 126.174 51.0687 126.166 51.085C126.023 51.3776 126.521 52.1625 127.331 52.897Z" fill="#FF9C00"/>
<path d="M122.18 46.6662C122.187 46.8426 122.263 47.0091 122.393 47.1294C123.541 48.5482 124.803 49.8711 126.166 51.0849C127.164 51.9748 128.22 52.7971 129.327 53.5462C129.511 53.6722 129.697 53.7943 129.885 53.9144C130.009 54.0224 130.167 54.0817 130.331 54.0811C130.343 54.0811 130.354 54.0792 130.366 54.0792C130.456 54.075 130.544 54.053 130.626 54.0144C130.707 53.9758 130.78 53.9214 130.841 53.8544L133.562 50.8504C133.684 50.7155 133.747 50.5376 133.738 50.3559C133.729 50.1742 133.648 50.0035 133.513 49.8814L133.476 49.8543C130.506 48.2497 127.967 45.9512 126.075 43.1545L126.046 43.1196C125.911 42.9976 125.733 42.9342 125.551 42.9432C125.37 42.9523 125.199 43.0332 125.077 43.168L122.356 46.172C122.295 46.2387 122.249 46.3167 122.218 46.4015C122.188 46.4863 122.175 46.5763 122.18 46.6662ZM122.567 46.6468C122.565 46.608 122.571 46.5693 122.584 46.5327C122.597 46.4961 122.617 46.4624 122.643 46.4336L125.364 43.4277C125.39 43.3986 125.422 43.375 125.458 43.3583C125.493 43.3417 125.532 43.3323 125.571 43.3308C125.642 43.3265 125.713 43.3486 125.769 43.3928C127.688 46.2243 130.26 48.5533 133.267 50.1837C133.319 50.2377 133.349 50.3095 133.351 50.3847C133.352 50.4599 133.325 50.5328 133.275 50.5888L130.552 53.5947C130.526 53.6239 130.495 53.6476 130.459 53.6643C130.424 53.681 130.386 53.6902 130.346 53.6916C130.268 53.6954 130.19 53.6683 130.131 53.616L130.106 53.5966C129.695 53.333 129.29 53.0572 128.891 52.7691C128.131 52.2284 127.393 51.645 126.676 51.019C125.228 49.7559 123.892 48.3695 122.684 46.8755L122.664 46.8542C122.606 46.8004 122.571 46.7259 122.567 46.6468V46.6468Z" fill="#3F3D56"/>
<path d="M129.292 49.9675C129.52 49.716 129.011 48.8844 128.156 48.1101C127.301 47.3358 126.423 46.912 126.196 47.1635C125.968 47.415 126.476 48.2466 127.331 49.0209C128.187 49.7952 129.064 50.219 129.292 49.9675Z" fill="#FF9C00"/>
<path d="M112.194 78.7909L109.818 78.7907L108.688 69.6261L112.194 69.6263L112.194 78.7909Z" fill="#FFB8B8"/>
<path d="M112.8 81.094L105.138 81.0937V80.9968C105.138 80.6052 105.216 80.2174 105.365 79.8556C105.515 79.4939 105.735 79.1651 106.012 78.8882C106.289 78.6113 106.617 78.3917 106.979 78.2419C107.341 78.092 107.729 78.0149 108.12 78.0149H108.121L112.8 78.0151L112.8 81.094Z" fill="#2F2E41"/>
<path d="M119.171 78.7909L116.795 78.7907L115.664 69.6261L119.171 69.6263L119.171 78.7909Z" fill="#FFB8B8"/>
<path d="M119.777 81.094L112.115 81.0937V80.9968C112.115 80.6052 112.193 80.2174 112.342 79.8556C112.492 79.4939 112.712 79.1651 112.989 78.8882C113.266 78.6113 113.594 78.3917 113.956 78.2419C114.318 78.092 114.706 78.0149 115.097 78.0149H115.098L119.777 78.0151L119.777 81.094Z" fill="#2F2E41"/>
<path d="M120.765 41.7534L120.198 75.4159C120.196 75.5225 120.172 75.6276 120.128 75.7246C120.084 75.8216 120.02 75.9084 119.941 75.9797C119.861 76.0509 119.768 76.105 119.667 76.1386C119.566 76.1722 119.459 76.1845 119.353 76.1749L116.572 75.9221C116.39 75.9055 116.219 75.8249 116.091 75.6946C115.962 75.5642 115.884 75.3926 115.87 75.21L114.242 54.2123C114.238 54.163 114.216 54.117 114.179 54.0837C114.142 54.0505 114.094 54.0325 114.045 54.0335C113.995 54.0345 113.948 54.0543 113.913 54.089C113.878 54.1237 113.857 54.1705 113.855 54.2199L113.041 75.6984C113.034 75.8987 112.949 76.0884 112.804 76.2275C112.66 76.3665 112.467 76.4442 112.267 76.4442H109.285C109.088 76.4442 108.898 76.3689 108.754 76.2337C108.61 76.0984 108.523 75.9134 108.511 75.7163L106.424 41.5596L118.827 38.4587L120.765 41.7534Z" fill="#2F2E41"/>
<path d="M111.769 10.1448C114.397 10.1448 116.529 8.01366 116.529 5.38477C116.529 2.75589 114.397 0.624756 111.769 0.624756C109.14 0.624756 107.009 2.75589 107.009 5.38477C107.009 8.01366 109.14 10.1448 111.769 10.1448Z" fill="#FFB8B8"/>
<path d="M105.999 42.7549C105.917 42.6752 105.851 42.58 105.805 42.4747C105.76 42.3694 105.736 42.2562 105.735 42.1415L105.414 19.1869C105.394 18.0193 105.746 16.8755 106.417 15.92C107.088 14.9644 108.045 14.2463 109.151 13.8687C109.596 11.8455 111.97 11.5921 113.354 11.6224C113.699 11.6298 114.037 11.7204 114.34 11.8865C114.643 12.0526 114.902 12.2892 115.093 12.5764L116.085 14.0642L118.272 15.3457C119.283 15.9362 120.081 16.8329 120.55 17.9063C121.02 18.9797 121.136 20.1744 120.882 21.318L120.546 22.849C119.36 28.2676 119.473 33.8897 120.875 39.2564L121.552 41.8387C121.587 41.9732 121.59 42.1141 121.559 42.2498C121.529 42.3855 121.467 42.512 121.378 42.6188C121.289 42.7255 121.175 42.8094 121.047 42.8634C120.919 42.9175 120.78 42.9401 120.641 42.9294L119.855 42.8688C119.651 42.8534 119.458 42.7664 119.312 42.6233C119.165 42.4802 119.074 42.29 119.054 42.0862L118.924 40.7845C118.921 40.7606 118.91 40.7384 118.892 40.7223C118.874 40.7062 118.851 40.6972 118.827 40.6972C118.803 40.6972 118.78 40.7062 118.762 40.7223C118.744 40.7384 118.733 40.7606 118.731 40.7845L118.605 42.0448C118.584 42.2577 118.485 42.4554 118.327 42.6001C118.17 42.7449 117.964 42.8268 117.75 42.83L106.62 43.0013C106.616 43.0013 106.611 43.0015 106.606 43.0015C106.379 43.0019 106.161 42.9134 105.999 42.7549Z" fill="#3F3D56"/>
<path d="M112.141 8.12854C112.16 8.80143 112.628 9.19071 113.201 9.54316C113.775 9.89561 114.445 10.0484 115.102 10.1958C115.19 10.2427 115.289 10.266 115.389 10.2636C115.489 10.2611 115.586 10.233 115.672 10.1819C115.758 10.1307 115.829 10.0584 115.879 9.97171C115.928 9.88506 115.955 9.78707 115.956 9.68719L116.558 7.3958C116.771 6.66385 116.926 5.91623 117.022 5.15989C117.167 3.7046 116.822 2.13907 115.806 1.08685C114.79 0.0346372 113.029 -0.339145 111.812 0.471568C110.367 -1.3734 103.764 2.70283 105.393 3.98577C105.683 4.21401 106.126 3.92521 106.494 3.89721C106.861 3.86922 107.274 3.93392 107.507 4.21935C107.812 4.59227 107.679 5.14777 107.805 5.61297C107.857 5.77666 107.941 5.92842 108.052 6.05951C108.163 6.1906 108.299 6.29843 108.452 6.37677C108.605 6.45511 108.771 6.50242 108.943 6.51597C109.114 6.52951 109.286 6.50903 109.449 6.4557C109.753 6.30586 110.04 6.12195 110.302 5.90751C110.584 5.7196 110.941 5.58075 111.258 5.69926C111.677 5.85548 111.826 6.36797 111.863 6.81316C111.927 7.25719 112.02 7.69658 112.141 8.12854Z" fill="#2F2E41"/>
<path opacity="0.2" d="M111.029 20.8859L110.254 30.3822L106.184 40.2662L112.192 30.576L111.029 20.8859Z" fill="black"/>
<path d="M105.233 43.9469C105.455 43.7685 105.635 43.5436 105.761 43.288C105.887 43.0324 105.955 42.7523 105.961 42.4674C105.967 42.1826 105.91 41.8999 105.795 41.6393C105.68 41.3788 105.509 41.1466 105.294 40.9592L107.887 34.5374L104.359 35.2497L102.438 41.2388C102.147 41.6202 102.006 42.0951 102.042 42.5735C102.078 43.0518 102.288 43.5004 102.632 43.8342C102.977 44.168 103.432 44.3638 103.911 44.3846C104.39 44.4054 104.861 44.2497 105.233 43.9469V43.9469Z" fill="#FFB8B8"/>
<path d="M105.044 41.1147L103.047 40.3951C102.841 40.3198 102.671 40.1702 102.57 39.9758C102.469 39.7815 102.445 39.5563 102.501 39.3447L105.795 27.2864L106.298 16.3883C106.313 16.0594 106.393 15.7367 106.534 15.4391C106.675 15.1415 106.874 14.8749 107.119 14.6548C107.364 14.4347 107.65 14.2654 107.961 14.1569C108.272 14.0484 108.601 14.0028 108.93 14.0227C109.258 14.0427 109.58 14.1277 109.875 14.273C110.171 14.4183 110.435 14.6209 110.651 14.8689C110.868 15.117 111.033 15.4057 111.137 15.7182C111.241 16.0306 111.281 16.3606 111.257 16.689L110.36 28.6221L106.162 40.5833C106.099 40.764 105.977 40.9188 105.817 41.0239C105.657 41.1289 105.467 41.1784 105.276 41.1646C105.196 41.1586 105.118 41.1418 105.044 41.1147Z" fill="#3F3D56"/>
<path d="M125.623 44.5768C125.759 44.3266 125.839 44.0495 125.856 43.7652C125.874 43.4808 125.829 43.196 125.725 42.9309C125.621 42.6658 125.459 42.4268 125.253 42.2307C125.046 42.0346 124.799 41.8863 124.529 41.796L124.447 34.871L121.466 36.8875L122.001 43.1545C121.879 43.6185 121.932 44.111 122.149 44.5386C122.367 44.9662 122.733 45.2992 123.18 45.4746C123.626 45.6499 124.122 45.6553 124.572 45.4898C125.022 45.3244 125.396 44.9995 125.623 44.5768L125.623 44.5768Z" fill="#FFB8B8"/>
<path d="M124.357 42.0359L122.237 42.1411C122.019 42.1509 121.804 42.0785 121.636 41.938C121.468 41.7975 121.358 41.5992 121.329 41.3821L119.723 28.9855L115.988 18.7353C115.875 18.4259 115.825 18.0972 115.84 17.7683C115.856 17.4394 115.936 17.1168 116.078 16.8193C116.219 16.5218 116.418 16.2554 116.663 16.0355C116.908 15.8156 117.194 15.6466 117.505 15.5383C117.816 15.4301 118.146 15.3848 118.474 15.4049C118.803 15.4251 119.124 15.5105 119.42 15.656C119.715 15.8015 119.979 16.0043 120.195 16.2525C120.411 16.5008 120.576 16.7896 120.68 17.1021L124.45 28.4596L125.185 41.1145C125.196 41.3058 125.144 41.4954 125.036 41.654C124.929 41.8127 124.772 41.9317 124.591 41.9926C124.515 42.0175 124.437 42.0321 124.357 42.0359Z" fill="#3F3D56"/>
<path d="M149.806 81.1923H75.967C75.9156 81.1923 75.8663 81.1719 75.8299 81.1355C75.7936 81.0992 75.7732 81.0499 75.7732 80.9985C75.7732 80.9471 75.7936 80.8978 75.8299 80.8615C75.8663 80.8251 75.9156 80.8047 75.967 80.8047H149.806C149.858 80.8047 149.907 80.8251 149.943 80.8615C149.98 80.8978 150 80.9471 150 80.9985C150 81.0499 149.98 81.0992 149.943 81.1355C149.907 81.1719 149.858 81.1923 149.806 81.1923Z" fill="#3F3D56"/>
<path d="M62.641 39.3505C61.5279 39.3505 60.6427 39.0195 60.0098 38.3665C58.5792 36.8907 58.6688 34.046 58.7408 31.7602C58.7617 31.0952 58.7815 30.467 58.7615 29.9409L58.7614 29.9329C58.7664 28.9049 59.1769 27.9205 59.9037 27.1933C60.6304 26.4662 61.6147 26.0553 62.6427 26.0497H71.8708C72.9824 26.0497 73.8667 26.3802 74.4993 27.0323C75.9298 28.507 75.8412 31.351 75.77 33.6362C75.7492 34.3026 75.7296 34.9321 75.75 35.4592C75.7464 36.4887 75.3364 37.4752 74.6092 38.2039C73.882 38.9327 72.8964 39.3447 71.8669 39.3505H62.641ZM59.149 29.9302C59.1692 30.4689 59.1493 31.1021 59.1282 31.7724C59.0585 33.985 58.9718 36.7388 60.2881 38.0967C60.8531 38.6796 61.6227 38.9629 62.641 38.9629H71.8663C72.7922 38.958 73.6787 38.588 74.3333 37.9332C74.9879 37.2785 75.3578 36.3919 75.3625 35.4661C75.3418 34.9335 75.3616 34.2975 75.3826 33.6241C75.4515 31.412 75.5373 28.6589 74.2211 27.3022C73.6565 26.7202 72.8876 26.4373 71.8708 26.4373H62.6432C61.7183 26.4424 60.8328 26.8121 60.1786 27.466C59.5245 28.1199 59.1545 29.0053 59.149 29.9302Z" fill="#3F3D56"/>
<path d="M12.6147 14.251C10.9966 14.2411 9.41372 13.7775 8.04601 12.9128C6.04233 11.6677 4.52942 9.67367 4.09771 7.70904L4.05444 7.51211L4.59592 7.41521C8.85828 6.47449 13.6793 9.50598 14.7121 13.779L14.7573 13.9664L14.5702 14.0127C13.9304 14.171 13.2738 14.251 12.6147 14.251ZM4.52317 7.82204C4.98826 9.62428 6.39977 11.4334 8.2506 12.5836C10.0401 13.7288 12.2087 14.1231 14.2868 13.681C13.2062 9.69998 8.6815 6.90639 4.67583 7.7946L4.52317 7.82204Z" fill="#3F3D56"/>
<path d="M7.23816 36.2752C5.97018 36.2752 4.94004 35.7078 4.33525 34.6728C3.99627 34.0706 3.81809 33.3912 3.81787 32.7002C3.81766 32.0092 3.99541 31.3297 4.33402 30.7273C4.94848 29.6746 6.00319 29.1035 7.30575 29.1234H19.6014C20.8995 29.1069 21.955 29.6754 22.5699 30.7294C22.9085 31.3317 23.0864 32.011 23.0863 32.7019C23.0862 33.3928 22.9083 34.0721 22.5695 34.6743C21.9549 35.7258 20.8997 36.2875 19.5985 36.2748H7.30261C7.28105 36.2751 7.25957 36.2752 7.23816 36.2752ZM7.24536 29.5106C6.11457 29.5106 5.20114 30.0106 4.66878 30.9227C4.36373 31.4654 4.2036 32.0776 4.2038 32.7001C4.20401 33.3227 4.36454 33.9347 4.66994 34.4772C5.21127 35.4038 6.14341 35.9053 7.2997 35.8872H19.6014C20.7589 35.9056 21.6939 35.4043 22.2349 34.4787C22.54 33.9361 22.7003 33.3242 22.7004 32.7017C22.7004 32.0793 22.5402 31.4673 22.2351 30.9247C21.6938 29.9968 20.7586 29.4971 19.6041 29.511H7.30168C7.2829 29.5108 7.26402 29.5106 7.24535 29.5106H7.24536Z" fill="#3F3D56"/>
<path d="M65.7963 30.6584H61.9202C61.6632 30.6584 61.4167 30.5563 61.235 30.3746C61.0533 30.1928 60.9512 29.9464 60.9512 29.6894C60.9512 29.4324 61.0533 29.1859 61.235 29.0042C61.4167 28.8224 61.6632 28.7203 61.9202 28.7203H65.7963C66.0533 28.7203 66.2997 28.8224 66.4815 29.0042C66.6632 29.1859 66.7653 29.4324 66.7653 29.6894C66.7653 29.9464 66.6632 30.1928 66.4815 30.3746C66.2997 30.5563 66.0533 30.6584 65.7963 30.6584Z" fill="#FF9C00"/>
<path d="M65.7963 33.7592H61.9202C61.6632 33.7592 61.4167 33.6571 61.235 33.4754C61.0533 33.2937 60.9512 33.0472 60.9512 32.7902C60.9512 32.5332 61.0533 32.2867 61.235 32.105C61.4167 31.9233 61.6632 31.8212 61.9202 31.8212H65.7963C66.0533 31.8212 66.2997 31.9233 66.4815 32.105C66.6632 32.2867 66.7653 32.5332 66.7653 32.7902C66.7653 33.0472 66.6632 33.2937 66.4815 33.4754C66.2997 33.6571 66.0533 33.7592 65.7963 33.7592Z" fill="#FF9C00"/>
<path d="M65.7963 36.86H61.9202C61.6632 36.86 61.4167 36.7579 61.235 36.5762C61.0533 36.3945 60.9512 36.148 60.9512 35.891C60.9512 35.634 61.0533 35.3875 61.235 35.2058C61.4167 35.0241 61.6632 34.922 61.9202 34.922H65.7963C66.0533 34.922 66.2997 35.0241 66.4815 35.2058C66.6632 35.3875 66.7653 35.634 66.7653 35.891C66.7653 36.148 66.6632 36.3945 66.4815 36.5762C66.2997 36.7579 66.0533 36.86 65.7963 36.86Z" fill="#FF9C00"/>
<path d="M72.5795 30.6584H68.7034C68.4464 30.6584 68.1999 30.5563 68.0182 30.3746C67.8365 30.1928 67.7344 29.9464 67.7344 29.6894C67.7344 29.4324 67.8365 29.1859 68.0182 29.0042C68.1999 28.8224 68.4464 28.7203 68.7034 28.7203H72.5795C72.8365 28.7203 73.0829 28.8224 73.2647 29.0042C73.4464 29.1859 73.5485 29.4324 73.5485 29.6894C73.5485 29.9464 73.4464 30.1928 73.2647 30.3746C73.0829 30.5563 72.8365 30.6584 72.5795 30.6584Z" fill="#FF9C00"/>
<path d="M72.5795 33.7592H68.7034C68.4464 33.7592 68.1999 33.6571 68.0182 33.4754C67.8365 33.2937 67.7344 33.0472 67.7344 32.7902C67.7344 32.5332 67.8365 32.2867 68.0182 32.105C68.1999 31.9233 68.4464 31.8212 68.7034 31.8212H72.5795C72.8365 31.8212 73.0829 31.9233 73.2647 32.105C73.4464 32.2867 73.5485 32.5332 73.5485 32.7902C73.5485 33.0472 73.4464 33.2937 73.2647 33.4754C73.0829 33.6571 72.8365 33.7592 72.5795 33.7592Z" fill="#FF9C00"/>
<path d="M72.5795 36.86H68.7034C68.4464 36.86 68.1999 36.7579 68.0182 36.5762C67.8365 36.3945 67.7344 36.148 67.7344 35.891C67.7344 35.634 67.8365 35.3875 68.0182 35.2058C68.1999 35.0241 68.4464 34.922 68.7034 34.922H72.5795C72.8365 34.922 73.0829 35.0241 73.2647 35.2058C73.4464 35.3875 73.5485 35.634 73.5485 35.891C73.5485 36.148 73.4464 36.3945 73.2647 36.5762C73.0829 36.7579 72.8365 36.86 72.5795 36.86Z" fill="#FF9C00"/>
<path d="M81.3976 16.8868H0.232666V17.2744H81.3976V16.8868Z" fill="#3F3D56"/>
<path d="M75.002 49.3604H6.39552C4.69991 49.3584 3.0743 48.684 1.87532 47.485C0.676342 46.2861 0.00191536 44.6604 0 42.9648V9.63063C0.00191536 7.93502 0.676342 6.3094 1.87532 5.11043C3.0743 3.91145 4.69991 3.23702 6.39552 3.23511H75.002C76.6976 3.23702 78.3232 3.91145 79.5222 5.11043C80.7212 6.3094 81.3956 7.93502 81.3975 9.63063V42.9648C81.3956 44.6604 80.7212 46.2861 79.5222 47.485C78.3232 48.684 76.6976 49.3584 75.002 49.3604ZM6.39552 3.62271C4.80268 3.62452 3.27559 4.25808 2.14928 5.38439C1.02297 6.5107 0.389417 8.03778 0.387607 9.63063V42.9648C0.389417 44.5577 1.02297 46.0848 2.14928 47.2111C3.27559 48.3374 4.80268 48.9709 6.39552 48.9728H75.002C76.5948 48.9709 78.1219 48.3374 79.2482 47.2111C80.3745 46.0848 81.0081 44.5577 81.0099 42.9648V9.63063C81.0081 8.03778 80.3745 6.5107 79.2482 5.38439C78.1219 4.25808 76.5948 3.62452 75.002 3.62271H6.39552Z" fill="#3F3D56"/>
</g>
<defs>
<clipPath id="clip0_773_221">
<rect width="150" height="81.22" fill="white"/>
</clipPath>
</defs>
</svg>
