<svg width="150" height="112" viewBox="0 0 150 112" fill="none" xmlns="http://www.w3.org/2000/svg">
<g clip-path="url(#clip0_773_379)">
<path d="M147.117 76.4577H35.1359C34.3715 76.4569 33.6386 76.1528 33.0981 75.6123C32.5576 75.0718 32.2535 74.3389 32.2527 73.5745V4.52482C32.2533 3.96479 32.476 3.42789 32.872 3.03189C33.268 2.63588 33.8049 2.41312 34.3649 2.41248H147.851C148.421 2.41313 148.967 2.63973 149.37 3.04258C149.773 3.44543 149.999 3.99163 150 4.56133V73.5745C149.999 74.3389 149.695 75.0718 149.155 75.6123C148.614 76.1528 147.881 76.4569 147.117 76.4577Z" fill="#F2F2F2"/>
<path d="M143.032 72.3745H38.6685C37.1386 72.3745 35.894 71.209 35.894 69.7764V9.64706C35.894 8.58462 36.8163 7.72021 37.95 7.72021H143.716C144.869 7.72021 145.806 8.59887 145.806 9.6788V69.7764C145.806 71.209 144.562 72.3745 143.032 72.3745Z" fill="white"/>
<path d="M149.96 4.35983H32.2122V2.89194C32.2133 2.12498 32.5186 1.38977 33.061 0.847617C33.6035 0.305461 34.3389 0.000630656 35.1059 0H147.066C147.833 0.000631222 148.569 0.305464 149.111 0.84762C149.654 1.38978 149.959 2.12498 149.96 2.89194V4.35983Z" fill="#E6E6E6"/>
<path d="M37.4711 2.93277C37.8845 2.93277 38.2196 2.59766 38.2196 2.18428C38.2196 1.7709 37.8845 1.43579 37.4711 1.43579C37.0578 1.43579 36.7227 1.7709 36.7227 2.18428C36.7227 2.59766 37.0578 2.93277 37.4711 2.93277Z" fill="white"/>
<path d="M40.3122 2.93277C40.7256 2.93277 41.0607 2.59766 41.0607 2.18428C41.0607 1.7709 40.7256 1.43579 40.3122 1.43579C39.8988 1.43579 39.5637 1.7709 39.5637 2.18428C39.5637 2.59766 39.8988 2.93277 40.3122 2.93277Z" fill="white"/>
<path d="M43.1533 2.93277C43.5667 2.93277 43.9018 2.59766 43.9018 2.18428C43.9018 1.7709 43.5667 1.43579 43.1533 1.43579C42.7399 1.43579 42.4048 1.7709 42.4048 2.18428C42.4048 2.59766 42.7399 2.93277 43.1533 2.93277Z" fill="white"/>
<path d="M82.5791 55.4725H138.468C139.21 55.4725 139.921 55.1779 140.445 54.6536C140.969 54.1293 141.264 53.4182 141.264 52.6766V27.4182C141.264 26.6767 140.969 25.9655 140.445 25.4412C139.921 24.9169 139.21 24.6223 138.468 24.6223H82.5791C81.8375 24.6223 81.1264 24.9169 80.6021 25.4412C80.0778 25.9655 79.7832 26.6767 79.7832 27.4182V52.6766C79.7832 53.4182 80.0778 54.1293 80.6021 54.6536C81.1264 55.1779 81.8375 55.4725 82.5791 55.4725Z" fill="#F2F2F2"/>
<path d="M132.366 41.4453H87.8074C87.4366 41.4453 87.081 41.298 86.8189 41.0358C86.5567 40.7737 86.4094 40.4181 86.4094 40.0473C86.4094 39.6766 86.5567 39.321 86.8189 39.0589C87.081 38.7967 87.4366 38.6494 87.8074 38.6494H132.366C132.737 38.6494 133.093 38.7967 133.355 39.0589C133.617 39.321 133.764 39.6766 133.764 40.0473C133.764 40.4181 133.617 40.7737 133.355 41.0358C133.093 41.298 132.737 41.4453 132.366 41.4453Z" fill="white"/>
<path d="M132.366 47.3866H87.8074C87.4366 47.3866 87.081 47.2393 86.8189 46.9771C86.5567 46.715 86.4094 46.3594 86.4094 45.9886C86.4094 45.6179 86.5567 45.2623 86.8189 45.0001C87.081 44.738 87.4366 44.5907 87.8074 44.5907H132.366C132.737 44.5907 133.093 44.738 133.355 45.0001C133.617 45.2623 133.764 45.6179 133.764 45.9886C133.764 46.3594 133.617 46.715 133.355 46.9771C133.093 47.2393 132.737 47.3866 132.366 47.3866Z" fill="white"/>
<path d="M124.503 35.5041H87.8074C87.4366 35.5041 87.081 35.3568 86.8189 35.0947C86.5567 34.8325 86.4094 34.4769 86.4094 34.1062C86.4094 33.7354 86.5567 33.3799 86.8189 33.1177C87.081 32.8555 87.4366 32.7083 87.8074 32.7083H124.503C124.874 32.7083 125.229 32.8555 125.492 33.1177C125.754 33.3799 125.901 33.7354 125.901 34.1062C125.901 34.4769 125.754 34.8325 125.492 35.0947C125.229 35.3568 124.874 35.5041 124.503 35.5041Z" fill="white"/>
<path d="M55.133 66.7823C55.1964 66.4784 55.3257 66.1921 55.5117 65.9435C55.6977 65.6949 55.936 65.4901 56.2097 65.3436C56.4835 65.197 56.786 65.1123 57.096 65.0953C57.406 65.0784 57.716 65.1296 58.0041 65.2454L62.9586 59.5522L64.011 63.3303L59.1447 68.1574C58.9181 68.6285 58.5266 69 58.0444 69.2017C57.5621 69.4034 57.0226 69.4212 56.5281 69.2517C56.0336 69.0822 55.6185 68.7372 55.3614 68.2821C55.1043 67.827 55.023 67.2934 55.1331 66.7823H55.133Z" fill="#FFB8B8"/>
<path d="M82.3257 40.0664C85.1905 40.0664 87.5129 37.744 87.5129 34.8791C87.5129 32.0143 85.1905 29.6919 82.3257 29.6919C79.4608 29.6919 77.1384 32.0143 77.1384 34.8791C77.1384 37.744 79.4608 40.0664 82.3257 40.0664Z" fill="#FFB8B8"/>
<path d="M76.2319 106.279L73.6426 106.279L72.4109 96.2921L76.2323 96.2923L76.2319 106.279Z" fill="#FFB8B8"/>
<path d="M76.8923 108.789L68.5435 108.789V108.684C68.5435 108.257 68.6275 107.834 68.7908 107.44C68.9541 107.046 69.1935 106.687 69.4952 106.386C69.797 106.084 70.1552 105.845 70.5495 105.681C70.9438 105.518 71.3663 105.434 71.7931 105.434H71.7933L76.8924 105.434L76.8923 108.789Z" fill="#2F2E41"/>
<path d="M84.0463 109.025L81.457 109.025L81.0986 99.2764L84.0468 99.038L84.0463 109.025Z" fill="#FFB8B8"/>
<path d="M84.7065 111.535L76.3577 111.535V111.429C76.3577 111.002 76.4417 110.58 76.605 110.186C76.7683 109.791 77.0077 109.433 77.3095 109.131C77.6112 108.83 77.9694 108.59 78.3637 108.427C78.758 108.264 79.1805 108.18 79.6073 108.18H79.6075L84.7066 108.18L84.7065 111.535Z" fill="#2F2E41"/>
<path d="M83.3098 107.202L81.2935 106.965C81.0648 106.938 80.8538 106.828 80.6995 106.657C80.5452 106.486 80.4581 106.265 80.4542 106.035L80.0764 79.7747C80.0753 79.7004 80.0481 79.6289 79.9996 79.5726C79.9511 79.5163 79.8843 79.4788 79.811 79.4668C79.7376 79.4547 79.6624 79.4689 79.5984 79.5067C79.5345 79.5445 79.4858 79.6036 79.461 79.6737L76.6636 87.5724L76.8636 102.378C76.867 102.622 76.7761 102.858 76.6098 103.037C76.4434 103.217 76.2145 103.325 75.9705 103.339L73.3382 103.451C73.0974 103.465 72.8604 103.387 72.6745 103.233C72.4887 103.079 72.3679 102.861 72.3362 102.622L70.9613 85.8739L70.9604 85.8634L73.0465 68.3721L88.7139 69.5056L84.3647 106.37C84.3371 106.601 84.226 106.814 84.0522 106.968C83.8784 107.123 83.654 107.209 83.4214 107.209C83.3841 107.209 83.3468 107.207 83.3098 107.202Z" fill="#2F2E41"/>
<path d="M73.1133 69.9226C72.9726 69.8476 72.8533 69.7381 72.7663 69.6045C72.6794 69.4709 72.6277 69.3175 72.616 69.1585C72.616 69.1585 74.0249 60.397 74.5411 60.2327L73.4115 50.8632C73.2762 49.7204 73.3706 48.5622 73.689 47.4563C74.0074 46.3505 74.5436 45.3195 75.266 44.4237C75.9616 43.5547 76.8261 42.8356 77.8073 42.3099C78.7886 41.7842 79.8661 41.4628 80.975 41.365C81.1329 41.3508 81.2899 41.3399 81.4461 41.3325C82.7828 41.2609 84.117 41.5131 85.3353 42.0676C86.5536 42.6222 87.6201 43.4627 88.4439 44.5178C89.2985 45.5818 89.8834 46.8366 90.1489 48.1753C90.4144 49.514 90.3525 50.897 89.9687 52.2067L89.3351 54.4115V69.8197C89.3345 69.9701 89.2985 70.1182 89.2303 70.2522C89.162 70.3862 89.0632 70.5024 88.9419 70.5913C86.9691 72.0391 84.7397 72.5511 82.5731 72.5511C78.4736 72.5511 74.5989 70.7179 73.1133 69.9226Z" fill="#FF9C00"/>
<path d="M60.9505 67.1031L58.2255 65.0654C58.1186 64.9855 58.0298 64.8839 57.9647 64.7674C57.8997 64.6508 57.8599 64.5219 57.848 64.3889C57.8361 64.256 57.8524 64.122 57.8957 63.9958C57.939 63.8695 58.0085 63.7538 58.0995 63.6562L74.3328 46.2378C74.8539 45.6835 75.5565 45.3345 76.313 45.254C77.0695 45.1736 77.8297 45.3671 78.4557 45.7994L78.4557 45.7995C78.8372 46.0654 79.1553 46.4121 79.3874 46.815C79.6196 47.2178 79.7601 47.6669 79.7989 48.1302C79.8377 48.5936 79.7739 49.0598 79.612 49.4956C79.4502 49.9315 79.1942 50.3263 78.8624 50.652L62.1853 67.0203C62.0388 67.1655 61.8488 67.2587 61.6442 67.2857C61.4397 67.3128 61.232 67.2721 61.0528 67.1699C61.0173 67.1498 60.9832 67.1275 60.9505 67.1031Z" fill="#FF9C00"/>
<path d="M81.8062 64.7967C81.9253 64.51 82.1058 64.2529 82.335 64.0435C82.5643 63.8341 82.8366 63.6775 83.1329 63.5847C83.4292 63.4919 83.7423 63.4653 84.05 63.5066C84.3577 63.5479 84.6526 63.6561 84.914 63.8238L90.8458 59.1576L91.1731 63.0658L85.4899 66.8977C85.1793 67.3181 84.7252 67.6099 84.2137 67.7179C83.7022 67.8258 83.1689 67.7424 82.7149 67.4834C82.2608 67.2245 81.9175 66.8079 81.75 66.3127C81.5825 65.8176 81.6025 65.2781 81.8062 64.7967Z" fill="#FFB8B8"/>
<path d="M87.1153 66.6184C86.9583 66.5696 86.8168 66.4806 86.7048 66.3602C86.5928 66.2398 86.5142 66.0923 86.4769 65.9322L85.8777 63.4155C85.8338 63.2369 85.8434 63.0492 85.9054 62.876C85.9673 62.7028 86.0789 62.5516 86.2262 62.4414L90.2578 58.0813L84.3276 48.9373C83.8788 48.3846 83.6258 47.6988 83.6082 46.987C83.5905 46.2753 83.8092 45.5778 84.2301 45.0035C84.5656 44.5459 85.0161 44.1852 85.5359 43.9578C86.0558 43.7304 86.6265 43.6445 87.1902 43.7087C87.754 43.7729 88.2907 43.9849 88.7461 44.3233C89.2015 44.6618 89.5594 45.1146 89.7835 45.6359L95.2966 56.367C95.8447 57.4331 95.9814 58.6637 95.6807 59.8241C95.38 60.9846 94.6628 61.9938 93.6659 62.6596L88.0319 66.4232C87.8593 66.5776 87.636 66.6631 87.4045 66.6633C87.3064 66.6632 87.2089 66.648 87.1153 66.6184Z" fill="#FF9C00"/>
<path d="M86.1694 39.5164C86.0471 39.5898 85.9097 39.634 85.7676 39.6457C85.6255 39.6574 85.4827 39.6363 85.3501 39.5839C85.2175 39.5315 85.0987 39.4493 85.003 39.3437C84.9073 39.2381 84.8371 39.1118 84.798 38.9747L84.7948 38.9618C84.6891 38.5302 84.7725 38.0785 84.7998 37.635C84.8271 37.1915 84.7811 36.7047 84.4774 36.3803C83.9113 35.7757 82.9116 36.1032 82.0969 35.9539C81.6196 35.85 81.1965 35.5758 80.9068 35.1825C80.617 34.7892 80.4806 34.3038 80.5229 33.8172C80.534 33.725 80.5517 33.6326 80.5716 33.5403C80.6212 33.3064 80.616 33.0642 80.5563 32.8327C80.4966 32.6012 80.384 32.3867 80.2275 32.206C80.0709 32.0253 79.8746 31.8833 79.6539 31.7913C79.4333 31.6992 79.1943 31.6596 78.9557 31.6754C78.1334 31.7269 77.2469 31.9808 76.5631 31.3752C76.3123 31.1363 76.1375 30.8287 76.0604 30.491C75.9833 30.1533 76.0073 29.8004 76.1295 29.4762C76.5121 28.3525 77.6072 27.7594 78.6923 27.4308C80.0344 27.0352 81.4478 26.9437 82.8297 27.1629C84.2116 27.382 85.5273 27.9064 86.6812 28.6978C87.3702 29.178 88.0146 29.7826 88.3114 30.5683C88.6082 31.354 88.4723 32.3479 87.8154 32.8712C88.3297 33.4099 88.6934 34.0743 88.87 34.7979C89.0466 35.5215 89.03 36.2788 88.8218 36.9939C88.5016 38.0457 86.9517 39.0607 86.1694 39.5164Z" fill="#2F2E41"/>
<path d="M91.8499 111.935H60.8037C60.7477 111.935 60.694 111.913 60.6544 111.873C60.6148 111.834 60.5925 111.78 60.5925 111.724C60.5925 111.668 60.6148 111.614 60.6544 111.575C60.694 111.535 60.7477 111.513 60.8037 111.513H91.8499C91.9665 111.513 91.9445 111.724 92.0611 111.724C92.1135 111.724 91.9665 111.935 91.8499 111.935Z" fill="#CCCCCC"/>
<path d="M57.7229 24.8863C57.5441 24.3914 57.2173 23.9635 56.7869 23.6608C56.3564 23.3581 55.8432 23.1954 55.3169 23.1946H2.55639C1.87866 23.1943 1.22857 23.4633 0.749159 23.9423C0.269744 24.4214 0.000262652 25.0713 0 25.749V66.2387C0.000959849 66.9164 0.270603 67.5661 0.74981 68.0453C1.22902 68.5245 1.87869 68.7941 2.55639 68.7951H55.3169C55.9946 68.7941 56.6443 68.5245 57.1235 68.0453C57.6027 67.5661 57.8723 66.9164 57.8733 66.2387V25.751C57.8738 25.4562 57.8229 25.1636 57.7229 24.8863Z" fill="white"/>
<path d="M57.7229 24.8863C57.5441 24.3914 57.2173 23.9635 56.7869 23.6608C56.3564 23.3581 55.8432 23.1954 55.3169 23.1946H2.55639C1.87866 23.1943 1.22857 23.4633 0.749159 23.9423C0.269744 24.4214 0.000262652 25.0713 0 25.749V66.2387C0.000959849 66.9164 0.270603 67.5661 0.74981 68.0453C1.22902 68.5245 1.87869 68.7941 2.55639 68.7951H55.3169C55.9946 68.7941 56.6443 68.5245 57.1235 68.0453C57.6027 67.5661 57.8723 66.9164 57.8733 66.2387V25.751C57.8738 25.4562 57.8229 25.1636 57.7229 24.8863ZM57.5726 66.2387C57.5718 66.8367 57.334 67.41 56.9111 67.8329C56.4882 68.2557 55.9149 68.4936 55.3169 68.4944H2.55639C1.95838 68.4936 1.38508 68.2557 0.962227 67.8329C0.539374 67.41 0.301496 66.8367 0.300768 66.2387V25.751C0.301496 25.153 0.539375 24.5797 0.96223 24.1568C1.38509 23.7339 1.95839 23.4961 2.5564 23.4953H55.3169C55.9149 23.4961 56.4882 23.734 56.9111 24.1568C57.334 24.5797 57.5718 25.153 57.5726 25.751V66.2387Z" fill="#3F3D56"/>
<path d="M53.8041 28.6427V56.914C53.8042 57.1027 53.7293 57.2837 53.5959 57.4172C53.4625 57.5507 53.2816 57.6257 53.0928 57.6258H5.09996C5.06579 57.6261 5.03167 57.6234 4.99795 57.6179C4.82866 57.5935 4.67382 57.5089 4.56183 57.3797C4.44983 57.2504 4.38819 57.0851 4.38818 56.914V28.6427C4.38815 28.5492 4.40652 28.4567 4.44225 28.3704C4.47798 28.284 4.53037 28.2056 4.59642 28.1395C4.66247 28.0734 4.74089 28.0209 4.8272 27.9852C4.91352 27.9494 5.00604 27.9309 5.09948 27.9309H53.0923C53.1858 27.9309 53.2783 27.9493 53.3646 27.985C53.451 28.0207 53.5294 28.0731 53.5955 28.1391C53.6616 28.2052 53.7141 28.2836 53.7499 28.3699C53.7856 28.4562 53.8041 28.5487 53.8041 28.6422V28.6427Z" fill="#E6E6E6"/>
<path d="M16.4859 44.7405C19.9346 44.7405 22.7303 41.9447 22.7303 38.496C22.7303 35.0473 19.9346 32.2516 16.4859 32.2516C13.0372 32.2516 10.2415 35.0473 10.2415 38.496C10.2415 41.9447 13.0372 44.7405 16.4859 44.7405Z" fill="#FF9C00"/>
<path d="M36.0676 57.7391H5.43429C5.39594 57.7396 5.35762 57.7365 5.31982 57.73L19.808 32.6344C19.8964 32.4781 20.0247 32.3481 20.1799 32.2576C20.335 32.1672 20.5113 32.1195 20.6909 32.1195C20.8705 32.1195 21.0468 32.1672 21.202 32.2576C21.3571 32.3481 21.4854 32.4781 21.5738 32.6344L31.2972 49.4755L31.763 50.2814L36.0676 57.7391Z" fill="#3F3D56"/>
<path opacity="0.2" d="M36.0676 57.7392H25.6086L30.7429 50.2813L31.1125 49.7442L31.2973 49.4756L31.763 50.2813L36.0676 57.7392Z" fill="black"/>
<path d="M53.1242 57.739H26.6289L31.7632 50.2813L32.1327 49.7441L38.8231 40.0253C39.2617 39.3883 40.3169 39.3486 40.8326 39.9051C40.8672 39.9431 40.8994 39.9832 40.9289 40.0253L53.1242 57.739Z" fill="#3F3D56"/>
</g>
<defs>
<clipPath id="clip0_773_379">
<rect width="150" height="111.935" fill="white"/>
</clipPath>
</defs>
</svg>
