<svg width="332" height="332" viewBox="0 0 332 332" fill="none" xmlns="http://www.w3.org/2000/svg">
<g filter="url(#filter0_dd_807_1097)">
<rect x="16" y="6" width="300" height="300" rx="20" fill="white"/>
</g>
<g clip-path="url(#clip0_807_1097)">
<path d="M262.146 202.458H112.084C111.06 202.457 110.078 202.049 109.354 201.325C108.629 200.601 108.222 199.619 108.221 198.594V106.063C108.222 105.313 108.52 104.594 109.051 104.063C109.581 103.532 110.301 103.234 111.051 103.233H263.13C263.893 103.234 264.625 103.537 265.165 104.077C265.705 104.617 266.009 105.349 266.009 106.112V198.594C266.008 199.619 265.601 200.601 264.876 201.325C264.152 202.049 263.17 202.457 262.146 202.458Z" fill="#F2F2F2"/>
<path d="M256.672 196.986H116.819C114.768 196.986 113.101 195.424 113.101 193.505V112.928C113.101 111.504 114.336 110.346 115.856 110.346H257.589C259.133 110.346 260.39 111.523 260.39 112.97V193.505C260.39 195.424 258.722 196.986 256.672 196.986Z" fill="white"/>
<path d="M265.955 105.842H108.166V103.875C108.167 102.848 108.577 101.862 109.304 101.136C110.031 100.409 111.016 100.001 112.044 100H262.077C263.105 100.001 264.091 100.409 264.818 101.136C265.545 101.862 265.954 102.848 265.955 103.875V105.842Z" fill="#E6E6E6"/>
<path d="M115.213 103.93C115.767 103.93 116.216 103.481 116.216 102.927C116.216 102.373 115.767 101.924 115.213 101.924C114.659 101.924 114.21 102.373 114.21 102.927C114.21 103.481 114.659 103.93 115.213 103.93Z" fill="white"/>
<path d="M119.021 103.93C119.575 103.93 120.024 103.481 120.024 102.927C120.024 102.373 119.575 101.924 119.021 101.924C118.467 101.924 118.018 102.373 118.018 102.927C118.018 103.481 118.467 103.93 119.021 103.93Z" fill="white"/>
<path d="M122.828 103.93C123.382 103.93 123.831 103.481 123.831 102.927C123.831 102.373 123.382 101.924 122.828 101.924C122.274 101.924 121.825 102.373 121.825 102.927C121.825 103.481 122.274 103.93 122.828 103.93Z" fill="white"/>
<path d="M175.661 174.336H250.555C251.549 174.336 252.502 173.942 253.205 173.239C253.907 172.537 254.302 171.584 254.302 170.59V136.742C254.302 135.748 253.907 134.795 253.205 134.093C252.502 133.39 251.549 132.995 250.555 132.995H175.661C174.667 132.995 173.714 133.39 173.011 134.093C172.309 134.795 171.914 135.748 171.914 136.742V170.59C171.914 171.584 172.309 172.537 173.011 173.239C173.714 173.942 174.667 174.336 175.661 174.336Z" fill="#F2F2F2"/>
<path d="M242.379 155.539H182.667C182.17 155.539 181.694 155.342 181.343 154.991C180.991 154.639 180.794 154.163 180.794 153.666C180.794 153.169 180.991 152.693 181.343 152.341C181.694 151.99 182.17 151.793 182.667 151.793H242.379C242.876 151.793 243.352 151.99 243.704 152.341C244.055 152.693 244.252 153.169 244.252 153.666C244.252 154.163 244.055 154.639 243.704 154.991C243.352 155.342 242.876 155.539 242.379 155.539Z" fill="white"/>
<path d="M242.379 163.501H182.667C182.17 163.501 181.694 163.303 181.343 162.952C180.991 162.601 180.794 162.124 180.794 161.627C180.794 161.131 180.991 160.654 181.343 160.303C181.694 159.952 182.17 159.754 182.667 159.754H242.379C242.876 159.754 243.352 159.952 243.704 160.303C244.055 160.654 244.252 161.131 244.252 161.627C244.252 162.124 244.055 162.601 243.704 162.952C243.352 163.303 242.876 163.501 242.379 163.501Z" fill="white"/>
<path d="M231.842 147.578H182.667C182.17 147.578 181.694 147.38 181.343 147.029C180.991 146.678 180.794 146.201 180.794 145.704C180.794 145.208 180.991 144.731 181.343 144.38C181.694 144.028 182.17 143.831 182.667 143.831H231.842C232.339 143.831 232.815 144.028 233.166 144.38C233.518 144.731 233.715 145.208 233.715 145.704C233.715 146.201 233.518 146.678 233.166 147.029C232.815 147.38 232.339 147.578 231.842 147.578Z" fill="white"/>
<path d="M138.881 189.492C138.966 189.085 139.14 188.701 139.389 188.368C139.638 188.035 139.958 187.761 140.324 187.564C140.691 187.368 141.097 187.254 141.512 187.232C141.927 187.209 142.343 187.278 142.729 187.433L149.368 179.804L150.779 184.866L144.257 191.335C143.954 191.966 143.429 192.464 142.783 192.734C142.137 193.005 141.414 193.029 140.751 192.801C140.088 192.574 139.532 192.112 139.187 191.502C138.843 190.892 138.734 190.177 138.882 189.492H138.881Z" fill="#FFB8B8"/>
<path d="M175.321 153.691C179.16 153.691 182.273 150.579 182.273 146.74C182.273 142.901 179.16 139.789 175.321 139.789C171.482 139.789 168.37 142.901 168.37 146.74C168.37 150.579 171.482 153.691 175.321 153.691Z" fill="#FFB8B8"/>
<path d="M167.156 242.421L163.686 242.421L162.035 229.037L167.156 229.038L167.156 242.421Z" fill="#FFB8B8"/>
<path d="M168.04 245.784L156.853 245.784V245.642C156.853 245.071 156.965 244.504 157.184 243.976C157.403 243.448 157.724 242.968 158.128 242.563C158.532 242.159 159.012 241.838 159.541 241.619C160.069 241.4 160.635 241.288 161.207 241.288H161.207L168.041 241.288L168.04 245.784Z" fill="#2F2E41"/>
<path d="M177.627 246.1L174.157 246.1L173.677 233.036L177.627 232.717L177.627 246.1Z" fill="#FFB8B8"/>
<path d="M178.512 249.464L167.324 249.463V249.322C167.324 248.75 167.437 248.184 167.656 247.655C167.875 247.127 168.195 246.647 168.6 246.243C169.004 245.838 169.484 245.517 170.012 245.299C170.541 245.08 171.107 244.967 171.679 244.967H171.679L178.512 244.967L178.512 249.464Z" fill="#2F2E41"/>
<path d="M176.64 243.658L173.938 243.34C173.631 243.303 173.349 243.156 173.142 242.927C172.935 242.698 172.818 242.402 172.813 242.093L172.307 206.903C172.305 206.803 172.269 206.708 172.204 206.632C172.139 206.557 172.049 206.507 171.951 206.49C171.853 206.474 171.752 206.493 171.666 206.544C171.581 206.595 171.515 206.674 171.482 206.768L167.733 217.352L168.001 237.192C168.006 237.52 167.884 237.837 167.661 238.077C167.438 238.317 167.132 238.461 166.805 238.481L163.277 238.631C162.954 238.649 162.637 238.545 162.388 238.339C162.139 238.133 161.977 237.84 161.934 237.52L160.092 215.076L160.091 215.062L162.886 191.623L183.881 193.142L178.053 242.542C178.016 242.852 177.867 243.137 177.635 243.344C177.402 243.551 177.101 243.666 176.789 243.667C176.739 243.667 176.689 243.664 176.64 243.658Z" fill="#2F2E41"/>
<path d="M162.976 193.701C162.788 193.6 162.628 193.453 162.511 193.274C162.395 193.095 162.325 192.89 162.31 192.677C162.31 192.677 164.198 180.936 164.889 180.715L163.376 168.16C163.194 166.628 163.321 165.076 163.748 163.594C164.174 162.113 164.893 160.731 165.861 159.53C166.793 158.366 167.951 157.402 169.266 156.698C170.581 155.993 172.025 155.563 173.511 155.432C173.723 155.413 173.933 155.398 174.142 155.388C175.934 155.292 177.722 155.63 179.354 156.373C180.987 157.116 182.416 158.243 183.52 159.657C184.665 161.082 185.449 162.764 185.805 164.558C186.161 166.352 186.078 168.205 185.563 169.96L184.714 172.915V193.563C184.713 193.764 184.665 193.963 184.574 194.142C184.482 194.322 184.35 194.477 184.187 194.597C181.544 196.537 178.556 197.223 175.653 197.223C170.159 197.223 164.967 194.766 162.976 193.701Z" fill="#FF9C00"/>
<path d="M146.677 189.922L143.026 187.192C142.882 187.084 142.763 186.948 142.676 186.792C142.589 186.636 142.536 186.463 142.52 186.285C142.504 186.107 142.526 185.927 142.584 185.758C142.642 185.589 142.735 185.434 142.857 185.303L164.61 161.961C165.309 161.219 166.25 160.751 167.264 160.643C168.278 160.535 169.296 160.795 170.135 161.374L170.135 161.374C170.646 161.73 171.073 162.195 171.384 162.735C171.695 163.275 171.883 163.877 171.935 164.497C171.987 165.118 171.902 165.743 171.685 166.327C171.468 166.911 171.125 167.44 170.68 167.877L148.332 189.811C148.136 190.006 147.881 190.131 147.607 190.167C147.333 190.203 147.054 190.149 146.814 190.012C146.767 189.985 146.721 189.955 146.677 189.922Z" fill="#FF9C00"/>
<path d="M174.626 186.832C174.785 186.447 175.027 186.103 175.334 185.822C175.641 185.542 176.006 185.332 176.403 185.207C176.8 185.083 177.22 185.047 177.632 185.103C178.045 185.158 178.44 185.303 178.79 185.528L186.739 179.275L187.178 184.512L179.562 189.647C179.146 190.21 178.537 190.601 177.852 190.746C177.166 190.891 176.452 190.779 175.843 190.432C175.235 190.085 174.775 189.527 174.55 188.863C174.326 188.2 174.353 187.477 174.626 186.832Z" fill="#FFB8B8"/>
<path d="M181.74 189.273C181.53 189.207 181.34 189.088 181.19 188.927C181.04 188.765 180.935 188.568 180.885 188.353L180.082 184.981C180.023 184.741 180.036 184.49 180.119 184.258C180.202 184.026 180.351 183.823 180.549 183.675L185.951 177.832L178.005 165.579C177.403 164.838 177.064 163.919 177.04 162.965C177.017 162.012 177.31 161.077 177.874 160.307C178.323 159.694 178.927 159.211 179.624 158.906C180.32 158.601 181.085 158.486 181.841 158.572C182.596 158.658 183.315 158.942 183.926 159.396C184.536 159.85 185.015 160.456 185.316 161.155L192.704 175.535C193.438 176.964 193.621 178.613 193.218 180.168C192.815 181.723 191.854 183.075 190.518 183.968L182.968 189.011C182.737 189.218 182.438 189.333 182.128 189.333C181.996 189.333 181.866 189.312 181.74 189.273Z" fill="#FF9C00"/>
<path d="M180.472 152.954C180.308 153.053 180.124 153.112 179.934 153.128C179.743 153.143 179.552 153.115 179.374 153.045C179.197 152.975 179.037 152.865 178.909 152.723C178.781 152.581 178.687 152.412 178.635 152.229L178.63 152.211C178.489 151.633 178.6 151.027 178.637 150.433C178.673 149.839 178.612 149.186 178.205 148.752C177.446 147.942 176.107 148.38 175.015 148.18C174.375 148.041 173.808 147.674 173.42 147.147C173.032 146.62 172.849 145.969 172.906 145.317C172.92 145.194 172.944 145.07 172.971 144.946C173.037 144.633 173.03 144.308 172.95 143.998C172.87 143.688 172.719 143.4 172.51 143.158C172.3 142.916 172.037 142.726 171.741 142.602C171.445 142.479 171.125 142.426 170.805 142.447C169.704 142.516 168.516 142.856 167.599 142.045C167.263 141.724 167.029 141.312 166.926 140.86C166.822 140.407 166.854 139.934 167.018 139.5C167.531 137.994 168.998 137.199 170.453 136.759C172.251 136.229 174.145 136.106 175.997 136.4C177.849 136.694 179.612 137.396 181.158 138.457C182.081 139.1 182.945 139.91 183.343 140.963C183.74 142.016 183.558 143.348 182.678 144.049C183.367 144.771 183.854 145.662 184.091 146.631C184.328 147.601 184.306 148.616 184.027 149.574C183.597 150.984 181.521 152.344 180.472 152.954Z" fill="#2F2E41"/>
<path d="M188.084 250H146.48C146.405 250 146.333 249.97 146.28 249.917C146.227 249.864 146.197 249.792 146.197 249.717C146.197 249.642 146.227 249.57 146.28 249.517C146.333 249.464 146.405 249.434 146.48 249.434H188.084C188.24 249.434 188.211 249.717 188.367 249.717C188.437 249.717 188.24 250 188.084 250Z" fill="#CCCCCC"/>
<path d="M142.352 133.349C142.113 132.686 141.675 132.113 141.098 131.707C140.521 131.301 139.833 131.083 139.128 131.082H68.4257C67.5175 131.082 66.6464 131.442 66.0039 132.084C65.3615 132.726 65.0004 133.597 65 134.505V188.764C65.0013 189.672 65.3626 190.543 66.0048 191.185C66.647 191.827 67.5176 192.188 68.4257 192.19H139.128C140.036 192.188 140.907 191.827 141.549 191.185C142.191 190.543 142.552 189.672 142.554 188.764V134.508C142.554 134.113 142.486 133.721 142.352 133.349Z" fill="white"/>
<path d="M142.352 133.349C142.113 132.686 141.675 132.113 141.098 131.707C140.521 131.301 139.833 131.083 139.128 131.082H68.4257C67.5175 131.082 66.6464 131.442 66.0039 132.084C65.3615 132.726 65.0004 133.597 65 134.505V188.764C65.0013 189.672 65.3626 190.543 66.0048 191.185C66.647 191.827 67.5176 192.188 68.4257 192.19H139.128C140.036 192.188 140.907 191.827 141.549 191.185C142.191 190.543 142.552 189.672 142.554 188.764V134.508C142.554 134.113 142.486 133.721 142.352 133.349ZM142.151 188.764C142.15 189.565 141.831 190.334 141.264 190.9C140.698 191.467 139.929 191.786 139.128 191.787H68.4257C67.6244 191.786 66.8561 191.467 66.2894 190.9C65.7228 190.334 65.404 189.565 65.403 188.764V134.508C65.404 133.707 65.7228 132.938 66.2894 132.372C66.8561 131.805 67.6244 131.486 68.4257 131.485H139.128C139.929 131.486 140.698 131.805 141.264 132.372C141.831 132.938 142.15 133.707 142.151 134.508V188.764Z" fill="#3F3D56"/>
<path d="M137.101 138.383V176.268C137.101 176.521 137.001 176.764 136.822 176.943C136.643 177.121 136.401 177.222 136.148 177.222H71.8347C71.7889 177.222 71.7432 177.219 71.698 177.211C71.4711 177.179 71.2636 177.065 71.1136 176.892C70.9635 176.719 70.8809 176.497 70.8809 176.268V138.383C70.8808 138.258 70.9054 138.134 70.9533 138.018C71.0012 137.902 71.0714 137.797 71.1599 137.709C71.2484 137.62 71.3535 137.55 71.4692 137.502C71.5848 137.454 71.7088 137.429 71.834 137.429H136.147C136.273 137.429 136.397 137.454 136.512 137.502C136.628 137.549 136.733 137.62 136.822 137.708C136.91 137.797 136.981 137.902 137.029 138.017C137.076 138.133 137.101 138.257 137.101 138.382V138.383Z" fill="#E6E6E6"/>
<path d="M87.0925 159.955C91.714 159.955 95.4605 156.209 95.4605 151.587C95.4605 146.966 91.714 143.219 87.0925 143.219C82.4711 143.219 78.7246 146.966 78.7246 151.587C78.7246 156.209 82.4711 159.955 87.0925 159.955Z" fill="#FF9C00"/>
<path d="M113.333 177.374H72.2823C72.2309 177.375 72.1796 177.37 72.1289 177.362L91.5439 143.732C91.6624 143.523 91.8344 143.348 92.0422 143.227C92.2501 143.106 92.4865 143.042 92.7271 143.042C92.9677 143.042 93.2041 143.106 93.4119 143.227C93.6198 143.348 93.7918 143.523 93.9102 143.732L106.94 166.3L107.564 167.38L113.333 177.374Z" fill="#3F3D56"/>
<path opacity="0.2" d="M113.333 177.374H99.3174L106.198 167.38L106.693 166.66L106.94 166.3L107.565 167.38L113.333 177.374Z" fill="black"/>
<path d="M136.19 177.374H100.685L107.565 167.38L108.06 166.66L117.026 153.636C117.613 152.783 119.027 152.73 119.718 153.475C119.765 153.526 119.808 153.58 119.847 153.636L136.19 177.374Z" fill="#3F3D56"/>
</g>
<defs>
<filter id="filter0_dd_807_1097" x="0" y="0" width="332" height="332" filterUnits="userSpaceOnUse" color-interpolation-filters="sRGB">
<feFlood flood-opacity="0" result="BackgroundImageFix"/>
<feColorMatrix in="SourceAlpha" type="matrix" values="0 0 0 0 0 0 0 0 0 0 0 0 0 0 0 0 0 0 127 0" result="hardAlpha"/>
<feOffset dy="10"/>
<feGaussianBlur stdDeviation="8"/>
<feColorMatrix type="matrix" values="0 0 0 0 0.0784314 0 0 0 0 0.145098 0 0 0 0 0.247059 0 0 0 0.06 0"/>
<feBlend mode="normal" in2="BackgroundImageFix" result="effect1_dropShadow_807_1097"/>
<feColorMatrix in="SourceAlpha" type="matrix" values="0 0 0 0 0 0 0 0 0 0 0 0 0 0 0 0 0 0 127 0" result="hardAlpha"/>
<feOffset/>
<feGaussianBlur stdDeviation="0.5"/>
<feColorMatrix type="matrix" values="0 0 0 0 0.0470588 0 0 0 0 0.101961 0 0 0 0 0.294118 0 0 0 0.1 0"/>
<feBlend mode="normal" in2="effect1_dropShadow_807_1097" result="effect2_dropShadow_807_1097"/>
<feBlend mode="normal" in="SourceGraphic" in2="effect2_dropShadow_807_1097" result="shape"/>
</filter>
<clipPath id="clip0_807_1097">
<rect width="201.009" height="150" fill="white" transform="translate(65 100)"/>
</clipPath>
</defs>
</svg>
