<svg width="148" height="148" viewBox="0 0 148 148" fill="none" xmlns="http://www.w3.org/2000/svg">
<g filter="url(#filter0_d_537_816)">
<circle cx="69" cy="64" r="42" fill="white"/>
</g>
<path d="M81.0609 56.6666H82.8752C83.7813 56.6666 84.6504 57.0266 85.2911 57.6673C85.9319 58.3081 86.2918 59.1771 86.2918 60.0833V66.9166C86.2918 67.8228 85.9319 68.6918 85.2911 69.3326C84.6504 69.9733 83.7813 70.3333 82.8752 70.3333H81.0609C80.6444 73.636 79.037 76.6732 76.5402 78.8749C74.0435 81.0767 70.829 82.2915 67.5002 82.2916V78.8749C70.2186 78.8749 72.8258 77.795 74.748 75.8728C76.6703 73.9505 77.7502 71.3434 77.7502 68.6249V58.3749C77.7502 55.6565 76.6703 53.0493 74.748 51.1271C72.8258 49.2048 70.2186 48.1249 67.5002 48.1249C64.7817 48.1249 62.1746 49.2048 60.2523 51.1271C58.3301 53.0493 57.2502 55.6565 57.2502 58.3749V70.3333H52.1252C51.219 70.3333 50.35 69.9733 49.7092 69.3326C49.0685 68.6918 48.7085 67.8228 48.7085 66.9166V60.0833C48.7085 59.1771 49.0685 58.3081 49.7092 57.6673C50.35 57.0266 51.219 56.6666 52.1252 56.6666H53.9394C54.3563 53.3642 55.9639 50.3274 58.4606 48.1261C60.9574 45.9247 64.1716 44.7101 67.5002 44.7101C70.8288 44.7101 74.043 45.9247 76.5397 48.1261C79.0364 50.3274 80.644 53.3642 81.0609 56.6666ZM52.1252 60.0833V66.9166H53.8335V60.0833H52.1252ZM81.1668 60.0833V66.9166H82.8752V60.0833H81.1668ZM60.2568 69.966L62.0677 67.0686C63.6958 68.0886 65.5789 68.628 67.5002 68.6249C69.4214 68.628 71.3045 68.0886 72.9327 67.0686L74.7435 69.966C72.5726 71.3261 70.0619 72.0455 67.5002 72.0416C64.9384 72.0455 62.4277 71.3261 60.2568 69.966Z" fill="#D170FF"/>
<defs>
<filter id="filter0_d_537_816" x="0" y="0" width="148" height="148" filterUnits="userSpaceOnUse" color-interpolation-filters="sRGB">
<feFlood flood-opacity="0" result="BackgroundImageFix"/>
<feColorMatrix in="SourceAlpha" type="matrix" values="0 0 0 0 0 0 0 0 0 0 0 0 0 0 0 0 0 0 127 0" result="hardAlpha"/>
<feOffset dx="5" dy="10"/>
<feGaussianBlur stdDeviation="16"/>
<feComposite in2="hardAlpha" operator="out"/>
<feColorMatrix type="matrix" values="0 0 0 0 0.758333 0 0 0 0 0.758333 0 0 0 0 0.758333 0 0 0 0.25 0"/>
<feBlend mode="normal" in2="BackgroundImageFix" result="effect1_dropShadow_537_816"/>
<feBlend mode="normal" in="SourceGraphic" in2="effect1_dropShadow_537_816" result="shape"/>
</filter>
</defs>
</svg>
