<svg width="49" height="49" viewBox="0 0 49 49" fill="none" xmlns="http://www.w3.org/2000/svg">
<circle cx="24.5" cy="24.5" r="24.5" fill="#ff9c00"/>
<path d="M24.5046 18.8848C21.3992 18.8848 18.8943 21.3896 18.8943 24.4951C18.8943 27.6006 21.3992 30.1055 24.5046 30.1055C27.6101 30.1055 30.115 27.6006 30.115 24.4951C30.115 21.3896 27.6101 18.8848 24.5046 18.8848ZM24.5046 28.1426C22.4978 28.1426 20.8572 26.5068 20.8572 24.4951C20.8572 22.4834 22.4929 20.8477 24.5046 20.8477C26.5164 20.8477 28.1521 22.4834 28.1521 24.4951C28.1521 26.5068 26.5115 28.1426 24.5046 28.1426V28.1426ZM31.6531 18.6553C31.6531 19.3828 31.0671 19.9639 30.3445 19.9639C29.6169 19.9639 29.0359 19.3779 29.0359 18.6553C29.0359 17.9326 29.6218 17.3467 30.3445 17.3467C31.0671 17.3467 31.6531 17.9326 31.6531 18.6553ZM35.3689 19.9834C35.2859 18.2305 34.8855 16.6777 33.6013 15.3984C32.322 14.1191 30.7693 13.7187 29.0164 13.6309C27.2097 13.5283 21.7947 13.5283 19.988 13.6309C18.24 13.7139 16.6873 14.1143 15.4031 15.3936C14.1189 16.6729 13.7234 18.2256 13.6355 19.9785C13.533 21.7852 13.533 27.2002 13.6355 29.0068C13.7185 30.7598 14.1189 32.3125 15.4031 33.5918C16.6873 34.8711 18.2351 35.2715 19.988 35.3594C21.7947 35.4619 27.2097 35.4619 29.0164 35.3594C30.7693 35.2764 32.322 34.876 33.6013 33.5918C34.8806 32.3125 35.281 30.7598 35.3689 29.0068C35.4714 27.2002 35.4714 21.79 35.3689 19.9834V19.9834ZM33.0349 30.9453C32.6541 31.9023 31.9167 32.6396 30.9548 33.0254C29.5144 33.5967 26.0964 33.4648 24.5046 33.4648C22.9128 33.4648 19.49 33.5918 18.0544 33.0254C17.0974 32.6445 16.3601 31.9072 15.9744 30.9453C15.4031 29.5049 15.5349 26.0869 15.5349 24.4951C15.5349 22.9033 15.408 19.4805 15.9744 18.0449C16.3552 17.0879 17.0925 16.3506 18.0544 15.9648C19.4949 15.3936 22.9128 15.5254 24.5046 15.5254C26.0964 15.5254 29.5193 15.3984 30.9548 15.9648C31.9119 16.3457 32.6492 17.083 33.0349 18.0449C33.6062 19.4854 33.4744 22.9033 33.4744 24.4951C33.4744 26.0869 33.6062 29.5098 33.0349 30.9453Z" fill="white"/>
</svg>
