<svg width="49" height="49" viewBox="0 0 49 49" fill="none" xmlns="http://www.w3.org/2000/svg">
<circle cx="24.5" cy="24.5" r="24.5" fill="#ff9c00"/>
<path d="M18.459 33.875H13.9238V19.2705H18.459V33.875ZM16.189 17.2783C14.7388 17.2783 13.5625 16.0771 13.5625 14.627C13.5625 13.9304 13.8392 13.2623 14.3318 12.7698C14.8243 12.2772 15.4924 12.0005 16.189 12.0005C16.8855 12.0005 17.5536 12.2772 18.0462 12.7698C18.5387 13.2623 18.8154 13.9304 18.8154 14.627C18.8154 16.0771 17.6387 17.2783 16.189 17.2783ZM35.4326 33.875H30.9072V26.7656C30.9072 25.0713 30.873 22.8984 28.5493 22.8984C26.1914 22.8984 25.8301 24.7393 25.8301 26.6436V33.875H21.2998V19.2705H25.6494V21.2627H25.7129C26.3184 20.1152 27.7974 18.9043 30.0039 18.9043C34.5938 18.9043 35.4375 21.9268 35.4375 25.8525V33.875H35.4326Z" fill="white"/>
</svg>
