<svg width="150" height="108" viewBox="0 0 150 108" fill="none" xmlns="http://www.w3.org/2000/svg">
<g clip-path="url(#clip0_773_86)">
<path d="M110.053 0.0622559H0.046875V70.5147H110.053V0.0622559Z" fill="#E6E6E6"/>
<path d="M106.907 8.89868H3.19263V66.3467H106.907V8.89868Z" fill="white"/>
<path d="M110.006 0H0V4.6734H110.006V0Z" fill="#FF9C00"/>
<path d="M3.47295 3.25571C3.95137 3.25571 4.33921 2.86787 4.33921 2.38945C4.33921 1.91103 3.95137 1.52319 3.47295 1.52319C2.99453 1.52319 2.60669 1.91103 2.60669 2.38945C2.60669 2.86787 2.99453 3.25571 3.47295 3.25571Z" fill="white"/>
<path d="M6.76079 3.25571C7.23921 3.25571 7.62705 2.86787 7.62705 2.38945C7.62705 1.91103 7.23921 1.52319 6.76079 1.52319C6.28237 1.52319 5.89453 1.91103 5.89453 2.38945C5.89453 2.86787 6.28237 3.25571 6.76079 3.25571Z" fill="white"/>
<path d="M10.0486 3.25571C10.5271 3.25571 10.9149 2.86787 10.9149 2.38945C10.9149 1.91103 10.5271 1.52319 10.0486 1.52319C9.57021 1.52319 9.18237 1.91103 9.18237 2.38945C9.18237 2.86787 9.57021 3.25571 10.0486 3.25571Z" fill="white"/>
<path d="M36.2384 13.624H15.9534V35.6315H36.2384V13.624Z" fill="#E6E6E6"/>
<path d="M65.192 13.624H44.907V35.6315H65.192V13.624Z" fill="#E6E6E6"/>
<path d="M94.1456 13.624H73.8606V35.6315H94.1456V13.624Z" fill="#E6E6E6"/>
<path d="M36.2384 39.6149H15.9534V61.6223H36.2384V39.6149Z" fill="#E6E6E6"/>
<path d="M65.192 39.6149H44.907V61.6223H65.192V39.6149Z" fill="#E6E6E6"/>
<path d="M94.1456 39.6149H73.8606V61.6223H94.1456V39.6149Z" fill="#E6E6E6"/>
<path d="M49.81 45.2709L53.5163 43.8055L53.9473 51.132C53.9473 51.132 54.723 53.373 54.4645 54.2349C54.4645 54.2349 54.6368 55.7003 54.2058 55.7864C53.7748 55.8726 52.5678 56.0451 52.4825 55.9588C52.3972 55.8724 52.3963 55.6139 52.3963 55.6139C52.3963 55.6139 51.5343 56.2173 51.4482 56.9068C51.4482 56.9068 47.828 58.0272 47.7419 56.9929C47.6557 55.9586 49.5518 55.0966 49.5518 55.0966L51.0172 52.8556L49.81 45.2709Z" fill="white"/>
<path d="M57.654 45.2709L61.3598 43.8055L61.7908 51.132C61.7908 51.132 62.5665 53.373 62.308 54.2349C62.308 54.2349 62.4803 55.7003 62.0493 55.7864C61.6183 55.8726 60.4113 56.0451 60.326 55.9588C60.2407 55.8724 60.2398 55.6139 60.2398 55.6139C60.2398 55.6139 59.3778 56.2173 59.2917 56.9068C59.2917 56.9068 55.6715 58.0272 55.5854 56.9929C55.4992 55.9586 57.3954 55.0966 57.3954 55.0966L58.8607 52.8556L57.654 45.2709Z" fill="white"/>
<path d="M58.0159 16.9788C58.0159 16.9788 57.2267 19.184 58.1411 20.1784L57.3788 22.798C57.3788 22.798 60.0872 30.9234 59.3135 32.0584C59.3135 32.0584 56.4245 33.5029 50.6458 31.5425L52.993 22.4368L52.6578 18.5933L53.122 16.7876L54.1538 16.6852C54.1538 16.6852 53.5348 19.0067 54.6698 19.3679C55.8047 19.7291 56.9119 16.7432 56.9119 16.7432L58.0159 16.9788Z" fill="#3F3D56"/>
<path d="M21.5706 31.2135L22.5665 31.621L27.3197 25.3739L28.8136 32.7073L29.8095 32.5263C30.4483 26.2038 30.9697 19.7551 30.3301 16.705L26.6407 16.5465L24.9658 21.8889L24.1509 25.5104L21.5706 31.2135Z" fill="white"/>
<path d="M82.0154 16.655C82.0154 16.655 80.6562 18.5445 80.7226 19.307C80.7889 20.0696 81.6508 32.5009 81.6508 32.5009L83.673 32.6004L83.0758 23.6498L83.573 21.2298L84.7996 32.5009L87.286 32.5673L85.065 17.948L84.634 16.6552L82.0154 16.655Z" fill="white"/>
<path d="M89.6971 47.0954C89.3362 46.6623 88.7158 46.4283 88.1202 46.3017C88.1372 46.2476 86.3085 45.8696 86.2774 45.9474L85.5879 45.3982L83.4693 46.4982L82.2789 45.6877L81.7259 45.884C81.7484 45.7864 80.0092 46.0877 80.0092 46.0877C79.677 46.0996 79.2527 46.1204 78.7776 46.157C77.1142 46.2849 76.9861 50.5932 76.9861 50.5932C77.7514 50.2801 78.5674 50.1092 79.3941 50.089L79.8437 55.2418C82.1562 55.0436 84.5814 55.2743 87.0952 55.839L88.2741 51.7884L91.0192 50.7208C91.0192 50.7208 90.5502 48.119 89.6971 47.0954Z" fill="#3F3D56"/>
<path d="M30.7875 44.6416C30.4901 44.2848 29.9791 44.0918 29.4882 43.9875C29.5029 43.9428 27.9954 43.6316 27.9697 43.6958L27.4015 43.2433L25.6562 44.1496L24.6753 43.482L24.2197 43.6437C24.2383 43.5634 22.8052 43.8115 22.8052 43.8115C22.5322 43.8214 22.1818 43.8384 21.7905 43.8686C20.4199 43.9741 20.3145 47.5236 20.3145 47.5236C20.9451 47.2656 21.6175 47.1248 22.2986 47.1081L22.6691 57.5015C24.5744 57.338 26.5728 57.5283 28.6435 57.9936L29.6147 48.5086L31.8766 47.629C31.8766 47.629 31.4903 45.4853 30.7875 44.6416Z" fill="white"/>
<path d="M127.874 47.4081H137.6V42.2041C137.6 40.9144 137.088 39.6775 136.176 38.7656C135.264 37.8536 134.027 37.3413 132.737 37.3413C131.447 37.3413 130.21 37.8536 129.299 38.7656C128.387 39.6775 127.874 40.9144 127.874 42.2041V47.4081Z" fill="#2F2E41"/>
<path d="M123.533 105.308H121.441L120.446 97.2393H123.533L123.533 105.308Z" fill="#FFB6B6"/>
<path d="M124.066 104.625H119.947C119.25 104.625 118.583 104.902 118.09 105.394C117.598 105.887 117.321 106.554 117.321 107.25V107.336H124.066V104.625Z" fill="#2F2E41"/>
<path d="M148.538 102.517L146.717 103.545L141.883 97.0084L144.572 95.4907L148.538 102.517Z" fill="#FFB6B6"/>
<path d="M148.667 101.66L145.08 103.684C144.474 104.027 144.028 104.596 143.841 105.267C143.655 105.937 143.742 106.655 144.085 107.261L144.126 107.335L150 104.02L148.667 101.66Z" fill="#2F2E41"/>
<path d="M135.169 69.0216L135.331 69.8287C135.331 69.8287 135.815 70.3129 135.573 70.555C135.331 70.7971 135.411 71.9272 135.411 71.9272C135.547 73.9876 138.239 85.5662 138.721 87.8275C138.721 87.8275 142.433 90.2488 145.339 95.0108C148.245 99.7727 148.325 100.983 148.325 100.983L145.097 102.356L137.027 92.5896C137.027 92.5896 134.767 91.2174 133.959 90.0069C133.152 88.7963 128.147 76.2856 128.147 76.2856L125.322 89.3611C125.322 89.3611 125.483 94.123 124.757 97.1902C124.31 99.1257 124.04 101.098 123.95 103.082L120.156 102.679C120.156 102.679 120.398 91.2175 120.802 90.0067C120.802 90.0067 119.107 76.0435 122.497 70.4743L125.229 63.1909L127.905 62.161L135.169 69.0216Z" fill="#2F2E41"/>
<path d="M132.787 38.6134C127.695 38.7004 127.695 46.2756 132.787 46.3618C137.879 46.2748 137.879 38.6996 132.787 38.6134Z" fill="#FFB8B8"/>
<path d="M128.868 42.2866H129.733L129.969 41.6973L129.851 42.2866H134.585L134.432 41.0535L135.582 42.2866H136.73V41.6184C136.73 41.1022 136.629 40.591 136.432 40.114C136.235 39.6369 135.946 39.2034 135.581 38.8381C135.216 38.4728 134.783 38.183 134.306 37.9851C133.829 37.7872 133.318 37.6852 132.802 37.6848C132.286 37.6845 131.775 37.7858 131.298 37.983C130.821 38.1802 130.387 38.4694 130.022 38.8342C129.656 39.1989 129.367 39.632 129.169 40.1088C128.971 40.5856 128.869 41.0967 128.868 41.6129V41.6184L128.868 42.2866Z" fill="#2F2E41"/>
<path d="M127.536 48.624L137.159 48.702L135.126 69.3334C135.126 69.3334 123.872 68.7394 123.865 65.3042L124.919 62.2516L127.536 48.624Z" fill="#3F3D56"/>
<path d="M137.573 71.3277C137.425 71.1465 137.318 70.9351 137.261 70.7084C137.203 70.4817 137.196 70.2451 137.24 70.0154C137.284 69.7857 137.378 69.5684 137.515 69.3788C137.652 69.1892 137.829 69.032 138.033 68.9182L137.615 65.2861L139.76 64.4935L140.279 69.6312C140.446 69.987 140.477 70.3918 140.367 70.7691C140.256 71.1464 140.011 71.4701 139.678 71.679C139.344 71.8878 138.946 71.9674 138.558 71.9027C138.171 71.838 137.82 71.6334 137.573 71.3277Z" fill="#FFB6B6"/>
<path d="M135.894 50.4793L137.16 48.7094C137.16 48.7094 138.026 48.5171 139.05 49.7115C140.074 50.9059 140.671 65.8355 140.671 65.8355L136.917 66.6886L134.699 56.1099L135.894 50.4793Z" fill="#3F3D56"/>
<path d="M114.683 66.6696L114.962 79.9334L123.548 84.4712L139.186 81.6787L139.57 67.8913L129.657 64.4006L114.683 66.6696Z" fill="white"/>
<path d="M123.526 84.6144L114.826 80.017L114.543 66.552L129.67 64.26L129.702 64.2713L139.71 67.7951L139.32 81.794L123.526 84.6144ZM115.097 79.8498L123.571 84.3278L139.052 81.5633L139.43 67.9874L129.643 64.5413L114.822 66.787L115.097 79.8498Z" fill="#CACACA"/>
<path d="M123.357 70.2658L123.323 70.2525L114.632 66.7969L114.733 66.5421L123.391 69.9843L139.551 67.7554L139.589 68.0271L123.357 70.2658Z" fill="#CACACA"/>
<path d="M123.511 70.1234L123.237 70.1267L123.411 84.4727L123.685 84.4694L123.511 70.1234Z" fill="#CACACA"/>
<path d="M122.258 69.5791L119.125 68.309L134.208 65.9058L137.341 67.1757L122.258 69.5791Z" fill="#CACACA"/>
<path d="M114.737 70.5172L114.628 70.769L118.262 72.3335L118.37 72.0816L114.737 70.5172Z" fill="#CACACA"/>
<path d="M116.382 75.0422L116.274 75.2941L119.907 76.8586L120.016 76.6067L116.382 75.0422Z" fill="#FF9C00"/>
<path d="M66.9077 85.097L67.1869 98.3608L75.7735 102.899L91.4109 100.106L91.795 86.3186L81.8819 82.828L66.9077 85.097Z" fill="white"/>
<path d="M75.7512 103.042L67.0515 98.4443L66.7681 84.9794L81.8953 82.6874L81.9275 82.6987L91.9349 86.2224L91.545 100.221L75.7512 103.042ZM67.3223 98.2772L75.7959 102.755L91.2771 99.9907L91.6551 86.4147L81.8687 82.9687L67.0473 85.2144L67.3223 98.2772Z" fill="#CACACA"/>
<path d="M75.5818 88.6932L75.5482 88.6799L66.8569 85.2242L66.9581 84.9695L75.6159 88.4117L91.7761 86.1828L91.8136 86.4544L75.5818 88.6932Z" fill="#CACACA"/>
<path d="M75.7361 88.5507L75.4619 88.5541L75.6364 102.9L75.9107 102.897L75.7361 88.5507Z" fill="#CACACA"/>
<path d="M73.7247 87.6944L71.3506 86.7365L86.4329 84.3333L88.8068 85.2911L73.7247 87.6944Z" fill="#CACACA"/>
<path d="M66.962 88.9446L66.8535 89.1965L70.4872 90.761L70.5956 90.5091L66.962 88.9446Z" fill="#CACACA"/>
<path d="M68.6072 93.4696L68.4988 93.7214L72.1325 95.2859L72.2409 95.0341L68.6072 93.4696Z" fill="#FF9C00"/>
<path d="M81.825 86.9155L82.1491 102.313L92.1168 107.58L110.269 104.339L110.715 88.3337L99.2076 84.2817L81.825 86.9155Z" fill="#FF9C00"/>
<path d="M92.0908 107.747L81.9919 102.41L81.6628 86.7791L99.2231 84.1184L99.2605 84.1316L110.877 88.222L110.425 104.473L92.0908 107.747ZM82.3062 102.216L92.1427 107.414L110.114 104.205L110.553 88.4453L99.1922 84.445L81.987 87.0519L82.3062 102.216Z" fill="#3F3D56"/>
<path d="M91.8944 91.0903L91.8555 91.0748L81.7661 87.0634L81.8837 86.7676L91.934 90.7634L110.693 88.1761L110.737 88.4914L91.8944 91.0903Z" fill="#3F3D56"/>
<path d="M92.0735 90.925L91.7551 90.9288L91.9577 107.582L92.2761 107.578L92.0735 90.925Z" fill="#3F3D56"/>
<path d="M89.8998 89.9381L86.9824 88.8189L104.491 86.0291L107.408 87.1482L89.8998 89.9381Z" fill="#3F3D56"/>
<path d="M81.8879 91.382L81.762 91.6744L85.9801 93.4906L86.106 93.1982L81.8879 91.382Z" fill="#3F3D56"/>
<path d="M83.798 96.6348L83.6721 96.9272L87.8902 98.7434L88.0161 98.451L83.798 96.6348Z" fill="white"/>
<path d="M119.551 68.8627C119.763 68.7634 119.95 68.6188 120.1 68.4392C120.25 68.2596 120.358 68.0493 120.418 67.8232C120.478 67.5971 120.487 67.3606 120.446 67.1305C120.404 66.9003 120.313 66.6821 120.178 66.4911L122.126 63.3977L120.536 61.7549L117.845 66.1619C117.539 66.4101 117.335 66.7617 117.271 67.1502C117.207 67.5388 117.288 67.9372 117.498 68.2701C117.709 68.603 118.034 68.8472 118.412 68.9564C118.79 69.0657 119.196 69.0324 119.551 68.8629V68.8627Z" fill="#FFB6B6"/>
<path d="M129.015 49.4372L127.618 48.5172C127.618 48.5172 126.541 48.7588 125.395 50.9629C124.249 53.1671 119.628 63.0213 119.628 63.0213L121.527 64.9493L126.595 57.2185L129.015 49.4372Z" fill="#3F3D56"/>
</g>
<defs>
<clipPath id="clip0_773_86">
<rect width="150" height="107.747" fill="white"/>
</clipPath>
</defs>
</svg>
