<svg width="150" height="112" viewBox="0 0 150 112" fill="none" xmlns="http://www.w3.org/2000/svg">
<g clip-path="url(#clip0_773_256)">
<path d="M138.19 27.0845C121.165 3.39387 85.2012 -6.21607 49.8319 4.13406C31.1332 9.60587 13.1042 20.5694 4.16947 41.7985C-11.8023 79.7476 21.7325 91.8676 43.6606 95.7304C54.2638 97.5983 64.2503 100.736 73.376 105.008C89.794 112.693 118.855 119.503 140.769 87.49C156.652 64.2869 149.53 42.8648 138.19 27.0845Z" fill="#F2F2F2"/>
<path d="M39.4863 31.7716C39.4387 31.3951 39.3424 31.0263 39.1998 30.6746C39.1816 30.6081 39.1498 30.5461 39.1063 30.4926C39.0629 30.4391 39.0087 30.3952 38.9474 30.3637C38.8654 30.3424 38.7794 30.3414 38.6969 30.3609L37.4109 30.5577C37.3033 30.5626 37.2002 30.6026 37.1175 30.6717C36.95 30.8478 37.1149 31.1315 37.1098 31.3745C37.1041 31.6478 36.8613 31.8696 36.598 31.9429C36.3292 31.9972 36.052 31.9938 35.7847 31.9329L33.9865 31.6534C34.5161 31.4843 34.9874 31.1698 35.3468 30.7456C35.5834 30.4653 35.7093 29.9419 35.3674 29.8092C35.2657 29.7813 35.1598 29.7728 35.055 29.7841C34.2403 29.7905 33.5992 29.1102 32.8365 28.8237C32.3484 28.6522 31.8185 28.6395 31.3227 28.7873C30.8268 28.9351 30.3904 29.2359 30.0759 29.6467L31.0338 29.6929C31.1239 29.6879 31.2133 29.7118 31.2889 29.7609C31.4989 29.9334 31.2379 30.2647 31.2675 30.5348C31.3059 30.8857 31.7718 30.9606 32.123 30.9961C32.4742 31.0316 32.9198 31.317 32.7508 31.6269C30.9856 32.2349 29.1893 30.4383 27.3354 30.6595C26.8662 30.7155 26.4231 30.8998 25.965 31.0157C23.1666 31.7237 20.2736 29.8346 17.4149 30.2347C16.7793 30.343 16.1547 30.5078 15.5484 30.727C15.1594 30.8547 14.7535 30.9928 14.4708 31.289C14.1881 31.5853 14.0805 32.092 14.3483 32.4018C13.6102 32.4626 12.8671 32.3919 12.1536 32.1932C12.3465 32.3004 12.507 32.4576 12.6183 32.6483C12.7295 32.839 12.7874 33.0561 12.7857 33.2768C11.6332 33.4648 10.5111 33.8069 9.4498 34.294C9.64789 34.6234 9.87926 34.9316 10.1403 35.2138L8.68115 36.1512C9.17411 36.2754 9.42898 36.9476 9.14231 37.3674C9.65345 37.14 9.97023 36.5518 10.5168 36.4325C10.8749 36.3544 11.2393 36.5008 11.5789 36.6385C11.9186 36.7761 12.292 36.9095 12.6437 36.8062C12.9953 36.7029 13.2547 36.247 13.0312 35.9564C14.5343 35.5179 16.0877 35.2752 17.6529 35.2344C17.7737 35.2192 17.8961 35.2425 18.003 35.3008C18.2067 35.4422 18.1531 35.7475 18.1421 35.9952C18.1312 36.243 18.3242 36.5686 18.5457 36.4569C18.2852 36.6828 18.5079 37.1081 18.7578 37.3456C19.0077 37.5831 19.3089 37.9109 19.1559 38.2199C19.116 38.3006 19.0483 38.3651 19.0098 38.4465C18.8964 38.6867 19.0765 38.9667 19.2889 39.1262C19.5013 39.2857 19.7615 39.3972 19.909 39.6181C20.0566 39.839 19.9896 40.2256 19.7257 40.2565L18.9758 39.3043C18.7196 39.57 18.544 39.9029 18.4692 40.2643C19.2645 40.9144 19.3841 42.2376 18.7183 43.0197C18.3781 43.4194 17.8943 43.6623 17.472 43.974C17.0498 44.2858 16.659 44.7297 16.6601 45.2546C16.6619 46.1614 16.5878 47.0039 16.9276 47.8447C17.5542 49.3949 18.2777 50.9042 19.0937 52.3637C19.308 52.7469 19.5849 53.167 20.019 53.233C19.4704 51.8974 18.9765 50.5411 18.5374 49.164C18.8234 49.1651 19.1539 49.1878 19.3216 49.4195C19.4604 49.6114 19.4306 49.8722 19.4737 50.1051C19.5286 50.3307 19.6201 50.5458 19.7446 50.7418L22.3643 55.4084C22.5815 55.7952 22.8306 56.2105 23.2457 56.3671C23.511 56.4673 23.8181 56.4484 24.0623 56.5926C24.2538 56.7057 24.3827 56.9063 24.5779 57.0128C25.1298 57.3138 25.8972 56.7365 26.4129 57.0959C26.5604 57.1987 26.6542 57.3619 26.7901 57.4796C27.2664 57.8921 28.0478 57.6162 28.5976 57.9239C28.952 58.1222 29.1357 58.5188 29.3247 58.8782C29.7981 59.7785 30.5642 60.6606 31.5789 60.7323C31.8977 60.7548 32.2233 60.6944 32.5348 60.7652C32.8464 60.8361 33.1531 61.108 33.1031 61.4236C33.0173 61.9647 33.2846 62.5571 33.2129 63.1002C33.0821 64.0894 31.6789 64.5241 31.5584 65.5147C31.532 65.7315 31.5733 65.9554 31.5217 66.1677C31.4584 66.4278 31.263 66.6397 31.1936 66.8983C31.062 67.3884 31.4131 67.8761 31.7988 68.2058C32.1845 68.5355 32.6446 68.8198 32.8555 69.2814C33.0784 69.7692 32.9689 70.338 33.0414 70.8695C33.1997 72.0296 34.2017 72.8897 35.233 73.4442C35.5472 73.6132 35.8846 73.7768 36.0879 74.0699C36.3534 74.4525 36.3269 74.9568 36.4156 75.4139C36.6326 76.5335 37.5751 77.4559 37.6018 78.5959C37.6209 79.4062 37.1704 80.1414 36.9014 80.9059C36.6491 81.6385 36.5578 82.4168 36.6337 83.1878C36.7096 83.9589 36.951 84.7045 37.3413 85.3737C37.5425 85.7136 37.7833 86.0341 37.9257 86.4025C38.1798 87.06 38.0973 87.8075 38.3316 88.4723C38.6413 89.3512 39.4924 90.0772 39.411 91.0056C39.7974 91.808 40.6506 92.2023 41.5086 92.4411L43.0462 92.8691C43.3407 92.9511 43.6483 93.0337 43.9481 92.9743C44.2479 92.915 44.534 92.6661 44.5263 92.3605C43.7723 92.1905 42.994 92.0097 42.3724 91.5502C41.7508 91.0907 41.325 90.2724 41.5609 89.5363C41.6702 89.1949 41.9029 88.8008 41.6817 88.5187C41.555 88.3572 41.3235 88.315 41.1806 88.1677C40.9578 87.9379 41.0344 87.5518 41.1945 87.2747C41.3547 86.9975 41.5862 86.7499 41.6508 86.4364C41.6835 86.261 41.6617 86.0798 41.5884 85.9172C41.5151 85.7545 41.3939 85.6182 41.2409 85.5264C41.526 85.4188 41.7853 85.2524 42.002 85.0381C42.2021 84.8095 42.2946 84.4571 42.1371 84.1973C42.6047 84.2566 43.1567 84.2856 43.4636 83.928C43.7087 83.6423 43.6919 83.2154 43.595 82.8517C43.4982 82.488 43.3345 82.1347 43.3294 81.7584C44.408 81.8095 45.4889 81.7729 46.5615 81.6488C46.4064 81.1264 46.0539 80.685 45.5788 80.4181C46.0646 80.3359 46.5072 79.7544 46.6607 79.2862C46.8142 78.818 46.775 78.308 46.6802 77.8245C46.6437 77.7001 46.6387 77.5685 46.6656 77.4416C46.7203 77.2673 46.8916 77.1609 47.05 77.0699L49.4613 75.6851C49.6052 75.613 49.7357 75.5167 49.8469 75.4004C50.0996 75.1037 50.0621 74.6557 49.9328 74.2881C49.8034 73.9204 49.5962 73.5747 49.5464 73.1882C49.3974 72.0322 50.6348 71.2028 51.0524 70.1147C51.2163 69.6876 51.2497 69.2234 51.2815 68.7671C51.3155 68.2771 51.3181 67.7078 50.9417 67.392C50.581 67.0892 50.0174 67.1568 49.64 66.8752C49.2939 66.617 49.1745 66.1156 48.7965 65.907C48.4531 65.7176 48.0227 65.8381 47.6408 65.749C46.9685 65.5922 46.5454 64.8173 45.8588 64.7456C45.4714 64.7051 45.033 64.8945 44.7154 64.6689C44.4357 64.4701 44.4244 64.0705 44.3712 63.7314C44.2779 63.2045 44.0253 62.7188 43.6475 62.3398C43.2697 61.9608 42.7848 61.7066 42.2582 61.6116C41.8587 61.5476 41.4239 61.5719 41.0841 61.3524C40.7401 61.1301 40.5823 60.714 40.312 60.4061C39.8764 59.91 39.1903 59.7338 38.5477 59.5827L35.9335 58.9681C35.4694 58.8591 34.8713 58.8012 34.6222 59.2077C34.5485 59.3625 34.4963 59.5266 34.4671 59.6955C34.3738 60.0011 34.186 60.2693 33.9308 60.4614C33.6755 60.6535 33.3659 60.7598 33.0464 60.7649C32.8273 60.3912 32.4724 60.1166 32.0556 59.9983C31.7906 59.9244 31.5068 59.9162 31.254 59.8075C31.1163 59.7403 30.9938 59.6457 30.8939 59.5295C30.7941 59.4133 30.719 59.278 30.6732 59.1318C30.6275 58.9855 30.6121 58.8315 30.6279 58.6791C30.6438 58.5267 30.6906 58.3792 30.7654 58.2455C30.9161 57.9772 30.9743 57.6667 30.9311 57.362C30.8878 57.0573 30.7454 56.7753 30.5259 56.5595C30.0813 56.1604 29.4383 56.064 28.8422 56.1039C28.686 55.7632 28.9471 55.3789 29.2284 55.1313C29.5097 54.8838 29.8513 54.6404 29.9125 54.2707C30.0089 53.6892 29.2669 53.2475 28.7035 53.4209C28.1402 53.5943 27.7806 54.1415 27.5429 54.6809C27.4065 54.9904 27.2906 55.3163 27.0755 55.5772C26.8603 55.8382 26.5139 56.025 26.1862 55.9413C25.7223 55.8227 25.5432 55.2716 25.4405 54.8039C25.3028 54.1765 25.1642 53.5403 25.1931 52.8986C25.2219 52.2568 25.4383 51.5979 25.9115 51.1635C26.6826 50.4555 27.8656 50.5249 28.9063 50.6379C28.6604 50.3608 28.7212 49.894 28.9843 49.6332C29.1231 49.5098 29.29 49.4222 29.4704 49.3778C29.6508 49.3335 29.8393 49.3339 30.0196 49.3789C30.3332 49.4441 30.6157 49.6131 30.8216 49.8584C31.1173 50.219 31.2014 50.7058 31.425 51.1151C31.6485 51.5243 32.1511 51.8734 32.5626 51.6538C32.9179 51.4642 32.9743 50.9714 32.8859 50.5785C32.7974 50.1855 32.6096 49.8034 32.6416 49.4019C32.7028 48.6357 33.4969 48.1746 34.1978 47.8591C34.8986 47.5435 35.7011 47.1192 35.8121 46.3587C35.8159 46.2098 35.844 46.0625 35.8953 45.9226C35.973 45.7991 36.081 45.6975 36.209 45.6276C38.2544 44.2758 40.3338 42.9076 42.6716 42.169C42.7932 42.1306 42.8075 42.1733 42.9314 42.1432C43.1049 42.0429 42.9899 41.7656 42.8236 41.6539C42.6573 41.5421 42.435 41.4564 42.3928 41.2606C42.3618 41.1166 42.4466 40.9752 42.4686 40.8296C42.5228 40.4717 42.0947 40.1413 41.7622 40.2844C41.5745 40.0357 41.946 39.7467 42.2465 39.664C43.1487 39.4157 44.0748 39.2644 45.0091 39.2127C45.117 39.1956 45.2274 39.2144 45.3235 39.2662C45.4804 39.3749 45.4604 39.6242 45.3492 39.7794C45.2379 39.9345 45.065 40.0319 44.9264 40.1632C44.7749 40.3107 44.6669 40.497 44.6142 40.7017C44.5614 40.9064 44.5658 41.1216 44.627 41.324C45.1148 41.5721 45.645 41.8275 46.1853 41.7401C46.7255 41.6527 47.205 41.0457 46.951 40.5609C46.7146 40.1095 46.0043 40.0077 45.8822 39.513C45.7392 38.9337 46.5592 38.4185 46.3744 37.8511C46.2935 37.6026 46.0459 37.4564 45.8558 37.277C45.6314 37.057 45.4787 36.7743 45.4179 36.4659C45.357 36.1576 45.3908 35.8381 45.5149 35.5493C45.2053 35.6038 44.8872 35.5832 44.5873 35.4893C44.2873 35.3955 44.0142 35.231 43.7909 35.0098C43.3786 34.5937 43.0496 33.9372 42.4641 33.9559C41.9267 33.9729 41.4639 34.5998 40.9615 34.4086C40.8379 34.3615 40.7076 34.2658 40.5878 34.3219C40.5485 34.3474 40.5156 34.3814 40.4914 34.4215C40.4673 34.4616 40.4526 34.5067 40.4484 34.5533C40.3207 35.1637 40.5404 35.8592 40.2077 36.3867C39.8456 36.9608 39.0082 37.0404 38.5693 37.558C38.331 37.839 38.2387 38.2176 38.0197 38.5138C37.8007 38.8101 37.3359 38.9984 37.073 38.7403C37.2022 38.4747 37.2375 38.1732 37.1731 37.885C37.1087 37.5968 36.9485 37.339 36.7186 37.1537C36.4746 36.9945 36.2115 36.8666 35.9357 36.7729C35.6274 36.6424 35.3342 36.479 35.061 36.2854C34.9242 36.2029 34.813 36.0839 34.7399 35.9418C34.6821 35.7639 34.6899 35.5712 34.7619 35.3985C34.8952 35.0165 35.1303 34.678 35.4418 34.4198C35.7534 34.1616 36.1296 33.9933 36.5297 33.9333C36.8797 33.8857 37.287 33.9024 37.5185 33.6358C37.6411 33.4947 37.7054 33.2814 37.8832 33.2241C37.997 33.2013 38.1151 33.2158 38.2199 33.2656L39.526 33.7253C39.6718 33.7911 39.8322 33.8177 39.9913 33.8023C40.0702 33.7917 40.1422 33.7516 40.1928 33.6901C40.2434 33.6286 40.2689 33.5503 40.2641 33.4708C40.2224 33.2539 39.8886 33.1498 39.919 32.931C39.936 32.8601 39.9741 32.796 40.0283 32.7473C40.4997 32.2456 41.0761 31.8543 41.7164 31.6014C42.3567 31.3486 43.0449 31.2404 43.7319 31.2847C43.8968 31.5555 43.636 31.8761 43.4191 32.1072C43.2022 32.3384 43.0278 32.7513 43.2902 32.9293C43.3977 32.9841 43.5173 33.0111 43.638 33.0076C43.9595 33.0511 44.272 33.1459 44.5636 33.2883C45.0149 33.4848 45.4576 33.6997 45.8916 33.9331C45.8533 33.6469 45.8167 33.3454 45.9252 33.0778C46.0336 32.8103 46.3419 32.6004 46.6112 32.7046C46.8707 32.805 47.0038 33.1486 47.2802 33.1801C47.649 33.2221 47.7945 32.6773 47.6405 32.3396C47.4864 32.0019 47.1815 31.7191 47.156 31.3488C47.1388 31.099 47.2339 30.7892 47.0344 30.6379C46.9634 30.5925 46.8827 30.5642 46.7989 30.5553L41.8163 29.6384C41.5204 29.584 41.0929 29.6257 41.0798 29.9263C41.0725 30.0941 41.2223 30.26 41.156 30.4143C41.0851 30.5789 40.8524 30.5639 40.6829 30.6221C40.4199 30.7125 40.2879 31.0248 40.3132 31.3017C40.3594 31.5769 40.466 31.8384 40.6253 32.0676C40.3012 31.932 39.8104 31.9071 39.4863 31.7716Z" fill="#3F3D56"/>
<path d="M35.5106 27.5419C35.1964 27.4379 34.8579 27.4331 34.5408 27.528C34.2238 27.623 33.9436 27.8131 33.7383 28.0727C33.6562 28.1807 33.5873 28.3296 33.656 28.4466C33.7545 28.6143 34.0054 28.5481 34.1904 28.4881C34.4623 28.3909 34.7582 28.3839 35.0344 28.4679C35.2081 28.5276 35.3635 28.633 35.538 28.6904C35.6229 28.7259 35.7159 28.7376 35.807 28.7243C35.8981 28.711 35.9838 28.6731 36.055 28.6148C36.1747 28.4927 36.1823 28.3028 36.1825 28.1318C36.1908 28.0746 36.1862 28.0162 36.1691 27.961C36.1519 27.9058 36.1227 27.8551 36.0835 27.8126C36.0137 27.7721 35.9352 27.7489 35.8546 27.7449C35.6741 27.7115 35.5109 27.6161 35.3932 27.4753" fill="#3F3D56"/>
<path d="M37.3073 27.0417C37.237 27.0379 37.1668 27.0522 37.1037 27.0833C37.0405 27.1144 36.9864 27.1613 36.9465 27.2193C36.9067 27.2774 36.8825 27.3447 36.8762 27.4149C36.8699 27.485 36.8817 27.5556 36.9106 27.6198C37.1265 27.6787 37.3521 27.6934 37.5739 27.6631C37.6845 27.6459 37.7875 27.5964 37.87 27.5207C37.9525 27.4451 38.0108 27.3467 38.0375 27.238C37.7764 27.2855 37.507 27.2341 37.2818 27.0937" fill="#3F3D56"/>
<path d="M43.3352 26.2063C42.7474 26.3312 42.1765 26.5252 41.6343 26.7841C41.8899 26.8823 42.1072 27.0601 42.2542 27.2912C42.4011 27.5223 42.4699 27.7945 42.4505 28.0677C42.4276 28.1725 42.4302 28.2814 42.4582 28.385C42.5207 28.5365 42.7017 28.5933 42.8609 28.6322C43.1468 28.7192 43.4453 28.7573 43.744 28.7449C43.8933 28.7371 44.0384 28.6921 44.166 28.6141C44.2937 28.5361 44.3998 28.4275 44.4749 28.2982C44.5182 28.1754 44.569 28.0554 44.6269 27.9389C45.0084 27.3579 46.1416 28.0604 46.5512 27.4989C46.6954 27.3011 46.6823 27.0033 46.8703 26.8466C46.9676 26.7783 47.0804 26.7353 47.1984 26.7214C48.022 26.5577 48.854 26.4393 49.6905 26.3664C50.0869 26.332 50.6036 26.1896 50.6069 25.7918C49.1139 25.4985 47.5658 25.7068 46.2034 26.3842C45.7125 26.63 45.0633 27.1472 44.5905 26.8212C44.4134 26.6992 44.4222 26.3706 44.1785 26.2333C43.9294 26.093 43.5996 26.1501 43.3352 26.2063Z" fill="#3F3D56"/>
<path d="M48.2177 27.1193L48.9186 27.254C48.7896 27.2482 48.6608 27.2701 48.5409 27.3181C48.421 27.3661 48.3128 27.4391 48.2233 27.5322C48.1339 27.6253 48.0653 27.7365 48.0223 27.8582C47.9792 27.98 47.9625 28.1095 47.9735 28.2382C48.6298 28.4574 49.3453 28.244 50.0367 28.2732C50.728 28.3023 51.5324 28.7962 51.4144 29.478C51.3787 29.6842 51.2596 29.8902 51.3215 30.09C51.3649 30.2301 51.4885 30.3295 51.5582 30.4585C51.7035 30.7273 51.5874 31.0674 51.4039 31.3117C51.2204 31.5561 50.9738 31.7511 50.8128 32.0108C50.4122 32.6567 50.6398 33.4917 50.8784 34.2133C50.9474 34.486 51.0748 34.7404 51.2518 34.959C51.6053 35.3348 52.1813 35.3675 52.6973 35.375C53.0728 35.3805 53.5029 35.362 53.7404 35.071C54.0504 34.6912 53.8336 34.0986 54.0377 33.6528C54.2231 33.248 54.6954 33.0743 55.1233 32.9511C55.9072 32.7254 56.7061 32.5335 57.4472 32.1926C58.3675 31.7694 59.2276 31.1097 60.2391 31.0552C60.5228 31.0399 60.8136 31.0734 61.087 30.9957C61.3603 30.9179 61.62 30.6816 61.5993 30.3982C61.5816 30.156 61.3767 29.9782 61.2166 29.7956C61.0565 29.613 60.9308 29.3323 61.0779 29.1392L63.7292 28.644C63.5413 28.1318 63.3949 27.4573 63.8267 27.1239C63.9825 27.0036 64.1911 26.9555 64.3238 26.8101C64.5499 26.5623 64.4362 26.1353 64.1752 25.9246C63.9142 25.7138 63.5613 25.6649 63.2269 25.6371C62.0644 25.5405 60.8952 25.6043 59.7305 25.6682C57.4536 25.793 55.1767 25.9178 52.8998 26.0426C52.4415 26.0677 51.9123 26.0293 51.4919 26.1857C51.136 26.3181 50.883 26.5611 50.476 26.6465C49.7246 26.8041 48.8977 26.6974 48.2177 27.1193Z" fill="#3F3D56"/>
<path d="M60.7731 32.659C60.7017 32.6477 60.6286 32.6642 60.5691 32.7052C60.5297 32.7486 60.5063 32.8041 60.5027 32.8625C60.4574 33.1206 60.5113 33.3861 60.6536 33.6061C60.726 33.714 60.8261 33.8005 60.9433 33.8567C61.0605 33.9129 61.1906 33.9367 61.3201 33.9256C61.6356 33.8854 61.8682 33.6162 62.1583 33.4848C62.6055 33.2825 64.5044 32.9671 63.1908 32.2575C62.7381 32.0129 62.4456 32.2288 62.0888 32.3898C61.6829 32.5975 61.228 32.6906 60.7731 32.659Z" fill="#3F3D56"/>
<path d="M72.2786 26.7187C72.1252 26.7813 71.9969 26.893 71.9137 27.0363C71.8753 27.1091 71.8664 27.1938 71.8888 27.2729C71.9112 27.3521 71.9631 27.4196 72.0339 27.4615C72.0912 27.4823 72.1519 27.4919 72.2128 27.4899L72.8365 27.5085C73.1014 27.5164 73.4324 27.5728 73.5036 27.8282C73.5564 28.0178 73.4381 28.2614 73.5809 28.3969C73.6422 28.4443 73.7158 28.4731 73.793 28.4796C73.9985 28.5324 74.213 28.5393 74.4215 28.4999C74.8753 28.3782 74.6368 28.1012 74.7797 27.8546C74.9984 27.4773 74.9606 27.7057 75.3459 27.4894C75.6304 27.3297 75.9981 27.04 75.7606 26.6329C75.3476 25.9251 72.8881 26.4146 72.2786 26.7187Z" fill="#3F3D56"/>
<path d="M84.5884 26.3628L84.2263 26.4112C83.4096 26.5201 82.5883 26.6301 81.8018 26.8754C82.1422 27.01 82.4994 27.0976 82.8636 27.1359C83.064 27.1457 83.2631 27.174 83.4583 27.2204C83.8057 27.3239 84.1558 27.5909 84.4915 27.4541C84.6996 27.3693 84.7675 27.1526 84.9399 27.0378C85.0589 26.9585 85.5104 26.8301 85.5608 26.7501C85.9689 26.1031 84.9021 26.321 84.5884 26.3628Z" fill="#3F3D56"/>
<path d="M86.1786 28.0087C85.6949 28.2792 85.2461 28.6079 84.8422 28.9875C84.672 29.1474 84.4982 29.3464 84.5137 29.5794C84.5342 29.8891 84.8641 30.0687 85.1499 30.1898L86.3076 30.6799C86.4481 30.482 86.3195 30.2087 86.1744 30.0142C86.0292 29.8196 85.8567 29.5946 85.9209 29.3605C85.994 29.0933 86.3198 29.0023 86.5929 28.9563C87.0379 28.8813 88.2384 28.8873 88.0942 28.1701C87.9242 27.3251 86.6254 27.759 86.1786 28.0087Z" fill="#3F3D56"/>
<path d="M85.9459 75.8319C85.8357 76.151 85.8252 76.5269 86.0159 76.8055C86.2298 77.1181 86.6579 77.2346 87.0283 77.1553C87.3972 77.0572 87.726 76.8458 87.9684 76.5509C88.19 76.3039 88.3724 76.0243 88.5091 75.7218C88.6998 75.2504 88.8343 74.7583 88.9098 74.2554L89.2693 72.3681C89.3496 71.9463 89.3465 70.6532 88.5712 71.0745C88.3595 71.1896 87.8691 72.0984 87.6472 72.3561C87.2471 72.8205 87.1942 73.2712 86.9836 73.8338C86.7199 74.5386 86.1897 75.126 85.9459 75.8319Z" fill="#3F3D56"/>
<path d="M126.892 85.49C126.638 85.391 126.392 85.2738 126.155 85.1393C125.918 85.792 125.792 86.48 125.782 87.1746L127.518 86.1923C127.779 86.0446 128.075 85.8393 128.069 85.5393C128.071 85.5022 128.064 85.4652 128.047 85.4322C128.03 85.3991 128.004 85.3712 127.973 85.3514C127.934 85.3359 127.892 85.331 127.851 85.3371C127.594 85.3586 127.359 85.4852 127.116 85.5733C126.874 85.6614 126.59 85.7079 126.367 85.5772" fill="#3F3D56"/>
<path d="M136.049 86.073C135.858 86.1249 135.672 86.1917 135.492 86.2728C135.094 86.4755 134.823 86.8604 134.464 87.1274C134.121 87.3828 133.708 87.5231 133.303 87.6595C133.184 87.7649 133.238 87.9772 133.368 88.0698C133.507 88.1489 133.667 88.1848 133.826 88.1728C134.247 88.1821 134.691 88.1862 135.06 87.9827C135.268 87.8479 135.462 87.6936 135.641 87.5217C136.072 87.1619 136.59 86.9245 137.103 86.695C137.289 86.6245 137.462 86.5214 137.612 86.3903C137.934 86.0729 137.957 85.5833 137.493 85.4752C137.117 85.388 136.406 85.9574 136.049 86.073Z" fill="#3F3D56"/>
<path d="M140.095 83.4302C140.115 83.2118 140.086 82.9915 140.01 82.786C139.933 82.5805 139.81 82.3951 139.652 82.2438C139.647 82.6807 139.634 83.1463 139.388 83.5076C139.213 83.7651 138.938 83.939 138.746 84.1842C138.554 84.4295 138.469 84.8182 138.694 85.0334C138.838 85.1429 139.013 85.2032 139.194 85.2055C139.642 85.2583 140.161 85.2877 140.475 84.964C140.646 84.7874 140.73 84.5258 140.939 84.3959C141.017 84.3632 141.086 84.3134 141.142 84.2502C141.229 84.1129 141.091 83.932 140.937 83.8825C140.783 83.8331 140.612 83.8563 140.457 83.8094C140.302 83.7624 140.159 83.5878 140.239 83.4465" fill="#3F3D56"/>
<path d="M132.904 67.4091C132.669 67.4662 132.425 67.4806 132.185 67.4514C131.786 67.3781 131.476 67.0776 131.154 66.8311C130.389 66.2483 129.458 65.9233 128.497 65.9026C127.622 65.886 126.739 66.1231 125.879 65.9577C125.936 66.27 126.203 66.5041 126.488 66.6433C126.773 66.7825 127.088 66.8526 127.374 66.989C127.833 67.2095 128.197 67.5881 128.399 68.0552C128.491 68.2705 128.549 68.5049 128.689 68.6929C128.975 69.0773 129.516 69.1617 129.994 69.1302C130.617 69.0893 131.267 68.9101 131.847 69.1422C132.29 69.3197 132.608 69.7078 132.978 70.0096C133.348 70.3113 133.87 70.5353 134.295 70.3175C133.853 70.1746 133.469 69.8942 133.198 69.5174C132.927 69.1406 132.784 68.6871 132.789 68.223C133.206 68.2613 134.406 68.2465 134.342 67.538C134.287 66.9377 133.262 67.3443 132.904 67.4091Z" fill="#3F3D56"/>
<path d="M127.45 72.2939C127.524 71.8879 127.929 71.5294 127.802 71.1364C127.715 70.8646 127.4 70.7305 127.115 70.7238C126.829 70.7171 126.549 70.802 126.264 70.8101C126.078 70.8002 125.892 70.8028 125.707 70.818C125.14 70.9111 124.791 71.5047 124.257 71.7157C123.933 71.8441 123.568 71.8196 123.231 71.9083C122.465 72.1097 121.98 72.8337 121.444 73.4174C120.579 74.3563 119.451 75.0138 118.208 75.3046C117.773 75.4055 117.304 75.47 116.958 75.753C116.499 76.1276 116.387 76.7699 116.285 77.3532C116.003 78.9641 115.572 80.5454 114.998 82.0767L116.817 82.3089C117.163 82.3531 117.521 82.3963 117.855 82.2939C118.097 82.2025 118.326 82.0803 118.537 81.9303C119.347 81.4273 120.254 81.1 121.199 80.9695C121.675 80.9041 122.175 80.8921 122.622 81.0692C123.069 81.2463 123.453 81.6479 123.49 82.1273C123.683 82.0671 123.889 82.0606 124.086 82.1085C124.283 82.1563 124.463 82.2567 124.607 82.399C124.892 82.6892 125.078 83.0616 125.14 83.4636C125.188 83.7125 125.236 84.0107 125.467 84.1151C125.656 84.2003 125.872 84.1086 126.078 84.0921C126.777 84.0361 127.358 84.8517 128.045 84.7112C128.783 84.5606 128.964 83.4564 129.683 83.2352C130.096 83.1082 130.675 83.2626 130.873 82.8784C131.048 82.5396 130.7 82.1488 130.736 81.7695C130.78 81.3025 131.331 81.1043 131.755 80.905C133.219 80.2181 133.914 78.2476 133.205 76.7943C132.784 75.9333 131.957 75.2555 131.805 74.3095C131.687 73.5817 131.974 72.7331 131.51 72.1602C131.274 71.8688 130.874 71.7079 130.734 71.3602C130.645 71.1413 130.681 70.893 130.633 70.6618C130.586 70.4306 130.384 70.1887 130.156 70.2486C129.493 70.4226 129.281 72.47 128.927 72.9675C128.387 73.7237 127.28 73.2256 127.45 72.2939Z" fill="#3F3D56"/>
<path d="M115.199 68.1826C114.972 68.1191 114.725 68.0566 114.508 68.1473C114.291 68.2381 114.164 68.5567 114.339 68.7148C115.701 68.6617 117.072 68.609 118.423 68.7941C119.98 69.0073 121.52 69.5354 123.084 69.38C122.191 69.1165 121.283 68.9059 120.365 68.7491L118.834 68.4568C118.424 68.3708 118.009 68.3067 117.592 68.2647C116.718 68.1926 116.057 68.4234 115.199 68.1826Z" fill="#3F3D56"/>
<path d="M116.563 63.4368C116.45 63.4274 116.31 63.4193 116.251 63.5165C116.196 63.6094 116.259 63.7322 116.229 63.8364C116.188 63.9788 116.002 64.0151 115.855 63.9958C115.708 63.9764 115.549 63.93 115.419 64.0008C115.353 64.0459 115.304 64.1112 115.278 64.1868C115.252 64.2625 115.251 64.3445 115.276 64.4205C115.329 64.5713 115.416 64.7085 115.528 64.8221C115.721 65.0646 115.94 65.2846 116.182 65.4778C116.65 65.8235 117.285 65.9901 117.58 66.4919C117.621 66.5892 117.685 66.6752 117.766 66.7432C117.908 66.8328 118.093 66.7646 118.245 66.6949L118.78 66.4508C118.876 66.4161 118.962 66.3576 119.029 66.2808C119.151 66.1152 119.076 65.8796 118.974 65.7012C118.872 65.5227 118.74 65.338 118.762 65.1334C118.802 64.7686 119.271 64.629 119.463 64.3169C119.658 64.0022 119.531 63.5968 119.554 63.2276C119.58 62.7959 119.851 62.2343 119.415 61.9117C119.044 61.6375 118.689 61.8908 118.423 62.1935C117.861 62.8318 117.596 63.5231 116.563 63.4368Z" fill="#3F3D56"/>
<path d="M119.807 56.9857C119.99 57.3351 120.37 57.5435 120.569 57.8837C120.785 58.2525 120.76 58.729 120.994 59.0864C121.234 59.4531 121.717 59.6478 121.852 60.0649C121.999 60.5203 121.665 61.0737 121.931 61.4716C121.981 61.5367 122.043 61.5907 122.115 61.6303C122.186 61.6699 122.265 61.6942 122.347 61.7017C122.428 61.7092 122.51 61.6997 122.588 61.6738C122.665 61.6478 122.737 61.6061 122.797 61.5512C122.909 61.4292 122.969 61.2682 122.964 61.1026C122.959 60.937 122.89 60.7799 122.771 60.6647C122.614 60.5212 122.388 60.4592 122.256 60.2916C122.188 60.1949 122.142 60.0839 122.123 59.967C122.051 59.6298 122.063 59.2803 122.156 58.9485C122.191 58.8643 122.2 58.7715 122.182 58.6821C122.123 58.5102 121.89 58.498 121.727 58.4182C121.355 58.237 121.364 57.7133 121.429 57.3054C121.386 57.5769 120.419 57.1151 120.318 56.9613C120.116 56.6557 120.226 56.0663 120.186 55.7286C119.752 55.938 119.584 56.5586 119.807 56.9857Z" fill="#3F3D56"/>
<path d="M110.062 62.3608C109.884 62.1609 109.615 61.9518 109.376 62.0724C109.193 62.1643 109.143 62.417 109.214 62.6085C109.302 62.7945 109.436 62.9546 109.604 63.0728C110.103 63.4842 110.64 63.8554 111.075 64.3336C111.854 65.1894 112.266 66.3441 113.113 67.1325C113.283 67.3153 113.509 67.4373 113.755 67.4798C114.002 67.5028 114.279 67.3448 114.307 67.0986C114.33 66.8959 114.189 66.7144 114.051 66.5641C113.722 66.2063 113.362 65.8769 113.051 65.503C112.908 65.3594 112.817 65.1711 112.796 64.9693C112.794 64.768 112.978 64.5572 113.173 64.6071C112.935 64.5465 112.759 64.1512 112.411 64.0769C112.12 64.0149 112.05 64.195 111.704 64.0465C111.043 63.7632 110.525 62.8785 110.062 62.3608Z" fill="#3F3D56"/>
<path d="M125.582 42.9006C125.392 42.8443 125.206 42.7778 125.024 42.7013C124.533 42.5541 123.884 42.9145 123.95 43.4224C123.993 43.7598 124.307 43.9872 124.481 44.2799C124.738 44.7139 124.669 45.2644 124.534 45.7504C124.501 45.9009 124.438 46.0432 124.348 46.1688C124.224 46.3014 124.074 46.4088 123.909 46.4849C123.247 46.8563 122.663 47.3524 122.189 47.946C122.138 48.0008 122.102 48.0684 122.085 48.1417C122.062 48.3132 122.234 48.4381 122.332 48.5811C122.548 48.8987 122.392 49.3262 122.413 49.71C122.41 49.7642 122.421 49.8184 122.444 49.8675C122.468 49.9165 122.503 49.9586 122.548 49.99C122.678 50.0563 122.833 49.9437 122.903 49.8156C123.138 49.3905 122.961 48.7081 123.402 48.5031C123.485 48.4643 123.586 48.448 123.641 48.3748C123.729 48.2588 123.644 48.087 123.689 47.9483C123.756 47.7401 124.041 47.7307 124.26 47.7399C124.636 47.7557 125.012 47.7056 125.372 47.5919C125.513 47.5584 125.641 47.4842 125.74 47.3787C125.871 47.2144 125.86 46.9809 125.834 46.7721C125.702 45.7312 125.372 44.7251 124.862 43.8082C125.249 43.8575 125.67 43.9003 126.003 43.6988C126.19 43.586 126.414 43.2485 126.321 43.0188C126.175 42.6556 125.91 42.9613 125.582 42.9006Z" fill="#3F3D56"/>
<path d="M76.0091 48.6255C76.0554 48.8737 76.1008 49.1351 76.0195 49.3741C75.9382 49.6131 75.6823 49.8128 75.4407 49.7395C75.2532 49.6827 75.1449 49.4942 75.0117 49.3504C74.2713 48.5511 72.6007 49.0139 72.1433 48.0249C71.9566 47.6213 72.0835 47.1377 71.9561 46.7117C71.8758 46.4654 71.716 46.2528 71.5017 46.1073C71.2874 45.9617 71.0309 45.8915 70.7724 45.9075C70.5366 45.9416 70.3071 46.0101 70.0912 46.1109C68.645 46.6901 67.1267 47.0698 65.5781 47.2397C65.2838 47.2576 64.9927 47.3106 64.7109 47.3974C64.075 47.628 63.6405 48.2175 63.3314 48.819C63.0222 49.4206 62.7939 50.0719 62.3794 50.6063C61.9437 51.168 61.3332 51.5613 60.7637 51.9867C60.5444 52.1281 60.3617 52.3196 60.2308 52.5453C60.1073 52.7988 60.1143 53.0936 60.1238 53.3754L60.2402 56.7976C60.2552 57.2377 60.274 57.6936 60.471 58.0876C60.717 58.5795 61.203 58.9016 61.5402 59.3362C61.8842 59.7827 62.0634 60.3344 62.0475 60.8979C62.0403 61.1245 62.0178 61.3924 62.1943 61.5347C62.3016 61.6043 62.4272 61.6404 62.5551 61.6385L67.1843 62.0174C67.9986 62.084 68.901 62.1936 69.4327 62.814C69.6836 63.1068 69.8852 63.5278 70.2695 63.5593C70.4343 63.5727 70.5947 63.5051 70.7596 63.492C71.1756 63.4591 71.5411 63.7748 71.7717 64.1226C72.1207 64.6526 72.2792 65.2856 72.221 65.9176C72.1832 66.3143 72.0602 66.7 72.0337 67.0976C71.9328 68.6106 73.2154 69.9251 73.2402 71.4412C73.2548 72.333 72.8315 73.1662 72.4187 73.9569C73.0849 74.9661 72.5394 76.3099 72.8046 77.4896C73.0562 78.6089 73.9895 79.4851 74.222 80.6085C74.3285 81.1228 74.3346 81.7557 74.7881 82.0206C74.9871 82.1176 75.2077 82.1617 75.4287 82.1488C76.7617 82.1646 78.0795 81.8646 79.2743 81.2733C79.8351 80.9951 80.4162 80.5797 80.5142 79.9614C80.5931 79.4627 80.3403 78.905 80.5976 78.4707C80.9009 77.9588 81.6779 77.9994 82.1241 77.6058C82.848 76.9673 82.2835 75.7497 82.5768 74.83C82.8405 74.0034 83.7481 73.5643 84.198 72.8224C84.375 72.5033 84.5021 72.1589 84.5747 71.8013C84.7808 70.9467 84.9091 70.0751 84.958 69.1973C84.97 68.6639 85.0093 68.1316 85.0758 67.6023C85.5609 64.5888 88.54 62.5709 89.5072 59.676C89.5996 59.3995 89.643 59.0313 89.397 58.8748C89.2511 58.8052 89.0858 58.7879 88.9286 58.8258L86.7947 59.0948C86.5296 59.1283 86.2487 59.1595 86.0053 59.0494C85.7618 58.9393 85.5874 58.6314 85.7165 58.3975C86.0789 57.741 85.3334 56.9114 85.0022 56.2386C84.1101 54.4269 83.0479 52.7042 81.8297 51.0937C81.7518 51.0108 81.7029 50.9048 81.6907 50.7917L82.2963 50.8119C82.0919 50.0783 81.7545 49.2755 81.0418 49.0071C80.6402 48.8559 80.1954 48.9082 79.7669 48.9316C78.5396 48.9987 77.2238 48.8134 76.0091 48.6255Z" fill="#3F3D56"/>
<path d="M79.7679 32.0938C80.0891 32.4348 80.449 32.7964 80.9137 32.8559C81.7344 32.9609 82.3245 32.1121 82.7002 31.3749C82.7141 31.5629 82.8008 31.738 82.9418 31.863C83.0829 31.988 83.2671 32.0531 83.4553 32.0444C83.6579 32.0103 83.8513 31.9347 84.0233 31.8223C85.6494 30.9337 87.4709 30.4628 89.324 30.4521C89.3062 30.3117 89.341 30.1697 89.4217 30.0535C89.5025 29.9373 89.6234 29.8551 89.7611 29.8227C90.1379 29.7481 90.4773 30.0738 90.6591 30.4122C90.8408 30.7506 90.9541 31.1428 91.2429 31.3961C91.5317 31.6493 92.0907 31.6383 92.2048 31.2715C92.3143 30.9194 91.9475 30.6191 91.6427 30.4115C91.3379 30.2039 91.0167 29.8197 91.2219 29.5133C92.7789 29.1686 94.3456 28.8227 95.9389 28.7542C96.2101 28.7636 96.4804 28.7171 96.7328 28.6174C96.9758 28.4982 97.1689 28.2275 97.1036 27.9649C96.7559 28.0466 96.3918 28.0229 96.0576 27.8969C95.7234 27.7708 95.4344 27.5481 95.2273 27.2571C97.438 27.0747 99.7893 26.9192 101.749 27.9594C101.984 28.4641 100.785 28.8841 101.106 29.3393C101.208 29.4845 101.413 29.5015 101.591 29.5048C102.952 29.5301 104.321 29.5549 105.668 29.3493C106.16 29.2742 106.656 29.1682 107.15 29.2291C107.973 29.3305 108.676 29.8794 109.486 30.0584C109.815 30.1312 110.185 30.1337 110.462 29.9421C110.74 29.7505 110.859 29.3142 110.632 29.0652C111.394 28.3184 112.658 28.5035 113.664 28.861C114.669 29.2185 115.621 29.7951 116.685 29.8748C117.448 29.932 118.222 29.7268 118.976 29.8572C119.449 29.9392 119.89 30.1499 120.353 30.2794C121.229 30.5243 122.155 30.4726 123.065 30.4844C125.385 30.5157 127.679 30.9716 129.835 31.8297C130.115 31.921 130.372 32.0728 130.588 32.2744C130.788 32.4892 130.89 32.8229 130.756 33.0841L128.528 32.7586C128.738 33.1718 129.281 33.2422 129.722 33.3847C130.163 33.5272 130.62 34.0142 130.355 34.3943C129.877 34.2422 129.444 34.7199 129.203 35.1594C128.962 35.5989 128.668 36.1252 128.167 36.152C127.719 36.1759 127.176 35.7942 126.884 36.135C127.288 36.6444 127.634 37.1971 127.915 37.783C128.204 38.3845 128.409 39.1424 128.019 39.6836C127.958 39.7802 127.864 39.8524 127.756 39.8878C127.437 39.9685 127.23 39.5786 127.001 39.3423C126.713 39.0445 126.278 38.9602 125.888 38.8205C125.498 38.6808 125.087 38.4061 125.056 37.993C125.037 37.7359 125.173 37.497 125.273 37.2594C125.441 36.8589 125.514 36.4252 125.488 35.9917C125.466 35.643 125.368 35.2803 125.118 35.0367C124.867 34.793 124.435 34.7157 124.166 34.9389C124.041 35.043 123.94 35.2095 123.777 35.2158C123.489 35.2268 123.268 34.725 123.037 34.8963C123.064 35.0788 123.026 35.2651 122.93 35.4225C122.239 36.0235 121.177 35.7693 120.286 35.9816C119.863 36.1028 119.457 36.2799 119.08 36.5083C118.939 36.5686 118.819 36.6693 118.735 36.7977C118.624 37.0138 118.747 37.2905 118.943 37.4342C119.151 37.5617 119.384 37.6414 119.627 37.6677C120.713 37.8734 121.815 38.1918 122.672 38.8894C123.53 39.587 124.092 40.7402 123.821 41.8118L121.679 39.7652C121.76 40.6245 121.806 41.4862 121.817 42.3503C121.831 42.519 121.808 42.6887 121.749 42.8475C121.597 43.1848 121.183 43.2983 120.82 43.3727C120.719 43.3919 120.624 43.4322 120.54 43.4909C120.455 43.5497 120.385 43.6256 120.332 43.7137C120.279 43.8018 120.245 43.9 120.233 44.0019C120.221 44.1039 120.231 44.2073 120.262 44.3052C120.39 44.7252 120.712 45.0527 121.006 45.3789C121.3 45.7052 121.589 46.076 121.628 46.5136C121.666 46.9512 121.336 47.4445 120.898 47.414C120.566 47.391 120.319 47.0936 120.178 46.7922C120.036 46.4908 119.952 46.1551 119.739 45.899C119.094 45.124 117.647 45.4561 117.07 44.6298C116.922 44.7967 116.82 44.9985 116.773 45.2159C116.726 45.4334 116.735 45.6593 116.8 45.8723C117.068 45.7041 117.436 45.8603 117.638 46.1046C117.839 46.3489 117.935 46.6621 118.093 46.9365C118.307 47.3068 118.647 47.635 118.677 48.0616C118.669 48.2228 118.672 48.3845 118.685 48.5454C118.738 48.8038 118.957 48.9894 119.108 49.2054C119.46 49.7081 119.443 50.3986 119.216 50.9689C118.989 51.5392 118.581 52.0157 118.177 52.4777C117.471 53.2847 116.75 54.087 115.913 54.7571C115.674 54.9484 115.419 55.1364 115.271 55.4037C115.122 55.6711 115.114 56.0463 115.343 56.2497C115.179 56.2579 114.886 56.3383 114.723 56.3465C114.665 55.6905 114.653 55.0312 114.685 54.3734C114.04 54.0635 113.345 54.8934 113.428 55.6045C113.511 56.3156 114.026 56.8863 114.392 57.5015C114.66 57.9514 114.859 58.476 114.769 58.9919C114.68 59.5077 114.219 59.9836 113.698 59.9381C112.868 59.8658 112.521 58.6747 111.7 58.5384C111.627 58.5214 111.551 58.529 111.483 58.5599C111.361 58.6268 111.34 58.79 111.333 58.929C111.3 59.6109 111.271 60.3199 111.537 60.9487C111.926 61.8685 112.932 62.641 112.721 63.6173C111.584 63.0888 110.993 61.8139 110.725 60.5892C110.457 59.3645 110.412 58.0789 109.931 56.9212C109.565 57.3894 108.798 57.0023 108.464 56.5111C108.147 56.0454 107.953 55.5067 107.646 55.0348C107.339 54.5628 106.868 54.1402 106.306 54.1142C105.716 54.087 105.205 54.4917 104.755 54.874C104.385 55.1884 104.005 55.5152 103.789 55.9498C103.475 56.5823 103.557 57.3279 103.542 58.034C103.525 58.7975 103.364 59.603 102.843 60.1619C102.323 60.7208 101.363 60.9155 100.789 60.4118C100.489 60.1488 100.344 59.7559 100.215 59.3788C99.5917 57.5608 99.073 55.7088 98.6609 53.8318C98.5644 54.2602 98.1882 54.8123 97.8288 54.56C97.7482 54.4921 97.6829 54.408 97.6372 54.313C96.9668 53.1769 95.7254 52.4954 94.4711 52.0867C93.2168 51.6781 91.8971 51.4875 90.6567 51.0385C89.9616 50.7867 89.2976 50.456 88.6779 50.0528C88.52 50.2849 88.4277 50.5554 88.411 50.8356C88.3943 51.1159 88.4536 51.3954 88.5828 51.6447C88.858 52.1319 89.4806 52.4138 90.0136 52.2435C90.289 52.1555 90.5216 51.9643 90.7949 51.8698C91.0682 51.7754 91.435 51.8218 91.5545 52.0851C91.6689 52.3371 91.496 52.642 91.5818 52.9051C91.7124 53.3059 92.3169 53.3368 92.5282 53.7015C92.6855 53.9728 92.5561 54.3331 92.3315 54.5521C92.107 54.7711 91.8074 54.8911 91.5333 55.0436C90.6439 55.5381 90.0115 56.3824 89.2342 57.0392C88.457 57.696 87.3604 58.1756 86.4341 57.7542C86.6549 56.6362 85.323 55.8153 85.078 54.7023C84.9974 54.336 85.0392 53.9468 84.9241 53.5898C84.7574 53.0729 84.2988 52.7176 83.9226 52.3259C83.4663 51.8456 83.1108 51.2788 82.8771 50.6589C82.6434 50.0391 82.5363 49.3787 82.562 48.7167C82.5823 48.2567 82.6668 47.7892 82.562 47.3409C82.4572 46.8925 82.086 46.4586 81.626 46.4789C80.5754 46.5253 79.2518 46.6034 78.7006 45.7078C78.5039 45.3882 78.4183 44.92 78.7027 44.6751C78.9034 44.5024 79.1996 44.5187 79.4631 44.5446L81.8302 44.7774C82.3839 44.8319 82.9824 44.8769 83.4575 44.5874C83.9326 44.298 84.1384 43.5297 83.6985 43.1891C83.3771 42.9403 82.8012 42.9538 82.7077 42.5582C82.6299 42.2287 82.9946 41.8549 82.7976 41.5796C82.6564 41.3821 82.3389 41.4369 82.1465 41.5849C81.9541 41.7329 81.8145 41.9494 81.5992 42.0614C81.2215 42.258 80.7701 42.0709 80.3637 41.9438C79.9574 41.8166 79.4125 41.8058 79.2154 42.1833C78.995 42.6054 79.411 43.1585 79.1922 43.5815C78.9029 44.1408 77.9234 43.8224 77.5171 44.3034C77.051 44.8554 77.8343 45.6785 77.6771 46.3837C77.4764 46.4831 77.2534 46.5287 77.0298 46.5162C76.8062 46.5036 76.5896 46.4333 76.4013 46.312C76.2161 46.186 76.0685 46.0122 75.9742 45.8091C75.8799 45.6059 75.8425 45.381 75.8658 45.1582C75.9047 44.841 76.0701 44.5172 75.9593 44.2174C75.8697 43.975 75.6264 43.8307 75.4002 43.7058L73.0998 42.4346C72.8863 42.8308 73.1563 43.3219 73.4939 43.6195C73.8316 43.9171 74.2546 44.1412 74.4764 44.5329C74.6167 44.8042 74.6482 45.1189 74.5643 45.4126C74.4805 45.7063 74.2877 45.957 74.0253 46.1134C73.9924 46.1361 73.955 46.1514 73.9156 46.1583C73.8763 46.1651 73.8359 46.1634 73.7973 46.1532C73.7606 46.1316 73.7286 46.1029 73.7032 46.0687C73.6778 46.0346 73.6595 45.9957 73.6494 45.9543C73.2435 44.9156 72.6341 43.8915 71.6599 43.349C70.6856 42.8064 69.2857 42.9179 68.6468 43.8319C68.4951 44.049 68.3932 44.2965 68.261 44.526C67.5587 45.7455 66.0531 46.3229 64.6464 46.2852C64.5087 46.2928 64.3719 46.2606 64.252 46.1925C64.0247 46.0355 64.0349 45.7023 64.0697 45.4282L64.2174 44.265C64.247 44.0314 64.29 43.7733 64.4749 43.6274C64.7355 43.4219 65.1114 43.5516 65.4433 43.5468C65.6947 43.5351 65.9365 43.4463 66.1357 43.2925C66.335 43.1387 66.4821 42.9274 66.5573 42.6871C66.6243 42.4445 66.6239 42.1882 66.556 41.9458C66.4882 41.7035 66.3555 41.4842 66.1722 41.3117C66.0201 41.1688 65.8159 40.9893 65.8963 40.7967C65.9283 40.7434 65.9717 40.6978 66.0232 40.6631C66.0748 40.6284 66.1334 40.6054 66.1948 40.5957C66.7909 40.4226 67.4208 40.3772 68.007 40.173C68.5932 39.9687 69.1617 39.5508 69.3005 38.9457C69.343 38.7603 69.3624 38.5357 69.529 38.4438C69.6125 38.4085 69.7023 38.3902 69.793 38.3898C70.1108 38.3446 70.4001 38.1821 70.6041 37.9342C70.8081 37.6863 70.9118 37.3711 70.895 37.0505C71.1759 36.8542 71.5695 36.9986 71.8413 37.2074C72.1131 37.4162 72.353 37.692 72.6837 37.782C73.3 37.9498 73.8956 37.4041 74.5343 37.4016C74.8028 37.4005 75.0809 37.4955 75.3336 37.4044C75.5897 37.3121 75.7427 37.0571 75.9393 36.8687C76.1359 36.6804 76.4809 36.5655 76.6624 36.7684L76.5078 35.6233C76.8192 35.702 77.1437 35.7131 77.4597 35.656C77.7757 35.5988 78.0758 35.4748 78.3399 35.2921L76.3419 34.617C76.2723 34.5997 76.2082 34.5653 76.1551 34.5171C76.0098 34.3607 76.1541 34.117 76.2722 33.9392C76.5548 33.5138 76.6022 32.8132 76.1376 32.6014C75.8204 32.4569 75.4563 32.6304 75.1519 32.8001L73.6936 33.6132C73.6473 33.8904 73.9863 34.0475 74.1963 34.2342C74.3234 34.3472 74.4133 34.4959 74.4543 34.661C74.4953 34.826 74.4854 34.9995 74.426 35.1588C74.3665 35.3181 74.2603 35.4557 74.1212 35.5535C73.9821 35.6513 73.8167 35.7048 73.6467 35.7069C73.7427 35.8317 73.8094 35.9766 73.8419 36.1307C73.8744 36.2848 73.8718 36.4443 73.8343 36.5972L72.8531 36.6678C72.743 36.69 72.6286 36.6676 72.5349 36.6057C72.4299 36.5125 72.4442 36.3492 72.4199 36.211C72.3611 35.8773 72.0345 35.6435 71.7011 35.5836C71.3677 35.5236 71.0266 35.6005 70.6965 35.6763C70.5563 35.7268 70.4024 35.7232 70.2647 35.6664C70.1857 35.6151 70.1257 35.5393 70.0938 35.4507C69.9491 35.0998 70.0844 34.6873 70.3168 34.3872C70.5493 34.0871 70.8675 33.8677 71.1533 33.6179C71.8367 33.0182 72.3389 32.2393 72.603 31.3693C73.1431 31.143 73.7023 30.8355 74.2424 30.6092C75.0751 30.1876 76.009 30.0067 76.9389 30.0868L78.7681 30.1217C79.3096 30.1321 79.8658 30.1453 80.3666 30.3518C80.8673 30.5582 81.3074 31.0048 81.3419 31.5453C81.3524 31.6065 81.3471 31.6694 81.3266 31.728C81.306 31.7866 81.271 31.839 81.2246 31.8803C81.1539 31.9189 81.0738 31.937 80.9934 31.9324C80.4883 31.9502 80.273 32.076 79.7679 32.0938Z" fill="#3F3D56"/>
<path d="M65.1881 37.8264C65.2595 37.7588 65.3109 37.6727 65.3367 37.5778C65.3624 37.4828 65.3615 37.3826 65.334 37.2881C65.1601 37.221 64.9709 37.2037 64.7878 37.2383C64.6046 37.2729 64.4348 37.3579 64.2973 37.4838C64.1889 37.5935 64.0956 37.7169 64.0196 37.851C63.7792 38.2432 63.5666 38.7116 63.7059 39.1499C63.7173 39.1977 63.7381 39.2428 63.7671 39.2824C63.7961 39.3221 63.8327 39.3556 63.8748 39.3809C63.9372 39.4059 64.0045 39.4165 64.0716 39.4117C64.3364 39.4114 64.6009 39.3951 64.8638 39.363C65.0252 39.3432 65.2126 39.2976 65.275 39.1475C65.357 38.9501 65.1586 38.7267 65.2164 38.5209C65.2545 38.4289 65.3122 38.3463 65.3854 38.2789C65.4218 38.2449 65.4497 38.2029 65.467 38.1563C65.4843 38.1097 65.4905 38.0597 65.4851 38.0102C65.4618 37.9137 65.3139 37.8589 65.2607 37.9428" fill="#3F3D56"/>
<path d="M66.5612 36.0463C66.3259 35.9923 66.0835 35.9771 65.8433 36.0012C65.7902 35.9997 65.7376 36.0116 65.6904 36.036C65.6446 36.0697 65.6115 36.1178 65.5961 36.1725C65.5454 36.3353 65.5579 36.5112 65.631 36.6652C65.7042 36.8192 65.8327 36.94 65.9909 37.0035C66.0772 37.0234 66.1598 37.0566 66.2358 37.1019C66.4388 37.2594 66.3094 37.5814 66.3478 37.8355C66.3909 38.1208 66.6671 38.3603 66.6165 38.6443C66.5766 38.8681 66.3376 39.0453 66.376 39.2694C66.4163 39.504 66.7141 39.5746 66.9515 39.5934C67.089 39.6174 67.2306 39.6012 67.3592 39.5466C67.488 39.4585 67.5796 39.3258 67.6164 39.1741C67.7135 38.8849 67.7544 38.5797 67.7367 38.2751C67.7356 38.1366 67.7008 38.0004 67.6353 37.8783C67.5638 37.7816 67.4846 37.6909 67.3984 37.607C66.9436 37.0781 67.4225 36.289 66.5612 36.0463Z" fill="#3F3D56"/>
<path opacity="0.8" d="M126.36 77.4836C126.36 77.4836 91.5305 57.491 76.5361 61.2791C76.5361 61.2791 44.7585 64.6988 41.0756 72.2224C41.0756 72.2224 30.9741 40.6551 27.2913 39.6029" stroke="#6C63FF" stroke-width="2" stroke-miterlimit="10"/>
<path opacity="0.8" d="M41.0756 72.2224C46.9155 56.6492 99.5276 39.3925 99.5276 39.3925C92.0567 41.2865 76.5361 61.2791 76.5361 61.2791C76.5361 61.2791 43.7062 37.3932 27.2913 39.6029C27.2913 39.6029 99.5802 41.9704 126.36 77.4836" stroke="#6C63FF" stroke-width="2" stroke-miterlimit="10"/>
<path d="M27.2911 41.1286C28.1338 41.1286 28.8169 40.4455 28.8169 39.6029C28.8169 38.7603 28.1338 38.0771 27.2911 38.0771C26.4485 38.0771 25.7654 38.7603 25.7654 39.6029C25.7654 40.4455 26.4485 41.1286 27.2911 41.1286Z" fill="#FF9C00"/>
<path d="M41.0756 73.748C41.9182 73.748 42.6013 73.0649 42.6013 72.2223C42.6013 71.3796 41.9182 70.6965 41.0756 70.6965C40.2329 70.6965 39.5498 71.3796 39.5498 72.2223C39.5498 73.0649 40.2329 73.748 41.0756 73.748Z" fill="#FF9C00"/>
<path d="M99.5275 40.9182C100.37 40.9182 101.053 40.2351 101.053 39.3924C101.053 38.5498 100.37 37.8667 99.5275 37.8667C98.6848 37.8667 98.0017 38.5498 98.0017 39.3924C98.0017 40.2351 98.6848 40.9182 99.5275 40.9182Z" fill="#FF9C00"/>
<path d="M126.36 79.0093C127.202 79.0093 127.885 78.3262 127.885 77.4835C127.885 76.6409 127.202 75.9578 126.36 75.9578C125.517 75.9578 124.834 76.6409 124.834 77.4835C124.834 78.3262 125.517 79.0093 126.36 79.0093Z" fill="#FF9C00"/>
<path d="M76.536 62.8048C77.3786 62.8048 78.0618 62.1217 78.0618 61.279C78.0618 60.4364 77.3786 59.7533 76.536 59.7533C75.6934 59.7533 75.0103 60.4364 75.0103 61.279C75.0103 62.1217 75.6934 62.8048 76.536 62.8048Z" fill="#FF9C00"/>
</g>
<defs>
<clipPath id="clip0_773_256">
<rect width="150" height="111.419" fill="white"/>
</clipPath>
</defs>
</svg>
