<svg width="150" height="124" viewBox="0 0 150 124" fill="none" xmlns="http://www.w3.org/2000/svg">
<g clip-path="url(#clip0_773_341)">
<path d="M150 119.431C150.046 124.231 119.8 124.671 119.224 119.431C119.178 114.632 149.424 114.192 150 119.431Z" fill="#E6E6E6"/>
<path d="M126.336 102.769L124.088 103.995L125.519 108.695L127.767 108.899L128.993 106.243L126.336 102.769Z" fill="#9F616A"/>
<path d="M133.284 112.169V114.416L136.758 114.212L136.709 112.361L133.284 112.169Z" fill="#9F616A"/>
<path d="M125.519 75.7953L126.745 91.1213L130.627 113.599L136.758 112.782L134.714 95.0037L135.532 78.6562L125.519 75.7953Z" fill="#2F2E41"/>
<path d="M141.866 64.3522L127.154 64.5565L125.519 75.7955L135.532 80.4954L137.984 89.4865L125.519 102.769L130.423 108.899C130.423 108.899 137.371 99.4994 142.479 94.1865C147.588 88.8735 145.136 72.7303 145.136 72.7303L141.866 64.3522Z" fill="#2F2E41"/>
<path d="M133.08 35.3352C135.562 35.3352 137.575 33.3224 137.575 30.8396C137.575 28.3567 135.562 26.344 133.08 26.344C130.597 26.344 128.584 28.3567 128.584 30.8396C128.584 33.3224 130.597 35.3352 133.08 35.3352Z" fill="#9F616A"/>
<path d="M131.445 33.9048V38.4004L134.51 43.3046C134.51 43.3046 139.21 39.8308 138.188 39.0134C137.166 38.196 136.962 31.8613 136.962 31.8613L131.445 33.9048Z" fill="#9F616A"/>
<path d="M131.445 37.583L128.379 41.2612L129.606 66.8041L139.21 66.5998L140.844 44.3264L138.801 38.6047L137.399 36.6976L134.918 40.4438L131.445 37.583Z" fill="#D0CDE1"/>
<path d="M126.54 50.8654L124.293 59.4479L126.54 68.0304L122.862 72.9346L119.593 57.4045C119.593 57.4045 122.045 44.7351 122.249 43.3047C122.454 41.8743 122.862 41.6699 122.862 41.6699L124.497 41.8743L126.54 50.8654Z" fill="#2F2E41"/>
<path d="M142.888 54.1347L144.318 56.7914L144.727 61.2869L143.91 66.3955L146.771 71.0955L149.631 58.2216L146.566 41.6697H145.34L142.888 54.1347Z" fill="#2F2E41"/>
<path d="M125.519 102.565C125.519 102.565 122.658 103.382 121.636 103.586C120.615 103.791 122.249 107.673 122.249 107.673C122.249 107.673 123.271 112.986 123.475 114.008C123.68 115.03 125.11 118.503 126.949 118.912C128.788 119.321 127.562 111.76 127.562 111.76C127.562 111.76 128.38 109.308 128.38 108.491C128.38 107.673 127.154 108.082 127.154 108.082C123.884 107.673 125.519 102.565 125.519 102.565Z" fill="#2F2E41"/>
<path d="M132.262 118.299C132.466 119.525 132.058 119.525 135.327 119.934C138.597 120.343 137.779 117.686 137.779 117.686C137.643 116.434 137.369 115.2 136.962 114.008C136.349 112.373 133.08 114.417 133.08 114.417C133.08 114.417 132.058 117.073 132.262 118.299Z" fill="#2F2E41"/>
<path d="M136.967 32.0041L137.074 33.8214C137.074 33.8214 138.393 30.8397 138.597 27.7745C138.801 24.7093 135.327 24.0963 133.284 23.892C131.24 23.6876 127.767 25.118 127.767 26.7528C127.767 28.3875 131.445 27.9789 132.875 27.5702C134.306 27.1615 134.919 30.6353 134.919 30.6353L135.736 30.8397L136.967 32.0041Z" fill="#2F2E41"/>
<path d="M130.239 39.0301L131.445 37.583L134.918 40.4437L131.445 42.8959L130.239 39.0301Z" fill="#D0CDE1"/>
<path d="M138.801 38.6047L137.371 36.7656L134.918 40.4437L137.984 42.6916L138.801 38.6047Z" fill="#D0CDE1"/>
<path d="M125.927 53.7262L126.745 61.4913L125.11 66.1912L124.088 70.6868C124.088 70.6868 124.088 74.9781 128.175 75.1824C132.262 75.3867 135.736 62.3087 135.736 62.3087C135.736 62.3087 136.349 65.1695 136.758 66.8043C137.166 68.439 144.114 74.9781 144.114 74.9781C144.114 74.9781 145.749 74.7737 147.179 71.5042C148.61 68.2347 144.318 65.1695 144.318 65.1695L143.092 60.8783L143.501 55.5653L146.362 41.6699L137.882 37.2765L138.801 49.0263L135.736 58.2218L131.138 37.8895L129.606 39.0134L123.067 41.6699L125.927 53.7262Z" fill="#2F2E41"/>
<path d="M45.1686 84.6337C44.7645 84.6305 44.3558 84.6277 43.9544 84.6153L43.9669 84.2105C44.3641 84.2228 44.7703 84.2283 45.1687 84.2287C45.5688 84.2287 45.9765 84.2222 46.3809 84.2091L46.394 84.6137C45.9851 84.6269 45.5729 84.6337 45.1686 84.6337ZM41.5202 84.4626C40.7141 84.3863 39.8999 84.2829 39.1005 84.1554L39.1644 83.7556C39.9553 83.8817 40.7607 83.9841 41.5584 84.0597L41.5202 84.4626ZM48.8279 84.4583L48.7894 84.0553C49.5867 83.979 50.392 83.8756 51.1829 83.7482L51.2474 84.148C50.4479 84.2768 49.6338 84.3812 48.8279 84.4583H48.8279ZM36.7054 83.6933C35.916 83.5143 35.1218 83.3071 34.345 83.0776L34.4598 82.6892C35.2283 82.9164 36.014 83.1212 36.7949 83.2982L36.7054 83.6933ZM53.6419 83.6832L53.5519 83.2885C54.3346 83.11 55.1201 82.9041 55.8864 82.6766L56.0017 83.0649C55.2271 83.2948 54.4331 83.5029 53.6419 83.6832H53.6419ZM32.0289 82.3112C31.2673 82.0314 30.5052 81.7233 29.7639 81.3953L29.9279 81.0251C30.6611 81.3494 31.415 81.6543 32.1685 81.9311L32.0289 82.3112ZM58.3166 82.2953L58.1766 81.9153C58.9255 81.6395 59.6767 81.3348 60.4094 81.0097L60.5737 81.3799C59.8329 81.7085 59.0735 82.0165 58.3165 82.2953H58.3166ZM27.5635 80.3355C26.8468 79.9614 26.131 79.558 25.4363 79.1368L25.6463 78.7904C26.3337 79.2074 27.0417 79.6063 27.7509 79.9764L27.5635 80.3355ZM62.768 80.3206L62.5805 79.9618C63.288 79.5918 63.9945 79.193 64.68 78.7764L64.8904 79.1224C64.1974 79.5436 63.4834 79.9465 62.768 80.3206H62.768ZM23.3908 77.8046C22.7269 77.3413 22.069 76.8499 21.4351 76.3445L21.6876 76.0278C22.3147 76.528 22.9658 77.014 23.6225 77.4724L23.3908 77.8046ZM66.9325 77.7901L66.7004 77.4583C67.357 76.9994 68.0072 76.5134 68.6328 76.0137L68.8855 76.3301C68.2531 76.8351 67.5961 77.3263 66.9325 77.7901V77.7901ZM19.5767 74.7625C18.9766 74.2178 18.3866 73.6469 17.8234 73.0662L18.114 72.7843C18.6713 73.3589 19.2551 73.9236 19.849 74.4628L19.5767 74.7625ZM70.7419 74.7485L70.4695 74.4487C71.0619 73.9107 71.6451 73.3456 72.2033 72.7696L72.494 73.0512C71.9301 73.6335 71.3405 74.2045 70.7419 74.7485V74.7485ZM16.1818 71.2622C15.6564 70.646 15.1441 70.0052 14.6589 69.3574L14.9831 69.1146C15.4631 69.7557 15.97 70.3898 16.4899 70.9992L16.1818 71.2622ZM74.1351 71.2453L73.8271 70.9828C74.3469 70.3728 74.8539 69.7379 75.3338 69.0961L75.658 69.3385C75.173 69.9872 74.6607 70.6288 74.1351 71.2453V71.2453ZM13.2609 67.3596C12.8179 66.6812 12.3916 65.9807 11.9938 65.2773L12.3463 65.078C12.7398 65.7738 13.1616 66.4671 13.6 67.1382L13.2609 67.3596ZM77.0566 67.3377L76.7173 67.1166C77.1558 66.4441 77.5776 65.7497 77.9712 65.0523L78.324 65.2512C77.9262 65.9563 77.4997 66.6583 77.0566 67.3377V67.3377ZM10.863 63.1186C10.5106 62.3897 10.1777 61.6407 9.87364 60.8921L10.2487 60.7399C10.5497 61.4802 10.879 62.2213 11.2276 62.9422L10.863 63.1186ZM79.4552 63.0869L79.0906 62.9109C79.439 62.1888 79.7684 61.4458 80.0697 60.7019L80.445 60.8538C80.1405 61.6057 79.8075 62.3571 79.4552 63.0869V63.0869ZM9.02835 58.6038C8.7722 57.8347 8.53819 57.0479 8.33275 56.2653L8.72445 56.1625C8.92761 56.9366 9.15916 57.7151 9.41254 58.4757L9.02835 58.6038ZM81.2887 58.5609L80.9043 58.4336C81.1562 57.6737 81.387 56.8951 81.5896 56.1194L81.9815 56.2218C81.7765 57.006 81.5434 57.793 81.2887 58.5609V58.5609ZM7.78949 53.8875C7.63477 53.093 7.50387 52.2829 7.40036 51.4795L7.80195 51.4277C7.90437 52.2226 8.03388 53.024 8.18692 53.81L7.78949 53.8875ZM82.5219 53.843L82.1245 53.7663C82.2764 52.9805 82.4051 52.1787 82.5065 51.3832L82.9083 51.4346C82.8057 52.2386 82.6756 53.0489 82.5219 53.843V53.843ZM7.16626 49.0518C7.11435 48.2447 7.08756 47.4243 7.08667 46.6135L7.49162 46.613C7.4925 47.4154 7.519 48.2271 7.57041 49.0257L7.16626 49.0518ZM83.1396 49.0066L82.7355 48.9808C82.7859 48.183 82.8114 47.3713 82.8114 46.5688L82.8112 46.48H83.2162L83.2164 46.5674C83.2164 47.3799 83.1905 48.2 83.1396 49.0066ZM7.56477 44.2008L7.16062 44.1759C7.21083 43.3672 7.28766 42.5502 7.389 41.7474L7.79078 41.798C7.69043 42.5925 7.6144 43.4008 7.56477 44.2008ZM82.7299 44.0679C82.6773 43.2675 82.5985 42.4594 82.4954 41.6661L82.8968 41.6139C83.001 42.4157 83.0809 43.2323 83.1341 44.0414L82.7299 44.0679ZM8.17002 39.415L7.77239 39.3385C7.92514 38.5437 8.10607 37.7432 8.30992 36.9592L8.70181 37.0611C8.50013 37.8367 8.32118 38.6286 8.17002 39.415ZM82.1073 39.2844C81.9531 38.4976 81.7712 37.7063 81.5671 36.9323L81.9586 36.8291C82.165 37.6114 82.3487 38.4112 82.5047 39.2065L82.1073 39.2844ZM9.38456 34.7463L8.99998 34.6193C9.25416 33.8499 9.53711 33.078 9.84111 32.3252L10.2166 32.4768C9.91585 33.2216 9.63597 33.9851 9.38456 34.7463ZM80.8766 34.62C80.6224 33.8599 80.3402 33.0986 80.0379 32.357L80.4128 32.2042C80.7185 32.9538 81.0038 33.7233 81.2606 34.4915L80.8766 34.62ZM11.1934 30.2662L10.8284 30.0907C11.1796 29.3605 11.5595 28.6318 11.9572 27.9252L12.3101 28.1239C11.9166 28.8229 11.5409 29.5438 11.1934 30.2662ZM79.0566 30.1558C78.7078 29.4368 78.3307 28.7186 77.9353 28.0213L78.2876 27.8216C78.6872 28.5263 79.0684 29.2523 79.4208 29.9792L79.0566 30.1558ZM13.5617 26.0579L13.2222 25.8371C13.6639 25.1583 14.1336 24.4845 14.6182 23.8347L14.9429 24.0767C14.4634 24.7197 13.9986 25.3862 13.5617 26.0579ZM76.6791 25.9626C76.2409 25.2934 75.7749 24.6289 75.2936 23.9877L75.6175 23.7447C76.1039 24.3929 76.5751 25.0644 77.018 25.7408L76.6791 25.9626ZM16.4474 22.1883L16.1389 21.9261C16.6634 21.3091 17.2148 20.7009 17.7777 20.1185L18.0689 20.3999C17.5119 20.9761 16.9664 21.5779 16.4474 22.1883ZM73.7846 22.1049C73.2639 21.4962 72.7166 20.8961 72.1583 20.3216L72.4485 20.0394C73.013 20.62 73.5661 21.2265 74.0922 21.8417L73.7846 22.1049ZM19.8007 18.7185L19.5281 18.4191C20.1273 17.8733 20.7513 17.3403 21.3827 16.8351L21.6357 17.1513C21.011 17.6511 20.3936 18.1785 19.8007 18.7185V18.7185ZM70.4212 18.645C69.8274 18.1075 69.2084 17.5817 68.5808 17.0825L68.8331 16.7655C69.4672 17.2702 70.093 17.8015 70.6929 18.3449L70.4212 18.645ZM23.5665 15.7044L23.3341 15.3728C23.9967 14.9085 24.6832 14.4595 25.3746 14.0384L25.5853 14.3842C24.9013 14.8009 24.222 15.2451 23.5665 15.7044ZM66.6442 15.64C65.985 15.1811 65.3036 14.7384 64.6189 14.3241L64.8285 13.9777C65.5206 14.3964 66.2094 14.8438 66.8756 15.3076L66.6442 15.64ZM27.6835 13.1963L27.4955 12.8376C28.2114 12.4621 28.9493 12.1048 29.6885 11.7757L29.8532 12.1456C29.1218 12.4712 28.3919 12.8247 27.6835 13.1963ZM62.5129 13.1407C61.8018 12.7705 61.069 12.4187 60.3347 12.0948L60.4983 11.7243C61.2403 12.0516 61.9811 12.4073 62.7 12.7814L62.5129 13.1407ZM32.085 11.2373L31.9445 10.8574C32.7037 10.5766 33.4823 10.3167 34.2586 10.0853L34.3742 10.4734C33.6063 10.7023 32.8361 10.9594 32.085 11.2373H32.085ZM58.093 11.1913C57.3404 10.916 56.5692 10.6617 55.8011 10.4357L55.9153 10.0471C56.6918 10.2756 57.4714 10.5327 58.2322 10.8111L58.093 11.1913ZM36.7079 9.85901L36.6175 9.46434C37.4054 9.28382 38.2108 9.12653 39.0115 8.99652L39.0764 9.39633C38.2842 9.52485 37.4874 9.68046 36.7079 9.85901ZM53.4651 9.82955C52.6843 9.65357 51.8868 9.50073 51.0949 9.37517L51.1584 8.97517C51.9588 9.10211 52.7649 9.25663 53.5541 9.43449L53.4651 9.82955ZM41.4697 9.08639L41.4305 8.68342C42.2345 8.60542 43.0534 8.55213 43.8644 8.52514L43.8778 8.92988C43.0753 8.95658 42.2651 9.00927 41.4697 9.08639V9.08639ZM48.7006 9.07384C47.9039 8.99939 47.0934 8.94956 46.292 8.92574L46.304 8.521C47.114 8.54512 47.9331 8.59544 48.7382 8.67067L48.7006 9.07384Z" fill="#D0CDE1"/>
<path d="M43.7342 19.0324C48.9899 19.0324 53.2505 14.7719 53.2505 9.51622C53.2505 4.26056 48.9899 0 43.7342 0C38.4786 0 34.218 4.26056 34.218 9.51622C34.218 14.7719 38.4786 19.0324 43.7342 19.0324Z" fill="#FF9C00"/>
<path d="M80.5841 44.9489C85.8398 44.9489 90.1003 40.6884 90.1003 35.4327C90.1003 30.1771 85.8398 25.9165 80.5841 25.9165C75.3284 25.9165 71.0679 30.1771 71.0679 35.4327C71.0679 40.6884 75.3284 44.9489 80.5841 44.9489Z" fill="#FF9C00"/>
<path d="M69.0433 84.6336C74.299 84.6336 78.5595 80.3731 78.5595 75.1174C78.5595 69.8618 74.299 65.6012 69.0433 65.6012C63.7877 65.6012 59.5271 69.8618 59.5271 75.1174C59.5271 80.3731 63.7877 84.6336 69.0433 84.6336Z" fill="#FF9C00"/>
<path d="M23.2843 86.2534C28.54 86.2534 32.8005 81.9928 32.8005 76.7372C32.8005 71.4815 28.54 67.2209 23.2843 67.2209C18.0286 67.2209 13.7681 71.4815 13.7681 76.7372C13.7681 81.9928 18.0286 86.2534 23.2843 86.2534Z" fill="#FF9C00"/>
<path d="M9.51622 44.9489C14.7719 44.9489 19.0324 40.6884 19.0324 35.4327C19.0324 30.1771 14.7719 25.9165 9.51622 25.9165C4.26056 25.9165 0 30.1771 0 35.4327C0 40.6884 4.26056 44.9489 9.51622 44.9489Z" fill="#FF9C00"/>
<path d="M47.8121 8.75751H44.4928C44.191 8.75751 43.9015 8.63761 43.6881 8.42418C43.4747 8.21076 43.3548 7.92129 43.3548 7.61947V4.30016C43.3548 4.2877 43.3523 4.27537 43.3475 4.26387C43.3428 4.25236 43.3358 4.2419 43.327 4.2331C43.3182 4.22429 43.3077 4.21731 43.2962 4.21254C43.2847 4.20777 43.2724 4.20532 43.2599 4.20532H41.0787C40.6762 4.20532 40.2903 4.36519 40.0057 4.64975C39.7211 4.93432 39.5613 5.32028 39.5613 5.72272V13.3097C39.5613 13.7121 39.7211 14.0981 40.0057 14.3827C40.2903 14.6672 40.6762 14.8271 41.0787 14.8271H46.3896C46.792 14.8271 47.178 14.6672 47.4625 14.3827C47.7471 14.0981 47.907 13.7121 47.907 13.3097V8.85234C47.907 8.83989 47.9045 8.82756 47.8997 8.81605C47.895 8.80454 47.888 8.79409 47.8792 8.78528C47.8704 8.77648 47.8599 8.76949 47.8484 8.76473C47.8369 8.75996 47.8246 8.75751 47.8121 8.75751V8.75751ZM45.6309 12.551H41.8374C41.7368 12.551 41.6403 12.511 41.5691 12.4399C41.498 12.3687 41.458 12.2723 41.458 12.1716C41.458 12.071 41.498 11.9745 41.5691 11.9034C41.6403 11.8323 41.7368 11.7923 41.8374 11.7923H45.6309C45.7315 11.7923 45.828 11.8323 45.8991 11.9034C45.9702 11.9745 46.0102 12.071 46.0102 12.1716C46.0102 12.2723 45.9702 12.3687 45.8991 12.4399C45.828 12.511 45.7315 12.551 45.6309 12.551ZM45.6309 10.6542H41.8374C41.7368 10.6542 41.6403 10.6143 41.5691 10.5431C41.498 10.472 41.458 10.3755 41.458 10.2749C41.458 10.1743 41.498 10.0778 41.5691 10.0067C41.6403 9.93552 41.7368 9.89555 41.8374 9.89555H45.6309C45.7315 9.89555 45.828 9.93552 45.8991 10.0067C45.9702 10.0778 46.0102 10.1743 46.0102 10.2749C46.0102 10.3755 45.9702 10.472 45.8991 10.5431C45.828 10.6143 45.7315 10.6542 45.6309 10.6542Z" fill="white"/>
<path d="M47.604 7.91794L44.1944 4.5083C44.1877 4.5017 44.1793 4.49722 44.1701 4.49541C44.161 4.49359 44.1515 4.49453 44.1428 4.49811C44.1342 4.50168 44.1268 4.50772 44.1216 4.51549C44.1164 4.52325 44.1136 4.53238 44.1135 4.54173V7.61943C44.1135 7.72004 44.1535 7.81653 44.2246 7.88767C44.2958 7.95881 44.3923 7.99878 44.4929 7.99878H47.5706C47.5799 7.99874 47.5891 7.99594 47.5968 7.99073C47.6046 7.98551 47.6106 7.97812 47.6142 7.96948C47.6178 7.96084 47.6187 7.95134 47.6169 7.94217C47.6151 7.93299 47.6106 7.92456 47.604 7.91793L47.604 7.91794Z" fill="white"/>
<path d="M70.4196 73.2428C70.3029 73.2429 70.1899 73.2834 70.0997 73.3574C70.0095 73.4315 69.9479 73.5345 69.9252 73.649C69.9025 73.7634 69.9201 73.8822 69.9752 73.9851C70.0302 74.0879 70.1193 74.1685 70.2271 74.2131C70.3349 74.2577 70.4548 74.2636 70.5665 74.2297C70.6781 74.1957 70.7745 74.1242 70.8393 74.0271C70.9041 73.9301 70.9332 73.8136 70.9217 73.6975C70.9102 73.5814 70.8588 73.4728 70.7763 73.3904C70.7295 73.3435 70.6738 73.3064 70.6126 73.2811C70.5514 73.2558 70.4858 73.2428 70.4196 73.2428Z" fill="white"/>
<path d="M73.2273 71.2261V71.2244C73.2113 71.1544 73.1761 71.0902 73.1255 71.0391C73.075 70.988 73.0112 70.9521 72.9414 70.9353C72.3783 70.7979 71.4925 70.9444 70.5109 71.3374C69.5669 71.7043 68.7032 72.2512 67.9679 72.9477C67.7671 73.1474 67.5805 73.361 67.4095 73.5869C67.0319 73.5608 66.6533 73.6216 66.3028 73.7647C65.2118 74.2448 64.9002 75.4736 64.8173 75.9781C64.8053 76.0498 64.81 76.1233 64.831 76.1928C64.852 76.2624 64.8889 76.3262 64.9386 76.3792C64.9883 76.4322 65.0496 76.4731 65.1176 76.4985C65.1857 76.524 65.2587 76.5334 65.331 76.5261H65.3335L66.5489 76.3934C66.5504 76.4089 66.5521 76.4231 66.5534 76.4361C66.569 76.5842 66.635 76.7225 66.7404 76.8276L67.3336 77.4211C67.4386 77.5267 67.5768 77.5928 67.7249 77.6084L67.7655 77.6127L67.6333 78.8266V78.8291C67.6269 78.8908 67.6327 78.9531 67.6504 79.0126C67.6682 79.072 67.6974 79.1274 67.7365 79.1755C67.7757 79.2237 67.8239 79.2636 67.8784 79.2932C67.933 79.3227 67.9929 79.3411 68.0546 79.3475C68.0691 79.349 68.0837 79.3499 68.0983 79.35C68.1246 79.35 68.1508 79.3479 68.1767 79.3436C68.684 79.2619 69.9123 78.9541 70.3911 77.8573C70.533 77.508 70.594 77.1311 70.5696 76.7549C70.7965 76.5843 71.0109 76.3977 71.2111 76.1965C71.9071 75.4682 72.4546 74.6112 72.8231 73.6736C73.214 72.7032 73.3612 71.8107 73.2273 71.2261ZM71.2043 74.5305C71.0491 74.6859 70.8513 74.7918 70.6359 74.8347C70.4205 74.8777 70.1972 74.8558 69.9943 74.7719C69.7913 74.6879 69.6178 74.5457 69.4957 74.3631C69.3736 74.1806 69.3083 73.9659 69.3082 73.7463C69.3081 73.5266 69.3731 73.3119 69.495 73.1292C69.617 72.9465 69.7903 72.8041 69.9932 72.72C70.1961 72.6358 70.4193 72.6137 70.6348 72.6564C70.8502 72.6992 71.0481 72.8048 71.2035 72.9601L71.2043 72.9609C71.4125 73.1659 71.5307 73.4452 71.5329 73.7374C71.5351 74.0295 71.4211 74.3106 71.2161 74.5187L71.2043 74.5305Z" fill="white"/>
<path d="M67.2656 77.5821C67.1925 77.573 67.1186 77.591 67.0578 77.6326C66.937 77.7151 66.8157 77.7968 66.6933 77.8763C66.6401 77.9105 66.577 77.9259 66.5141 77.9199C66.4512 77.9139 66.3921 77.887 66.3463 77.8434C66.3006 77.7998 66.2708 77.7421 66.2617 77.6795C66.2527 77.6169 66.2649 77.5532 66.2965 77.4984L66.5261 77.1016C66.5589 77.0536 66.5772 76.9971 66.5787 76.939C66.5802 76.8808 66.565 76.8235 66.5347 76.7738C66.5045 76.7241 66.4606 76.6842 66.4082 76.6589C66.3559 76.6335 66.2973 76.6238 66.2396 76.6309C65.9848 76.6631 65.748 76.7792 65.5664 76.9608C65.4972 77.0302 65.2869 77.2407 65.1737 78.0428C65.1415 78.2732 65.1212 78.5051 65.1129 78.7376C65.1119 78.7773 65.1187 78.8168 65.1329 78.8538C65.1472 78.8909 65.1686 78.9248 65.1959 78.9535C65.2233 78.9823 65.256 79.0054 65.2923 79.0216C65.3286 79.0377 65.3677 79.0465 65.4074 79.0475C65.41 79.0476 65.4126 79.0476 65.4152 79.0476H65.4228C65.6554 79.0394 65.8875 79.0192 66.1181 78.9872C66.9206 78.8738 67.1311 78.6633 67.2003 78.5942C67.3827 78.4125 67.4985 78.1745 67.5289 77.9188C67.5386 77.8393 67.5163 77.7591 67.4669 77.696C67.4176 77.6329 67.3452 77.5919 67.2656 77.5821V77.5821Z" fill="white"/>
<path d="M20.0093 81.9083H19.3198C19.1827 81.9083 19.0512 81.8538 18.9542 81.7568C18.8572 81.6598 18.8027 81.5283 18.8027 81.3912V78.2885C18.8027 78.1513 18.8572 78.0198 18.9542 77.9228C19.0512 77.8258 19.1827 77.7714 19.3198 77.7714H20.0093C20.1465 77.7714 20.278 77.8258 20.375 77.9228C20.472 78.0198 20.5264 78.1513 20.5264 78.2885V81.3912C20.5264 81.5283 20.472 81.6598 20.375 81.7568C20.278 81.8538 20.1465 81.9083 20.0093 81.9083V81.9083Z" fill="white"/>
<path d="M24.8358 81.9084H24.1463C24.0091 81.9084 23.8776 81.8539 23.7806 81.7569C23.6836 81.6599 23.6292 81.5284 23.6292 81.3912V76.2201C23.6292 76.083 23.6836 75.9514 23.7806 75.8545C23.8776 75.7575 24.0091 75.703 24.1463 75.703H24.8358C24.9729 75.703 25.1044 75.7575 25.2014 75.8545C25.2984 75.9514 25.3529 76.083 25.3529 76.2201V81.3912C25.3529 81.5284 25.2984 81.6599 25.2014 81.7569C25.1044 81.8539 24.9729 81.9084 24.8358 81.9084V81.9084Z" fill="white"/>
<path d="M27.2488 81.9083H26.5593C26.4222 81.9083 26.2907 81.8539 26.1937 81.7569C26.0967 81.6599 26.0422 81.5284 26.0422 81.3912V73.8069C26.0422 73.6698 26.0967 73.5382 26.1937 73.4413C26.2907 73.3443 26.4222 73.2898 26.5593 73.2898H27.2488C27.386 73.2898 27.5175 73.3443 27.6145 73.4413C27.7115 73.5382 27.7659 73.6698 27.7659 73.8069V81.3912C27.7659 81.5284 27.7115 81.6599 27.6145 81.7569C27.5175 81.8539 27.386 81.9083 27.2488 81.9083V81.9083Z" fill="white"/>
<path d="M22.4224 81.9083H21.7329C21.5958 81.9083 21.4643 81.8538 21.3673 81.7568C21.2703 81.6599 21.2158 81.5283 21.2158 81.3912V72.0832C21.2158 71.946 21.2703 71.8145 21.3673 71.7175C21.4643 71.6205 21.5958 71.566 21.7329 71.566H22.4224C22.5596 71.566 22.6911 71.6205 22.7881 71.7175C22.8851 71.8145 22.9395 71.946 22.9395 72.0832V81.3912C22.9395 81.4591 22.9262 81.5263 22.9002 81.5891C22.8742 81.6518 22.8361 81.7088 22.7881 81.7568C22.74 81.8049 22.683 81.8429 22.6203 81.8689C22.5576 81.8949 22.4903 81.9083 22.4224 81.9083V81.9083Z" fill="white"/>
<path d="M81.0401 35.1836L80.5475 34.6908C80.4347 34.5779 80.2818 34.5143 80.1222 34.5139C79.9626 34.5135 79.8093 34.5763 79.6959 34.6885L76.2711 37.8492C76.1454 37.9605 76.0685 38.1167 76.057 38.2842C76.0533 38.3674 76.0669 38.4505 76.0968 38.5282C76.1267 38.6059 76.1723 38.6766 76.2307 38.7359L76.9665 39.4798L76.9678 39.4811C77.0815 39.5945 77.2354 39.6583 77.3959 39.6588H77.4182C77.5013 39.6542 77.5827 39.6331 77.6577 39.597C77.7327 39.5608 77.7999 39.5102 77.8553 39.4481L81.038 36.039C81.1518 35.9262 81.216 35.773 81.2167 35.6128C81.2174 35.4527 81.1545 35.2989 81.0417 35.1852L81.0401 35.1836Z" fill="white"/>
<path d="M84.9989 34.1876L84.9931 34.1818L84.3465 33.5418C84.3087 33.5041 84.2637 33.4742 84.2142 33.4539C84.1647 33.4337 84.1117 33.4234 84.0583 33.4237C83.9716 33.4238 83.8872 33.4511 83.817 33.5018C83.817 33.4937 83.8181 33.4858 83.8187 33.4788C83.8448 33.3136 83.8099 33.1445 83.7206 33.003C83.5781 32.811 83.4217 32.6298 83.2527 32.4608L83.2512 32.4593C82.7785 32.0058 82.2231 31.6475 81.6151 31.4039C81.2973 31.2735 80.9571 31.2065 80.6137 31.2067C80.1691 31.2027 79.737 31.3541 79.3921 31.6346C79.2939 31.7284 79.2044 31.8308 79.1245 31.9406C79.0864 31.9933 79.0663 32.0568 79.0672 32.1218C79.068 32.1868 79.0899 32.2497 79.1294 32.3013C79.1689 32.3529 79.224 32.3904 79.2866 32.4081C79.3491 32.4259 79.4157 32.423 79.4764 32.3998C79.5293 32.3801 79.5834 32.3635 79.6383 32.3502C79.7526 32.326 79.8699 32.3187 79.9864 32.3285C80.2278 32.3537 80.4592 32.4386 80.6597 32.5755C80.7721 32.6702 80.8615 32.7891 80.9212 32.9234C80.9809 33.0577 81.0093 33.2038 81.0042 33.3507C80.9204 33.5893 80.7924 33.81 80.6269 34.0012C80.5827 34.0594 80.5612 34.1316 80.5662 34.2044C80.5713 34.2773 80.6025 34.3458 80.6542 34.3974L81.3034 35.0466C81.358 35.1013 81.4314 35.133 81.5086 35.1351C81.5858 35.1373 81.6609 35.1098 81.7185 35.0583C81.902 34.8943 82.1816 34.6472 82.2794 34.5866C82.3629 34.5307 82.4575 34.4934 82.5567 34.4772C82.6306 34.47 82.705 34.4856 82.7697 34.5221C82.77 34.5253 82.7697 34.5286 82.7687 34.5317C82.7677 34.5348 82.766 34.5376 82.7639 34.54L82.7295 34.5727L82.7238 34.578C82.6476 34.6539 82.6046 34.7571 82.6044 34.8648C82.6042 34.9725 82.6468 35.0758 82.7228 35.1521L82.7248 35.1541L83.3711 35.7939C83.409 35.8316 83.454 35.8614 83.5035 35.8817C83.553 35.9019 83.606 35.9122 83.6594 35.9118C83.7668 35.912 83.8699 35.87 83.9466 35.7948L84.9936 34.7606C84.9972 34.757 85.0008 34.7532 85.0042 34.7494C85.0744 34.6724 85.113 34.5717 85.112 34.4675C85.111 34.3633 85.0706 34.2633 84.9989 34.1876Z" fill="white"/>
<path d="M11.0271 34.8661C10.9524 34.8661 10.8794 34.8439 10.8173 34.8024C10.7552 34.7609 10.7068 34.7019 10.6782 34.6329C10.6496 34.5639 10.6421 34.4879 10.6567 34.4147C10.6712 34.3414 10.7072 34.2741 10.76 34.2213L11.6261 33.3552L10.76 32.4891C10.6892 32.4182 10.6494 32.3221 10.6494 32.222C10.6494 32.1218 10.6892 32.0257 10.76 31.9549C10.8309 31.884 10.927 31.8442 11.0271 31.8442C11.1273 31.8442 11.2234 31.884 11.2942 31.9549L12.4274 33.0881C12.4625 33.1231 12.4903 33.1648 12.5093 33.2106C12.5283 33.2564 12.5381 33.3055 12.5381 33.3552C12.5381 33.4048 12.5283 33.4539 12.5093 33.4997C12.4903 33.5455 12.4625 33.5872 12.4274 33.6222L11.2942 34.7554C11.2592 34.7906 11.2176 34.8184 11.1717 34.8374C11.1259 34.8564 11.0767 34.8661 11.0271 34.8661Z" fill="white"/>
<path d="M4.98345 35.9994C4.93384 35.9994 4.88472 35.9896 4.83889 35.9706C4.79306 35.9517 4.75142 35.9238 4.71634 35.8888C4.68127 35.8537 4.65345 35.812 4.63446 35.7662C4.61548 35.7204 4.60571 35.6713 4.60571 35.6217V35.2439C4.60868 34.644 4.84825 34.0694 5.2724 33.645C5.69655 33.2207 6.271 32.9808 6.87098 32.9775H11.7826C11.8828 32.9775 11.9789 33.0173 12.0497 33.0882C12.1206 33.159 12.1603 33.2551 12.1603 33.3553C12.1603 33.4554 12.1206 33.5515 12.0497 33.6224C11.9789 33.6932 11.8828 33.733 11.7826 33.733H6.8721C6.47192 33.7354 6.08881 33.8955 5.80594 34.1786C5.52307 34.4616 5.36325 34.8449 5.36118 35.2451V35.6217C5.36118 35.6713 5.35141 35.7204 5.33243 35.7662C5.31344 35.812 5.28562 35.8537 5.25055 35.8888C5.21547 35.9238 5.17383 35.9517 5.128 35.9706C5.08217 35.9896 5.03305 35.9994 4.98345 35.9994V35.9994Z" fill="white"/>
<path d="M8.00532 39.0212C7.95571 39.0213 7.90657 39.0116 7.86073 38.9926C7.81489 38.9736 7.77326 38.9457 7.73823 38.9106L6.60503 37.7774C6.56995 37.7423 6.54213 37.7007 6.52314 37.6549C6.50416 37.609 6.49438 37.5599 6.49438 37.5103C6.49438 37.4607 6.50416 37.4116 6.52314 37.3658C6.54213 37.3199 6.56995 37.2783 6.60503 37.2432L7.73823 36.11C7.80908 36.0393 7.90513 35.9996 8.00524 35.9996C8.10536 35.9997 8.20137 36.0395 8.27216 36.1103C8.34296 36.1811 8.38275 36.2771 8.38279 36.3772C8.38284 36.4773 8.34313 36.5733 8.2724 36.6442L7.40633 37.5103L8.2724 38.3764C8.32523 38.4292 8.36121 38.4965 8.37578 38.5698C8.39035 38.6431 8.38287 38.719 8.35428 38.788C8.32569 38.8571 8.27728 38.9161 8.21517 38.9576C8.15305 38.9991 8.08002 39.0212 8.00532 39.0212Z" fill="white"/>
<path d="M7.2498 37.8879C7.14962 37.8879 7.05354 37.8481 6.9827 37.7773C6.91187 37.7065 6.87207 37.6104 6.87207 37.5102C6.87207 37.41 6.91187 37.3139 6.9827 37.2431C7.05354 37.1723 7.14962 37.1325 7.2498 37.1325H12.1603C12.5605 37.1301 12.9436 36.97 13.2265 36.6869C13.5093 36.4038 13.6691 36.0206 13.6712 35.6204V35.2438C13.6712 35.1436 13.711 35.0476 13.7819 34.9767C13.8527 34.9059 13.9488 34.8661 14.049 34.8661C14.1491 34.8661 14.2452 34.9059 14.3161 34.9767C14.3869 35.0476 14.4267 35.1436 14.4267 35.2438V35.6216C14.4237 36.2215 14.1841 36.7961 13.76 37.2205C13.3359 37.6448 12.7614 37.8847 12.1614 37.8879L7.2498 37.8879Z" fill="white"/>
</g>
<defs>
<clipPath id="clip0_773_341">
<rect width="150" height="123.198" fill="white"/>
</clipPath>
</defs>
</svg>
