<svg width="49" height="49" viewBox="0 0 49 49" fill="none" xmlns="http://www.w3.org/2000/svg">
<circle cx="24.5" cy="24.5" r="24.5" fill="white"/>
<path d="M34.4302 19.4079C34.446 19.63 34.446 19.8521 34.446 20.0742C34.446 26.8476 29.2906 34.6522 19.868 34.6522C16.9651 34.6522 14.2684 33.8114 12 32.3521C12.4125 32.3997 12.809 32.4155 13.2373 32.4155C15.6326 32.4155 17.8375 31.6065 19.5983 30.2265C17.3458 30.1789 15.4581 28.7036 14.8077 26.6731C15.125 26.7207 15.4422 26.7524 15.7754 26.7524C16.2354 26.7524 16.6955 26.689 17.1237 26.578C14.776 26.1021 13.0152 24.0399 13.0152 21.5494V21.486C13.6973 21.8667 14.4905 22.1046 15.3312 22.1363C13.9511 21.2163 13.0469 19.6458 13.0469 17.8692C13.0469 16.9174 13.3007 16.045 13.7449 15.2835C16.2671 18.3927 20.0583 20.4231 24.3096 20.6452C24.2303 20.2645 24.1827 19.868 24.1827 19.4714C24.1827 16.6478 26.4669 14.3477 29.3064 14.3477C30.7816 14.3477 32.1141 14.9663 33.05 15.9657C34.208 15.7436 35.3184 15.3153 36.302 14.7284C35.9212 15.9181 35.1122 16.9175 34.0494 17.552C35.0805 17.441 36.0799 17.1554 36.9999 16.7588C36.3021 17.774 35.4295 18.6782 34.4302 19.4079V19.4079Z" fill="#ff9c00"/>
</svg>
