<svg width="148" height="148" viewBox="0 0 148 148" fill="none" xmlns="http://www.w3.org/2000/svg">
<g filter="url(#filter0_d_537_841)">
<circle cx="69" cy="64" r="42" fill="white"/>
</g>
<path d="M82.5938 75.7821L80.0312 73.2196V69.9062H77.4688V74.2804L80.7821 77.5938L82.5938 75.7821Z" fill="#ED6363"/>
<path d="M78.75 82.7188C76.9762 82.7188 75.2421 82.1927 73.7672 81.2072C72.2923 80.2217 71.1428 78.821 70.464 77.1822C69.7851 75.5434 69.6075 73.7401 69.9536 72.0003C70.2996 70.2605 71.1538 68.6624 72.4081 67.4081C73.6624 66.1538 75.2605 65.2996 77.0003 64.9536C78.7401 64.6075 80.5434 64.7851 82.1822 65.464C83.821 66.1428 85.2217 67.2923 86.2072 68.7672C87.1927 70.2421 87.7188 71.9762 87.7188 73.75C87.716 76.1278 86.7702 78.4075 85.0889 80.0889C83.4075 81.7702 81.1278 82.716 78.75 82.7188V82.7188ZM78.75 67.3438C77.483 67.3438 76.2444 67.7195 75.1909 68.4234C74.1374 69.1273 73.3163 70.1278 72.8314 71.2984C72.3465 72.469 72.2197 73.7571 72.4668 74.9998C72.714 76.2425 73.3242 77.384 74.2201 78.2799C75.116 79.1758 76.2575 79.786 77.5002 80.0332C78.7429 80.2803 80.031 80.1535 81.2016 79.6686C82.3722 79.1837 83.3727 78.3626 84.0766 77.3091C84.7805 76.2556 85.1563 75.017 85.1563 73.75C85.1546 72.0515 84.4791 70.423 83.278 69.222C82.077 68.0209 80.4485 67.3455 78.75 67.3438V67.3438Z" fill="#ED6363"/>
<path d="M68.5 78.875C64.4236 78.8706 60.5155 77.2493 57.6331 74.3669C54.7507 71.4845 53.1294 67.5764 53.125 63.5H50.5625C50.5679 68.2557 52.4595 72.815 55.8223 76.1777C59.185 79.5405 63.7443 81.4321 68.5 81.4375V78.875Z" fill="#ED6363"/>
<path d="M63.375 53.25H57.0687C59.142 50.9287 61.8719 49.2922 64.8964 48.5576C67.9209 47.8229 71.0973 48.0248 74.0044 49.1364C76.9116 50.2481 79.4123 52.2169 81.1751 54.7821C82.9378 57.3473 83.8794 60.3876 83.875 63.5H86.4375C86.4431 59.934 85.3841 56.4475 83.396 53.4871C81.4079 50.5268 78.5814 48.2273 75.2784 46.8832C71.9753 45.5391 68.3463 45.2117 64.8561 45.9429C61.3658 46.6741 58.1733 48.4306 55.6875 50.9873V45.5625H53.125V55.8125H63.375V53.25Z" fill="#ED6363"/>
<defs>
<filter id="filter0_d_537_841" x="0" y="0" width="148" height="148" filterUnits="userSpaceOnUse" color-interpolation-filters="sRGB">
<feFlood flood-opacity="0" result="BackgroundImageFix"/>
<feColorMatrix in="SourceAlpha" type="matrix" values="0 0 0 0 0 0 0 0 0 0 0 0 0 0 0 0 0 0 127 0" result="hardAlpha"/>
<feOffset dx="5" dy="10"/>
<feGaussianBlur stdDeviation="16"/>
<feComposite in2="hardAlpha" operator="out"/>
<feColorMatrix type="matrix" values="0 0 0 0 0.758333 0 0 0 0 0.758333 0 0 0 0 0.758333 0 0 0 0.25 0"/>
<feBlend mode="normal" in2="BackgroundImageFix" result="effect1_dropShadow_537_841"/>
<feBlend mode="normal" in="SourceGraphic" in2="effect1_dropShadow_537_841" result="shape"/>
</filter>
</defs>
</svg>
