<svg width="148" height="148" viewBox="0 0 148 148" fill="none" xmlns="http://www.w3.org/2000/svg">
<g filter="url(#filter0_d_537_824)">
<circle cx="69" cy="64" r="42" fill="white"/>
</g>
<path d="M67.2188 78.875V71.1106C65.1815 70.8529 63.2685 69.9898 61.7271 68.633C60.1857 67.2762 59.087 65.4881 58.5729 63.5H57.266C56.4393 63.5001 55.6345 63.2337 54.9712 62.7402C54.3078 62.2468 53.8213 61.5526 53.5837 60.7607L51.749 54.6466C51.6111 54.1873 51.5826 53.7021 51.6656 53.2298C51.7487 52.7575 51.9411 52.3111 52.2275 51.9265C52.5138 51.5418 52.8861 51.2294 53.3147 51.0143C53.7433 50.7991 54.2163 50.6872 54.6958 50.6875H58.25V46.8438C58.25 46.5039 58.385 46.1781 58.6253 45.9378C58.8656 45.6975 59.1915 45.5625 59.5313 45.5625H77.4688C77.8086 45.5625 78.1345 45.6975 78.3748 45.9378C78.615 46.1781 78.75 46.5039 78.75 46.8438V50.6875H82.3042C82.7838 50.6872 83.2567 50.7991 83.6853 51.0143C84.1139 51.2294 84.4863 51.5418 84.7726 51.9265C85.0589 52.3111 85.2513 52.7575 85.3344 53.2298C85.4175 53.7021 85.389 54.1873 85.2511 54.6466L83.4138 60.7581C83.1768 61.5501 82.6908 62.2445 82.028 62.7384C81.3651 63.2324 80.5607 63.4994 79.734 63.5H78.4271C77.9131 65.4881 76.8143 67.2762 75.2729 68.633C73.7316 69.9898 71.8185 70.8529 69.7813 71.1106V78.875H74.9063C75.2461 78.875 75.572 79.01 75.8123 79.2503C76.0525 79.4906 76.1875 79.8164 76.1875 80.1562C76.1875 80.4961 76.0525 80.8219 75.8123 81.0622C75.572 81.3025 75.2461 81.4375 74.9063 81.4375H62.0938C61.754 81.4375 61.4281 81.3025 61.1878 81.0622C60.9475 80.8219 60.8125 80.4961 60.8125 80.1562C60.8125 79.8164 60.9475 79.4906 61.1878 79.2503C61.4281 79.01 61.754 78.875 62.0938 78.875H67.2188ZM76.1875 60.9375V48.125H60.8125V60.9375C60.8125 62.9764 61.6225 64.9317 63.0641 66.3734C64.5058 67.8151 66.4612 68.625 68.5 68.625C70.5389 68.625 72.4942 67.8151 73.9359 66.3734C75.3776 64.9317 76.1875 62.9764 76.1875 60.9375ZM78.75 60.9375H79.734C80.0095 60.9376 80.2777 60.8489 80.4988 60.6846C80.7199 60.5203 80.8821 60.2891 80.9615 60.0253L82.7962 53.9086C82.819 53.832 82.8235 53.7512 82.8095 53.6726C82.7955 53.594 82.7633 53.5197 82.7155 53.4558C82.6677 53.3918 82.6057 53.3399 82.5343 53.3042C82.4628 53.2684 82.3841 53.2499 82.3042 53.25H78.75V60.9375ZM58.25 60.9375V53.25H54.6958C54.616 53.2499 54.5372 53.2684 54.4658 53.3042C54.3944 53.3399 54.3323 53.3918 54.2845 53.4558C54.2367 53.5197 54.2045 53.594 54.1905 53.6726C54.1765 53.7512 54.1811 53.832 54.2038 53.9086L56.0386 60.0253C56.1179 60.2891 56.2802 60.5203 56.5013 60.6846C56.7224 60.8489 56.9906 60.9376 57.266 60.9375H58.25Z" fill="#FFAE34"/>
<defs>
<filter id="filter0_d_537_824" x="0" y="0" width="148" height="148" filterUnits="userSpaceOnUse" color-interpolation-filters="sRGB">
<feFlood flood-opacity="0" result="BackgroundImageFix"/>
<feColorMatrix in="SourceAlpha" type="matrix" values="0 0 0 0 0 0 0 0 0 0 0 0 0 0 0 0 0 0 127 0" result="hardAlpha"/>
<feOffset dx="5" dy="10"/>
<feGaussianBlur stdDeviation="16"/>
<feComposite in2="hardAlpha" operator="out"/>
<feColorMatrix type="matrix" values="0 0 0 0 0.758333 0 0 0 0 0.758333 0 0 0 0 0.758333 0 0 0 0.25 0"/>
<feBlend mode="normal" in2="BackgroundImageFix" result="effect1_dropShadow_537_824"/>
<feBlend mode="normal" in="SourceGraphic" in2="effect1_dropShadow_537_824" result="shape"/>
</filter>
</defs>
</svg>
