<svg width="148" height="148" viewBox="0 0 148 148" fill="none" xmlns="http://www.w3.org/2000/svg">
<g filter="url(#filter0_d_537_832)">
<circle cx="69" cy="64" r="42" fill="white"/>
</g>
<g clip-path="url(#clip0_537_832)">
<path d="M68.6771 46.0007C69.3485 46.0007 70.0096 46.0443 70.6246 46.1468C71.2303 46.2261 71.8279 46.3582 72.4106 46.5414C72.9949 46.7182 73.5663 46.9386 74.1378 47.2153C74.6938 47.4793 75.2653 47.8021 75.8367 48.1532C76.8028 48.7682 77.7535 49.2653 78.7221 49.6625C80.6289 50.4257 82.6453 50.8798 84.6953 51.0078C85.7356 51.0821 86.8042 51.1257 87.9163 51.1257V61.3757C87.9163 63.3232 87.6678 65.1682 87.1706 66.9261C86.6931 68.6589 86.0146 70.3299 85.1488 71.905C84.2867 73.4779 83.2667 74.959 82.1046 76.3253C80.9246 77.7227 79.647 79.0345 78.2813 80.2511C76.8976 81.4712 75.4402 82.6051 73.9174 83.6464C72.3953 84.7021 70.8578 85.6836 69.3203 86.5753L68.7053 86.9418L68.0903 86.5753C66.5097 85.6603 64.9659 84.6832 63.4624 83.6464C61.931 82.6168 60.4729 81.4823 59.0985 80.2511C57.7336 79.0345 56.4569 77.7226 55.2778 76.3253C54.1187 74.9532 53.0942 73.473 52.2181 71.905C51.3672 70.3228 50.6894 68.6536 50.1963 66.9261C49.6961 65.1188 49.4494 63.2508 49.4635 61.3757V51.1257C50.5781 51.1257 51.6467 51.0821 52.6871 51.0078C53.7112 50.9367 54.7287 50.7902 55.7313 50.5696C56.7128 50.3493 57.6942 50.0571 58.6603 49.6625C59.6627 49.2579 60.6238 48.7576 61.5303 48.1686C62.6578 47.4357 63.8006 46.895 64.9281 46.5388C66.1424 46.1666 67.4071 45.985 68.6771 46.0007ZM85.3385 53.6446C83.3987 53.5505 81.477 53.2262 79.6138 52.6786C77.7605 52.1257 75.9952 51.3121 74.371 50.2621C73.5285 49.7091 72.6135 49.2754 71.6521 48.9732C70.6918 48.6829 69.6931 48.5395 68.6899 48.5478C67.6792 48.5413 66.6732 48.6846 65.7046 48.9732C64.7418 49.2655 63.828 49.7 62.9935 50.2621C61.3664 51.3178 59.5965 52.135 57.7378 52.6888C55.921 53.2167 54.0196 53.5396 52.026 53.6574V61.3885C52.026 63.0874 52.2463 64.7121 52.6871 66.2778C53.1361 67.8298 53.7548 69.3277 54.5321 70.7442C55.3186 72.1754 56.2457 73.5248 57.2996 74.7724C58.3681 76.0306 59.5085 77.2017 60.7385 78.3138C61.9685 79.4285 63.2574 80.4535 64.6053 81.4042C65.966 82.3574 67.3292 83.221 68.6899 84.0103C70.0832 83.1991 71.4416 82.3297 72.7617 81.4042C74.1185 80.4565 75.4143 79.4243 76.6413 78.3138C77.8713 77.2017 79.0142 76.0306 80.0828 74.7724C81.1368 73.5249 82.0638 72.1755 82.8503 70.7442C83.6241 69.3295 84.2336 67.8309 84.6671 66.2778C85.1212 64.688 85.3473 63.0418 85.3385 61.3885V53.6446Z" fill="#33DD44"/>
<path fill-rule="evenodd" clip-rule="evenodd" d="M78.2297 58.067L77.1022 57.0984L76.0619 57.1881L64.8894 70.3798L61.0841 64.9473L60.0591 64.7731L58.8726 65.6213L58.6958 66.6463L63.5876 73.6316L64.1437 73.9391L65.3147 74.0109L65.9144 73.7495L78.3041 59.1048L78.2297 58.067Z" fill="#33DD44"/>
</g>
<defs>
<filter id="filter0_d_537_832" x="0" y="0" width="148" height="148" filterUnits="userSpaceOnUse" color-interpolation-filters="sRGB">
<feFlood flood-opacity="0" result="BackgroundImageFix"/>
<feColorMatrix in="SourceAlpha" type="matrix" values="0 0 0 0 0 0 0 0 0 0 0 0 0 0 0 0 0 0 127 0" result="hardAlpha"/>
<feOffset dx="5" dy="10"/>
<feGaussianBlur stdDeviation="16"/>
<feComposite in2="hardAlpha" operator="out"/>
<feColorMatrix type="matrix" values="0 0 0 0 0.758333 0 0 0 0 0.758333 0 0 0 0 0.758333 0 0 0 0.25 0"/>
<feBlend mode="normal" in2="BackgroundImageFix" result="effect1_dropShadow_537_832"/>
<feBlend mode="normal" in="SourceGraphic" in2="effect1_dropShadow_537_832" result="shape"/>
</filter>
<clipPath id="clip0_537_832">
<rect width="41" height="41" fill="white" transform="translate(48 46)"/>
</clipPath>
</defs>
</svg>
